CenturySchL-BoldItal.ufo
<glyph name="exclam" format="1">
  <advance width="333"/>
  <unicode hex="0021"/>
  <outline>
    <contour>
      <point x="152" y="203" type="curve"/>
      <point x="100" y="216" type="line"/>
      <point x="130" y="351"/>
      <point x="147" y="468"/>
      <point x="151" y="567" type="curve" smooth="yes"/>
      <point x="155" y="657"/>
      <point x="158" y="677"/>
      <point x="175" y="702" type="curve" smooth="yes"/>
      <point x="190" y="724"/>
      <point x="213" y="737"/>
      <point x="238" y="737" type="curve" smooth="yes"/>
      <point x="296" y="737"/>
      <point x="336" y="704"/>
      <point x="336" y="657" type="curve" smooth="yes"/>
      <point x="336" y="625"/>
      <point x="336" y="625"/>
      <point x="281" y="514" type="curve" smooth="yes"/>
      <point x="221" y="394"/>
      <point x="197" y="335"/>
    </contour>
    <contour>
      <point x="90" y="159" type="curve" smooth="yes"/>
      <point x="138" y="159"/>
      <point x="177" y="120"/>
      <point x="177" y="72" type="curve" smooth="yes"/>
      <point x="177" y="24"/>
      <point x="138" y="-15"/>
      <point x="89" y="-15" type="curve" smooth="yes"/>
      <point x="42" y="-15"/>
      <point x="3" y="25"/>
      <point x="3" y="72" type="curve" smooth="yes"/>
      <point x="3" y="120"/>
      <point x="42" y="159"/>
    </contour>
  </outline>
</glyph>
<glyph name="quotedbl" format="1">
  <advance width="400"/>
  <unicode hex="0022"/>
  <outline>
    <contour>
      <point x="146" y="397" type="line"/>
      <point x="100" y="410" type="line"/>
      <point x="121" y="646" type="line" smooth="yes"/>
      <point x="126" y="703"/>
      <point x="152" y="734"/>
      <point x="195" y="734" type="curve" smooth="yes"/>
      <point x="237" y="734"/>
      <point x="269" y="703"/>
      <point x="269" y="663" type="curve" smooth="yes"/>
      <point x="269" y="647"/>
      <point x="264" y="629"/>
      <point x="253" y="609" type="curve" smooth="yes"/>
    </contour>
    <contour>
      <point x="384" y="397" type="line"/>
      <point x="338" y="410" type="line"/>
      <point x="359" y="646" type="line" smooth="yes"/>
      <point x="364" y="703"/>
      <point x="390" y="734"/>
      <point x="433" y="734" type="curve" smooth="yes"/>
      <point x="475" y="734"/>
      <point x="507" y="703"/>
      <point x="507" y="663" type="curve" smooth="yes"/>
      <point x="507" y="647"/>
      <point x="502" y="629"/>
      <point x="491" y="609" type="curve" smooth="yes"/>
    </contour>
  </outline>
</glyph>
<glyph name="percent" format="1">
  <advance width="889"/>
  <unicode hex="0025"/>
  <outline>
    <contour>
      <point x="676" y="722" type="line"/>
      <point x="262" y="0" type="line"/>
      <point x="210" y="0" type="line"/>
      <point x="562" y="615" type="line"/>
      <point x="519" y="601"/>
      <point x="496" y="597"/>
      <point x="464" y="597" type="curve" smooth="yes"/>
      <point x="442" y="597"/>
      <point x="427" y="599"/>
      <point x="401" y="606" type="curve"/>
      <point x="403" y="589"/>
      <point x="404" y="579"/>
      <point x="404" y="569" type="curve" smooth="yes"/>
      <point x="404" y="515"/>
      <point x="374" y="441"/>
      <point x="333" y="392" type="curve" smooth="yes"/>
      <point x="288" y="339"/>
      <point x="241" y="315"/>
      <point x="184" y="315" type="curve" smooth="yes"/>
      <point x="107" y="315"/>
      <point x="51" y="369"/>
      <point x="51" y="443" type="curve" smooth="yes"/>
      <point x="51" y="512"/>
      <point x="97" y="603"/>
      <point x="157" y="655" type="curve" smooth="yes"/>
      <point x="197" y="689"/>
      <point x="243" y="708"/>
      <point x="287" y="708" type="curve" smooth="yes"/>
      <point x="327" y="708"/>
      <point x="354" y="694"/>
      <point x="380" y="660" type="curve"/>
      <point x="408" y="646"/>
      <point x="433" y="640"/>
      <point x="467" y="640" type="curve" smooth="yes"/>
      <point x="537" y="640"/>
      <point x="586" y="665"/>
      <point x="629" y="722" type="curve"/>
    </contour>
    <contour>
      <point x="300" y="658" type="curve"/>
      <point x="263" y="645"/>
      <point x="251" y="633"/>
      <point x="215" y="569" type="curve" smooth="yes"/>
      <point x="170" y="491"/>
      <point x="155" y="452"/>
      <point x="155" y="418" type="curve" smooth="yes"/>
      <point x="155" y="386"/>
      <point x="176" y="364"/>
      <point x="206" y="364" type="curve" smooth="yes"/>
      <point x="282" y="364"/>
      <point x="364" y="477"/>
      <point x="364" y="582" type="curve" smooth="yes"/>
      <point x="364" y="595"/>
      <point x="362" y="606"/>
      <point x="358" y="619" type="curve"/>
      <point x="332" y="629"/>
      <point x="318" y="638"/>
    </contour>
    <contour>
      <point x="714" y="407" type="curve" smooth="yes"/>
      <point x="785" y="407"/>
      <point x="836" y="355"/>
      <point x="836" y="283" type="curve" smooth="yes"/>
      <point x="836" y="223"/>
      <point x="806" y="147"/>
      <point x="760" y="89" type="curve" smooth="yes"/>
      <point x="722" y="41"/>
      <point x="669" y="14"/>
      <point x="616" y="14" type="curve" smooth="yes"/>
      <point x="538" y="14"/>
      <point x="481" y="67"/>
      <point x="481" y="140" type="curve" smooth="yes"/>
      <point x="481" y="197"/>
      <point x="508" y="266"/>
      <point x="550" y="319" type="curve"/>
      <point x="597" y="376"/>
      <point x="654" y="407"/>
    </contour>
    <contour>
      <point x="737" y="356" type="curve" smooth="yes"/>
      <point x="709" y="356"/>
      <point x="684" y="334"/>
      <point x="655" y="287" type="curve" smooth="yes"/>
      <point x="603" y="201"/>
      <point x="583" y="153"/>
      <point x="583" y="115" type="curve" smooth="yes"/>
      <point x="583" y="86"/>
      <point x="605" y="63"/>
      <point x="633" y="63" type="curve" smooth="yes"/>
      <point x="710" y="63"/>
      <point x="794" y="177"/>
      <point x="794" y="280" type="curve" smooth="yes"/>
      <point x="794" y="322"/>
      <point x="769" y="356"/>
    </contour>
  </outline>
</glyph>
<glyph name="ampersand" format="1">
  <advance width="889"/>
  <unicode hex="0026"/>
  <outline>
    <contour>
      <point x="823" y="397" type="line"/>
      <point x="817" y="346" type="line"/>
      <point x="746" y="340"/>
      <point x="727" y="325"/>
      <point x="633" y="203" type="curve" smooth="yes"/>
      <point x="624" y="190"/>
      <point x="601" y="166"/>
      <point x="569" y="134" type="curve"/>
      <point x="614" y="80"/>
      <point x="633" y="67"/>
      <point x="663" y="67" type="curve" smooth="yes"/>
      <point x="694" y="67"/>
      <point x="728" y="94"/>
      <point x="767" y="150" type="curve"/>
      <point x="806" y="120" type="line"/>
      <point x="748" y="30"/>
      <point x="675" y="-15"/>
      <point x="589" y="-15" type="curve" smooth="yes"/>
      <point x="531" y="-15"/>
      <point x="477" y="7"/>
      <point x="439" y="48" type="curve"/>
      <point x="380" y="6"/>
      <point x="318" y="-15"/>
      <point x="248" y="-15" type="curve" smooth="yes"/>
      <point x="119" y="-15"/>
      <point x="31" y="63"/>
      <point x="31" y="179" type="curve" smooth="yes"/>
      <point x="31" y="251"/>
      <point x="69" y="320"/>
      <point x="130" y="359" type="curve" smooth="yes"/>
      <point x="169" y="385"/>
      <point x="198" y="398"/>
      <point x="270" y="425" type="curve"/>
      <point x="258" y="471"/>
      <point x="255" y="495"/>
      <point x="255" y="528" type="curve" smooth="yes"/>
      <point x="255" y="598"/>
      <point x="272" y="645"/>
      <point x="312" y="682" type="curve" smooth="yes"/>
      <point x="353" y="721"/>
      <point x="399" y="737"/>
      <point x="472" y="737" type="curve" smooth="yes"/>
      <point x="584" y="737"/>
      <point x="654" y="684"/>
      <point x="654" y="599" type="curve" smooth="yes"/>
      <point x="654" y="540"/>
      <point x="619" y="496"/>
      <point x="543" y="461" type="curve" smooth="yes"/>
      <point x="517" y="448"/>
      <point x="492" y="440"/>
      <point x="439" y="425" type="curve"/>
      <point x="456" y="355"/>
      <point x="501" y="248"/>
      <point x="541" y="182" type="curve"/>
      <point x="606" y="249"/>
      <point x="626" y="277"/>
      <point x="626" y="304" type="curve" smooth="yes"/>
      <point x="626" y="315"/>
      <point x="618" y="328"/>
      <point x="608" y="334" type="curve" smooth="yes"/>
      <point x="597" y="341"/>
      <point x="584" y="343"/>
      <point x="541" y="346" type="curve"/>
      <point x="547" y="397" type="line"/>
    </contour>
    <contour>
      <point x="425" y="477" type="curve"/>
      <point x="499" y="506"/>
      <point x="540" y="553"/>
      <point x="540" y="612" type="curve" smooth="yes"/>
      <point x="540" y="655"/>
      <point x="515" y="685"/>
      <point x="479" y="685" type="curve" smooth="yes"/>
      <point x="436" y="685"/>
      <point x="410" y="644"/>
      <point x="410" y="575" type="curve" smooth="yes"/>
      <point x="410" y="543"/>
      <point x="414" y="515"/>
    </contour>
    <contour>
      <point x="283" y="372" type="curve"/>
      <point x="227" y="346"/>
      <point x="199" y="302"/>
      <point x="199" y="240" type="curve" smooth="yes"/>
      <point x="199" y="143"/>
      <point x="257" y="69"/>
      <point x="334" y="69" type="curve" smooth="yes"/>
      <point x="360" y="69"/>
      <point x="377" y="74"/>
      <point x="406" y="90" type="curve"/>
      <point x="353" y="175"/>
      <point x="315" y="263"/>
    </contour>
  </outline>
</glyph>
<glyph name="parenleft" format="1">
  <advance width="407"/>
  <unicode hex="0028"/>
  <outline>
    <contour>
      <point x="436" y="737" type="curve"/>
      <point x="452" y="705" type="line"/>
      <point x="359" y="651"/>
      <point x="308" y="592"/>
      <point x="263" y="489" type="curve" smooth="yes"/>
      <point x="219" y="387"/>
      <point x="185" y="225"/>
      <point x="185" y="117" type="curve" smooth="yes"/>
      <point x="185" y="38"/>
      <point x="207" y="-33"/>
      <point x="251" y="-96" type="curve"/>
      <point x="221" y="-118" type="line"/>
      <point x="125" y="-21"/>
      <point x="71" y="108"/>
      <point x="71" y="238" type="curve" smooth="yes"/>
      <point x="71" y="449"/>
      <point x="221" y="653"/>
    </contour>
  </outline>
</glyph>
<glyph name="parenright" format="1">
  <advance width="407"/>
  <unicode hex="0029"/>
  <outline>
    <contour>
      <point x="-54" y="-118" type="curve"/>
      <point x="-70" y="-86" type="line"/>
      <point x="21" y="-33"/>
      <point x="71" y="26"/>
      <point x="116" y="130" type="curve" smooth="yes"/>
      <point x="160" y="234"/>
      <point x="194" y="395"/>
      <point x="194" y="502" type="curve" smooth="yes"/>
      <point x="194" y="581"/>
      <point x="172" y="652"/>
      <point x="128" y="715" type="curve"/>
      <point x="158" y="737" type="line"/>
      <point x="254" y="640"/>
      <point x="308" y="511"/>
      <point x="308" y="381" type="curve" smooth="yes"/>
      <point x="308" y="171"/>
      <point x="158" y="-36"/>
    </contour>
  </outline>
</glyph>
<glyph name="hyphen" format="1">
  <advance width="333"/>
  <unicode hex="002D"/>
  <outline>
    <contour>
      <point x="45" y="310" type="line"/>
      <point x="272" y="310" type="line"/>
      <point x="237" y="180" type="line"/>
      <point x="10" y="180" type="line"/>
    </contour>
  </outline>
</glyph>
<glyph name="zero" format="1">
  <advance width="574"/>
  <unicode hex="0030"/>
  <outline>
    <contour>
      <point x="358" y="705" type="curve" smooth="yes"/>
      <point x="477" y="705"/>
      <point x="553" y="606"/>
      <point x="553" y="452" type="curve" smooth="yes"/>
      <point x="553" y="202"/>
      <point x="398" y="-15"/>
      <point x="221" y="-15" type="curve" smooth="yes"/>
      <point x="100" y="-15"/>
      <point x="21" y="84"/>
      <point x="21" y="236" type="curve" smooth="yes"/>
      <point x="21" y="352"/>
      <point x="62" y="480"/>
      <point x="127" y="568" type="curve" smooth="yes"/>
      <point x="195" y="660"/>
      <point x="272" y="705"/>
    </contour>
    <contour>
      <point x="353" y="656" type="curve" smooth="yes"/>
      <point x="306" y="656"/>
      <point x="265" y="593"/>
      <point x="230" y="469" type="curve" smooth="yes"/>
      <point x="197" y="350"/>
      <point x="166" y="176"/>
      <point x="166" y="107" type="curve" smooth="yes"/>
      <point x="166" y="63"/>
      <point x="188" y="36"/>
      <point x="223" y="36" type="curve" smooth="yes"/>
      <point x="270" y="36"/>
      <point x="301" y="81"/>
      <point x="340" y="209" type="curve" smooth="yes"/>
      <point x="375" y="323"/>
      <point x="406" y="495"/>
      <point x="406" y="572" type="curve" smooth="yes"/>
      <point x="406" y="625"/>
      <point x="386" y="656"/>
    </contour>
  </outline>
</glyph>
<glyph name="one" format="1">
  <advance width="574"/>
  <unicode hex="0031"/>
  <outline>
    <contour>
      <point x="489" y="707" type="line"/>
      <point x="338" y="144" type="line" smooth="yes"/>
      <point x="330" y="112"/>
      <point x="325" y="90"/>
      <point x="325" y="81" type="curve" smooth="yes"/>
      <point x="325" y="59"/>
      <point x="339" y="54"/>
      <point x="404" y="54" type="curve" smooth="yes"/>
      <point x="454" y="54" type="line"/>
      <point x="447" y="0" type="line"/>
      <point x="25" y="0" type="line"/>
      <point x="33" y="54" type="line"/>
      <point x="84" y="54" type="line" smooth="yes"/>
      <point x="126" y="54"/>
      <point x="150" y="58"/>
      <point x="160" y="68" type="curve" smooth="yes"/>
      <point x="168" y="75"/>
      <point x="168" y="75"/>
      <point x="187" y="144" type="curve" smooth="yes"/>
      <point x="287" y="521" type="line" smooth="yes"/>
      <point x="294" y="544"/>
      <point x="295" y="550"/>
      <point x="295" y="559" type="curve" smooth="yes"/>
      <point x="295" y="579"/>
      <point x="284" y="585"/>
      <point x="250" y="585" type="curve" smooth="yes"/>
      <point x="160" y="585" type="line"/>
      <point x="173" y="635" type="line"/>
      <point x="274" y="639"/>
      <point x="403" y="673"/>
      <point x="448" y="707" type="curve"/>
    </contour>
  </outline>
</glyph>
<glyph name="six" format="1">
  <advance width="574"/>
  <unicode hex="0036"/>
  <outline>
    <contour>
      <point x="225" y="390" type="curve"/>
      <point x="263" y="421"/>
      <point x="292" y="431"/>
      <point x="338" y="431" type="curve" smooth="yes"/>
      <point x="444" y="431"/>
      <point x="520" y="357"/>
      <point x="520" y="253" type="curve" smooth="yes"/>
      <point x="520" y="107"/>
      <point x="394" y="-15"/>
      <point x="243" y="-15" type="curve" smooth="yes"/>
      <point x="112" y="-15"/>
      <point x="30" y="79"/>
      <point x="30" y="230" type="curve" smooth="yes"/>
      <point x="30" y="346"/>
      <point x="73" y="472"/>
      <point x="145" y="565" type="curve" smooth="yes"/>
      <point x="217" y="659"/>
      <point x="303" y="705"/>
      <point x="405" y="705" type="curve" smooth="yes"/>
      <point x="502" y="705"/>
      <point x="573" y="653"/>
      <point x="573" y="581" type="curve" smooth="yes"/>
      <point x="573" y="531"/>
      <point x="538" y="496"/>
      <point x="488" y="496" type="curve" smooth="yes"/>
      <point x="443" y="496"/>
      <point x="410" y="526"/>
      <point x="410" y="568" type="curve" smooth="yes"/>
      <point x="410" y="586"/>
      <point x="416" y="601"/>
      <point x="432" y="620" type="curve" smooth="yes"/>
      <point x="438" y="627"/>
      <point x="440" y="631"/>
      <point x="440" y="636" type="curve" smooth="yes"/>
      <point x="440" y="646"/>
      <point x="425" y="654"/>
      <point x="404" y="654" type="curve" smooth="yes"/>
      <point x="362" y="654"/>
      <point x="314" y="614"/>
      <point x="283" y="552" type="curve" smooth="yes"/>
      <point x="260" y="505"/>
      <point x="249" y="473"/>
    </contour>
    <contour>
      <point x="294" y="371" type="curve" smooth="yes"/>
      <point x="227" y="371"/>
      <point x="181" y="276"/>
      <point x="181" y="138" type="curve" smooth="yes"/>
      <point x="181" y="69"/>
      <point x="204" y="31"/>
      <point x="245" y="31" type="curve" smooth="yes"/>
      <point x="279" y="31"/>
      <point x="308" y="55"/>
      <point x="326" y="97" type="curve"/>
      <point x="346" y="147"/>
      <point x="358" y="212"/>
      <point x="358" y="270" type="curve" smooth="yes"/>
      <point x="358" y="334"/>
      <point x="335" y="371"/>
    </contour>
  </outline>
</glyph>
<glyph name="B" format="1">
  <advance width="759"/>
  <unicode hex="0042"/>
  <outline>
    <contour>
      <point x="104" y="722" type="line"/>
      <point x="456" y="722" type="line" smooth="yes"/>
      <point x="538" y="722"/>
      <point x="605" y="710"/>
      <point x="643" y="687" type="curve" smooth="yes"/>
      <point x="692" y="658"/>
      <point x="720" y="609"/>
      <point x="720" y="551" type="curve" smooth="yes"/>
      <point x="720" y="451"/>
      <point x="637" y="385"/>
      <point x="489" y="368" type="curve"/>
      <point x="620" y="345"/>
      <point x="683" y="289"/>
      <point x="683" y="195" type="curve" smooth="yes"/>
      <point x="683" y="124"/>
      <point x="643" y="62"/>
      <point x="578" y="36" type="curve" smooth="yes"/>
      <point x="523" y="13"/>
      <point x="446" y="0"/>
      <point x="368" y="0" type="curve" smooth="yes"/>
      <point x="-50" y="0" type="line"/>
      <point x="-43" y="54" type="line"/>
      <point x="-39" y="54" type="line" smooth="yes"/>
      <point x="3" y="54"/>
      <point x="27" y="58"/>
      <point x="38" y="68" type="curve" smooth="yes"/>
      <point x="46" y="76"/>
      <point x="46" y="76"/>
      <point x="64" y="144" type="curve" smooth="yes"/>
      <point x="181" y="578" type="line" smooth="yes"/>
      <point x="190" y="611"/>
      <point x="194" y="632"/>
      <point x="194" y="641" type="curve" smooth="yes"/>
      <point x="194" y="663"/>
      <point x="180" y="668"/>
      <point x="115" y="668" type="curve" smooth="yes"/>
      <point x="96" y="668" type="line"/>
    </contour>
    <contour>
      <point x="308" y="397" type="line"/>
      <point x="339" y="397" type="line" smooth="yes"/>
      <point x="410" y="397"/>
      <point x="438" y="403"/>
      <point x="468" y="423" type="curve" smooth="yes"/>
      <point x="511" y="452"/>
      <point x="537" y="507"/>
      <point x="537" y="567" type="curve" smooth="yes"/>
      <point x="537" y="632"/>
      <point x="502" y="668"/>
      <point x="440" y="668" type="curve" smooth="yes"/>
      <point x="425" y="668" type="line" smooth="yes"/>
      <point x="389" y="668"/>
      <point x="378" y="657"/>
      <point x="365" y="608" type="curve" smooth="yes"/>
    </contour>
    <contour>
      <point x="294" y="343" type="line"/>
      <point x="235" y="122" type="line" smooth="yes"/>
      <point x="229" y="101"/>
      <point x="227" y="91"/>
      <point x="227" y="84" type="curve" smooth="yes"/>
      <point x="227" y="63"/>
      <point x="244" y="54"/>
      <point x="280" y="54" type="curve" smooth="yes"/>
      <point x="313" y="54" type="line" smooth="yes"/>
      <point x="365" y="54"/>
      <point x="408" y="67"/>
      <point x="436" y="91" type="curve" smooth="yes"/>
      <point x="471" y="120"/>
      <point x="492" y="175"/>
      <point x="492" y="233" type="curve" smooth="yes"/>
      <point x="492" y="276"/>
      <point x="480" y="304"/>
      <point x="455" y="322" type="curve" smooth="yes"/>
      <point x="430" y="339"/>
      <point x="411" y="343"/>
      <point x="344" y="343" type="curve" smooth="yes"/>
    </contour>
  </outline>
</glyph>
<glyph name="C" format="1">
  <advance width="759"/>
  <unicode hex="0043"/>
  <outline>
    <contour>
      <point x="759" y="712" type="line"/>
      <point x="701" y="426" type="line"/>
      <point x="652" y="432" type="line"/>
      <point x="647" y="603"/>
      <point x="594" y="684"/>
      <point x="487" y="684" type="curve" smooth="yes"/>
      <point x="421" y="684"/>
      <point x="361" y="646"/>
      <point x="320" y="576" type="curve"/>
      <point x="261" y="479"/>
      <point x="225" y="349"/>
      <point x="225" y="238" type="curve" smooth="yes"/>
      <point x="225" y="121"/>
      <point x="291" y="48"/>
      <point x="397" y="48" type="curve" smooth="yes"/>
      <point x="488" y="48"/>
      <point x="579" y="116"/>
      <point x="616" y="212" type="curve"/>
      <point x="679" y="212" type="line"/>
      <point x="663" y="161"/>
      <point x="633" y="112"/>
      <point x="591" y="70" type="curve" smooth="yes"/>
      <point x="536" y="15"/>
      <point x="458" y="-15"/>
      <point x="368" y="-15" type="curve" smooth="yes"/>
      <point x="274" y="-15"/>
      <point x="178" y="18"/>
      <point x="122" y="71" type="curve" smooth="yes"/>
      <point x="67" y="123"/>
      <point x="35" y="204"/>
      <point x="35" y="292" type="curve" smooth="yes"/>
      <point x="35" y="531"/>
      <point x="238" y="737"/>
      <point x="473" y="737" type="curve" smooth="yes"/>
      <point x="552" y="737"/>
      <point x="611" y="711"/>
      <point x="657" y="655" type="curve"/>
      <point x="713" y="712" type="line"/>
    </contour>
  </outline>
</glyph>
<glyph name="F" format="1">
  <advance width="704"/>
  <unicode hex="0046"/>
  <outline>
    <contour>
      <point x="726" y="722" type="line"/>
      <point x="686" y="477" type="line"/>
      <point x="634" y="477" type="line"/>
      <point x="633" y="540"/>
      <point x="627" y="577"/>
      <point x="613" y="604" type="curve"/>
      <point x="593" y="646"/>
      <point x="546" y="668"/>
      <point x="476" y="668" type="curve" smooth="yes"/>
      <point x="440" y="668" type="line" smooth="yes"/>
      <point x="399" y="668"/>
      <point x="388" y="659"/>
      <point x="377" y="620" type="curve" smooth="yes"/>
      <point x="318" y="401" type="line"/>
      <point x="339" y="401" type="line" smooth="yes"/>
      <point x="426" y="401"/>
      <point x="471" y="434"/>
      <point x="505" y="523" type="curve"/>
      <point x="558" y="516" type="line"/>
      <point x="468" y="181" type="line"/>
      <point x="415" y="189" type="line"/>
      <point x="419" y="218"/>
      <point x="420" y="232"/>
      <point x="420" y="250" type="curve" smooth="yes"/>
      <point x="420" y="315"/>
      <point x="389" y="347"/>
      <point x="326" y="347" type="curve" smooth="yes"/>
      <point x="304" y="347" type="line"/>
      <point x="250" y="144" type="line" smooth="yes"/>
      <point x="240" y="108"/>
      <point x="236" y="90"/>
      <point x="236" y="81" type="curve" smooth="yes"/>
      <point x="236" y="59"/>
      <point x="250" y="54"/>
      <point x="315" y="54" type="curve" smooth="yes"/>
      <point x="342" y="54" type="line"/>
      <point x="334" y="0" type="line"/>
      <point x="-41" y="0" type="line"/>
      <point x="-34" y="54" type="line"/>
      <point x="-30" y="54" type="line" smooth="yes"/>
      <point x="39" y="54"/>
      <point x="51" y="60"/>
      <point x="62" y="102" type="curve" smooth="yes"/>
      <point x="73" y="144" type="line"/>
      <point x="190" y="578" type="line" smooth="yes"/>
      <point x="199" y="613"/>
      <point x="203" y="632"/>
      <point x="203" y="641" type="curve" smooth="yes"/>
      <point x="203" y="663"/>
      <point x="189" y="668"/>
      <point x="124" y="668" type="curve" smooth="yes"/>
      <point x="105" y="668" type="line"/>
      <point x="113" y="722" type="line"/>
    </contour>
  </outline>
</glyph>
<glyph name="J" format="1">
  <advance width="667"/>
  <unicode hex="004A"/>
  <outline>
    <contour>
      <point x="332" y="668" type="line"/>
      <point x="340" y="722" type="line"/>
      <point x="718" y="722" type="line"/>
      <point x="711" y="668" type="line"/>
      <point x="707" y="668" type="line" smooth="yes"/>
      <point x="665" y="668"/>
      <point x="641" y="664"/>
      <point x="630" y="654" type="curve" smooth="yes"/>
      <point x="622" y="646"/>
      <point x="622" y="646"/>
      <point x="604" y="578" type="curve" smooth="yes"/>
      <point x="522" y="274" type="line" smooth="yes"/>
      <point x="487" y="144"/>
      <point x="487" y="144"/>
      <point x="470" y="113" type="curve" smooth="yes"/>
      <point x="421" y="24"/>
      <point x="346" y="-15"/>
      <point x="226" y="-15" type="curve" smooth="yes"/>
      <point x="75" y="-15"/>
      <point x="-9" y="51"/>
      <point x="-9" y="169" type="curve" smooth="yes"/>
      <point x="-9" y="262"/>
      <point x="46" y="328"/>
      <point x="124" y="328" type="curve" smooth="yes"/>
      <point x="188" y="328"/>
      <point x="231" y="289"/>
      <point x="231" y="231" type="curve" smooth="yes"/>
      <point x="231" y="179"/>
      <point x="193" y="138"/>
      <point x="144" y="138" type="curve" smooth="yes"/>
      <point x="129" y="138"/>
      <point x="115" y="142"/>
      <point x="100" y="151" type="curve" smooth="yes"/>
      <point x="85" y="159"/>
      <point x="82" y="160"/>
      <point x="77" y="160" type="curve" smooth="yes"/>
      <point x="65" y="160"/>
      <point x="59" y="151"/>
      <point x="59" y="135" type="curve" smooth="yes"/>
      <point x="59" y="83"/>
      <point x="108" y="42"/>
      <point x="170" y="42" type="curve" smooth="yes"/>
      <point x="217" y="42"/>
      <point x="262" y="69"/>
      <point x="290" y="114" type="curve" smooth="yes"/>
      <point x="312" y="150"/>
      <point x="315" y="158"/>
      <point x="342" y="260" type="curve" smooth="yes"/>
      <point x="427" y="578" type="line" smooth="yes"/>
      <point x="437" y="614"/>
      <point x="441" y="632"/>
      <point x="441" y="641" type="curve" smooth="yes"/>
      <point x="441" y="663"/>
      <point x="427" y="668"/>
      <point x="362" y="668" type="curve" smooth="yes"/>
    </contour>
  </outline>
</glyph>
<glyph name="M" format="1">
  <advance width="944"/>
  <unicode hex="004D"/>
  <outline>
    <contour>
      <point x="406" y="722" type="line"/>
      <point x="441" y="259" type="line"/>
      <point x="719" y="722" type="line"/>
      <point x="988" y="722" type="line"/>
      <point x="981" y="668" type="line"/>
      <point x="977" y="668" type="line" smooth="yes"/>
      <point x="935" y="668"/>
      <point x="911" y="664"/>
      <point x="900" y="654" type="curve" smooth="yes"/>
      <point x="892" y="647"/>
      <point x="892" y="647"/>
      <point x="874" y="578" type="curve" smooth="yes"/>
      <point x="757" y="144" type="line" smooth="yes"/>
      <point x="749" y="112"/>
      <point x="744" y="89"/>
      <point x="744" y="81" type="curve" smooth="yes"/>
      <point x="744" y="59"/>
      <point x="758" y="54"/>
      <point x="823" y="54" type="curve" smooth="yes"/>
      <point x="842" y="54" type="line"/>
      <point x="834" y="0" type="line"/>
      <point x="467" y="0" type="line"/>
      <point x="474" y="54" type="line"/>
      <point x="478" y="54" type="line" smooth="yes"/>
      <point x="520" y="54"/>
      <point x="544" y="58"/>
      <point x="554" y="68" type="curve" smooth="yes"/>
      <point x="563" y="76"/>
      <point x="563" y="76"/>
      <point x="581" y="144" type="curve" smooth="yes"/>
      <point x="693" y="562" type="line"/>
      <point x="356" y="0" type="line"/>
      <point x="293" y="0" type="line"/>
      <point x="254" y="566" type="line"/>
      <point x="160" y="216" type="line"/>
      <point x="140" y="136"/>
      <point x="139" y="129"/>
      <point x="139" y="109" type="curve" smooth="yes"/>
      <point x="139" y="74"/>
      <point x="168" y="54"/>
      <point x="221" y="54" type="curve"/>
      <point x="213" y="0" type="line"/>
      <point x="-24" y="0" type="line"/>
      <point x="-17" y="54" type="line"/>
      <point x="38" y="58"/>
      <point x="58" y="89"/>
      <point x="93" y="216" type="curve" smooth="yes"/>
      <point x="190" y="578" type="line" smooth="yes"/>
      <point x="201" y="619"/>
      <point x="204" y="632"/>
      <point x="204" y="641" type="curve" smooth="yes"/>
      <point x="204" y="663"/>
      <point x="190" y="668"/>
      <point x="125" y="668" type="curve" smooth="yes"/>
      <point x="106" y="668" type="line"/>
      <point x="113" y="722" type="line"/>
    </contour>
  </outline>
</glyph>
<glyph name="V" format="1">
  <advance width="741"/>
  <unicode hex="0056"/>
  <outline>
    <contour>
      <point x="384" y="209" type="line"/>
      <point x="591" y="572" type="line" smooth="yes"/>
      <point x="604" y="595"/>
      <point x="610" y="614"/>
      <point x="610" y="629" type="curve" smooth="yes"/>
      <point x="610" y="656"/>
      <point x="589" y="668"/>
      <point x="543" y="668" type="curve" smooth="yes"/>
      <point x="516" y="668" type="line"/>
      <point x="523" y="722" type="line"/>
      <point x="802" y="722" type="line"/>
      <point x="795" y="668" type="line"/>
      <point x="734" y="659"/>
      <point x="712" y="642"/>
      <point x="662" y="560" type="curve"/>
      <point x="324" y="-14" type="line"/>
      <point x="258" y="-14" type="line"/>
      <point x="138" y="593" type="line" smooth="yes"/>
      <point x="125" y="657"/>
      <point x="114" y="668"/>
      <point x="64" y="668" type="curve" smooth="yes"/>
      <point x="32" y="668" type="line"/>
      <point x="39" y="722" type="line"/>
      <point x="406" y="722" type="line"/>
      <point x="398" y="668" type="line"/>
      <point x="371" y="668" type="line" smooth="yes"/>
      <point x="332" y="668"/>
      <point x="324" y="667"/>
      <point x="314" y="660" type="curve" smooth="yes"/>
      <point x="308" y="655"/>
      <point x="304" y="648"/>
      <point x="304" y="641" type="curve" smooth="yes"/>
      <point x="304" y="638"/>
      <point x="306" y="627"/>
      <point x="309" y="611" type="curve" smooth="yes"/>
    </contour>
  </outline>
</glyph>
<glyph name="X" format="1">
  <advance width="741"/>
  <unicode hex="0058"/>
  <outline>
    <contour>
      <point x="453" y="404" type="line"/>
      <point x="585" y="109" type="line" smooth="yes"/>
      <point x="605" y="65"/>
      <point x="624" y="54"/>
      <point x="682" y="54" type="curve" smooth="yes"/>
      <point x="705" y="54" type="line"/>
      <point x="698" y="0" type="line"/>
      <point x="311" y="0" type="line"/>
      <point x="318" y="54" type="line"/>
      <point x="359" y="54" type="line" smooth="yes"/>
      <point x="397" y="54"/>
      <point x="409" y="59"/>
      <point x="409" y="76" type="curve" smooth="yes"/>
      <point x="409" y="84"/>
      <point x="408" y="88"/>
      <point x="399" y="109" type="curve" smooth="yes"/>
      <point x="326" y="279" type="line"/>
      <point x="191" y="147" type="line" smooth="yes"/>
      <point x="170" y="127"/>
      <point x="160" y="109"/>
      <point x="160" y="94" type="curve" smooth="yes"/>
      <point x="160" y="67"/>
      <point x="182" y="54"/>
      <point x="226" y="54" type="curve" smooth="yes"/>
      <point x="248" y="54" type="line"/>
      <point x="241" y="0" type="line"/>
      <point x="-72" y="0" type="line"/>
      <point x="-65" y="54" type="line"/>
      <point x="-15" y="53"/>
      <point x="24" y="73"/>
      <point x="83" y="129" type="curve"/>
      <point x="300" y="342" type="line"/>
      <point x="174" y="622" type="line" smooth="yes"/>
      <point x="156" y="661"/>
      <point x="145" y="668"/>
      <point x="100" y="668" type="curve" smooth="yes"/>
      <point x="63" y="668" type="line"/>
      <point x="71" y="722" type="line"/>
      <point x="445" y="722" type="line"/>
      <point x="438" y="668" type="line"/>
      <point x="405" y="668" type="line" smooth="yes"/>
      <point x="364" y="668"/>
      <point x="351" y="663"/>
      <point x="351" y="648" type="curve" smooth="yes"/>
      <point x="351" y="642"/>
      <point x="354" y="633"/>
      <point x="360" y="619" type="curve" smooth="yes"/>
      <point x="429" y="468" type="line"/>
      <point x="552" y="590" type="line" smooth="yes"/>
      <point x="568" y="605"/>
      <point x="576" y="621"/>
      <point x="576" y="636" type="curve" smooth="yes"/>
      <point x="576" y="658"/>
      <point x="556" y="668"/>
      <point x="516" y="668" type="curve" smooth="yes"/>
      <point x="500" y="668" type="line"/>
      <point x="507" y="722" type="line"/>
      <point x="811" y="722" type="line"/>
      <point x="804" y="668" type="line"/>
      <point x="732" y="663"/>
      <point x="710" y="651"/>
      <point x="633" y="577" type="curve" smooth="yes"/>
    </contour>
  </outline>
</glyph>
<glyph name="bracketleft" format="1">
  <advance width="407"/>
  <unicode hex="005B"/>
  <outline>
    <contour>
      <point x="432" y="722" type="line"/>
      <point x="420" y="678" type="line"/>
      <point x="302" y="678" type="line"/>
      <point x="103" y="-64" type="line"/>
      <point x="221" y="-64" type="line"/>
      <point x="210" y="-108" type="line"/>
      <point x="-31" y="-108" type="line"/>
      <point x="191" y="722" type="line"/>
    </contour>
  </outline>
</glyph>
<glyph name="backslash" format="1">
  <advance width="606"/>
  <unicode hex="005C"/>
  <outline>
    <contour>
      <point x="81" y="722" type="line"/>
      <point x="177" y="722" type="line"/>
      <point x="545" y="0" type="line"/>
      <point x="449" y="0" type="line"/>
    </contour>
  </outline>
</glyph>
<glyph name="bracketright" format="1">
  <advance width="407"/>
  <unicode hex="005D"/>
  <outline>
    <contour>
      <point x="-49" y="-108" type="line"/>
      <point x="-37" y="-64" type="line"/>
      <point x="81" y="-64" type="line"/>
      <point x="280" y="678" type="line"/>
      <point x="162" y="678" type="line"/>
      <point x="173" y="722" type="line"/>
      <point x="414" y="722" type="line"/>
      <point x="192" y="-108" type="line"/>
    </contour>
  </outline>
</glyph>
<glyph name="grave" format="1">
  <advance width="333"/>
  <unicode hex="0060"/>
  <outline>
    <contour>
      <point x="294" y="535" type="line"/>
      <point x="245" y="535" type="line"/>
      <point x="104" y="624" type="line" smooth="yes"/>
      <point x="84" y="636"/>
      <point x="74" y="652"/>
      <point x="74" y="670" type="curve" smooth="yes"/>
      <point x="74" y="698"/>
      <point x="96" y="719"/>
      <point x="127" y="719" type="curve" smooth="yes"/>
      <point x="154" y="719"/>
      <point x="168" y="710"/>
      <point x="192" y="677" type="curve" smooth="yes"/>
    </contour>
  </outline>
</glyph>
<glyph name="l" format="1">
  <advance width="389"/>
  <unicode hex="006C"/>
  <outline>
    <contour>
      <point x="370" y="736" type="line"/>
      <point x="188" y="122" type="line"/>
      <point x="183" y="106" type="line" smooth="yes"/>
      <point x="180" y="96"/>
      <point x="178" y="85"/>
      <point x="178" y="80" type="curve" smooth="yes"/>
      <point x="178" y="70"/>
      <point x="185" y="63"/>
      <point x="193" y="63" type="curve" smooth="yes"/>
      <point x="215" y="63"/>
      <point x="260" y="110"/>
      <point x="300" y="176" type="curve"/>
      <point x="339" y="149" type="line"/>
      <point x="318" y="111"/>
      <point x="288" y="74"/>
      <point x="253" y="41" type="curve" smooth="yes"/>
      <point x="212" y="2"/>
      <point x="174" y="-15"/>
      <point x="128" y="-15" type="curve" smooth="yes"/>
      <point x="67" y="-15"/>
      <point x="26" y="22"/>
      <point x="26" y="76" type="curve" smooth="yes"/>
      <point x="26" y="99"/>
      <point x="31" y="125"/>
      <point x="49" y="182" type="curve"/>
      <point x="166" y="578" type="line" smooth="yes"/>
      <point x="177" y="615"/>
      <point x="181" y="633"/>
      <point x="181" y="644" type="curve" smooth="yes"/>
      <point x="181" y="669"/>
      <point x="169" y="675"/>
      <point x="120" y="675" type="curve" smooth="yes"/>
      <point x="96" y="675" type="line"/>
      <point x="103" y="722" type="line"/>
    </contour>
  </outline>
</glyph>
<glyph name="n" format="1">
  <advance width="685"/>
  <unicode hex="006E"/>
  <outline>
    <contour>
      <point x="285" y="478" type="line"/>
      <point x="253" y="346" type="line"/>
      <point x="328" y="442"/>
      <point x="385" y="479"/>
      <point x="458" y="479" type="curve" smooth="yes"/>
      <point x="524" y="479"/>
      <point x="571" y="436"/>
      <point x="571" y="376" type="curve" smooth="yes"/>
      <point x="571" y="343"/>
      <point x="563" y="309"/>
      <point x="540" y="248" type="curve" smooth="yes"/>
      <point x="493" y="120" type="line" smooth="yes"/>
      <point x="483" y="90"/>
      <point x="483" y="90"/>
      <point x="483" y="82" type="curve" smooth="yes"/>
      <point x="483" y="74"/>
      <point x="490" y="66"/>
      <point x="497" y="66" type="curve" smooth="yes"/>
      <point x="515" y="66"/>
      <point x="541" y="92"/>
      <point x="594" y="166" type="curve"/>
      <point x="603" y="177" type="line"/>
      <point x="642" y="152" type="line"/>
      <point x="565" y="33"/>
      <point x="504" y="-15"/>
      <point x="431" y="-15" type="curve" smooth="yes"/>
      <point x="369" y="-15"/>
      <point x="329" y="20"/>
      <point x="329" y="76" type="curve" smooth="yes"/>
      <point x="329" y="102"/>
      <point x="333" y="117"/>
      <point x="349" y="163" type="curve" smooth="yes"/>
      <point x="411" y="332" type="line" smooth="yes"/>
      <point x="417" y="348"/>
      <point x="420" y="361"/>
      <point x="420" y="368" type="curve" smooth="yes"/>
      <point x="420" y="381"/>
      <point x="405" y="394"/>
      <point x="390" y="394" type="curve" smooth="yes"/>
      <point x="366" y="394"/>
      <point x="333" y="370"/>
      <point x="295" y="325" type="curve" smooth="yes"/>
      <point x="251" y="272"/>
      <point x="226" y="220"/>
      <point x="198" y="127" type="curve" smooth="yes"/>
      <point x="160" y="0" type="line"/>
      <point x="3" y="0" type="line"/>
      <point x="98" y="319" type="line" smooth="yes"/>
      <point x="109" y="357"/>
      <point x="113" y="375"/>
      <point x="113" y="386" type="curve" smooth="yes"/>
      <point x="113" y="411"/>
      <point x="101" y="417"/>
      <point x="52" y="417" type="curve" smooth="yes"/>
      <point x="28" y="417" type="line"/>
      <point x="35" y="464" type="line"/>
    </contour>
  </outline>
</glyph>
<glyph name="t" format="1">
  <advance width="407"/>
  <unicode hex="0074"/>
  <outline>
    <contour>
      <point x="300" y="183" type="curve"/>
      <point x="337" y="156" type="line"/>
      <point x="299" y="98"/>
      <point x="289" y="86"/>
      <point x="269" y="64" type="curve" smooth="yes"/>
      <point x="220" y="12"/>
      <point x="170" y="-14"/>
      <point x="119" y="-14" type="curve" smooth="yes"/>
      <point x="66" y="-14"/>
      <point x="24" y="23"/>
      <point x="24" y="69" type="curve" smooth="yes"/>
      <point x="24" y="88"/>
      <point x="29" y="116"/>
      <point x="38" y="146" type="curve" smooth="yes"/>
      <point x="41" y="155"/>
      <point x="45" y="168"/>
      <point x="49" y="183" type="curve" smooth="yes"/>
      <point x="114" y="403" type="line"/>
      <point x="27" y="403" type="line"/>
      <point x="45" y="464" type="line"/>
      <point x="132" y="464" type="line"/>
      <point x="188" y="650" type="line"/>
      <point x="345" y="650" type="line"/>
      <point x="290" y="464" type="line"/>
      <point x="404" y="464" type="line"/>
      <point x="386" y="403" type="line"/>
      <point x="272" y="403" type="line"/>
      <point x="202" y="167" type="line" smooth="yes"/>
      <point x="190" y="126"/>
      <point x="181" y="91"/>
      <point x="181" y="84" type="curve" smooth="yes"/>
      <point x="181" y="75"/>
      <point x="188" y="66"/>
      <point x="196" y="66" type="curve" smooth="yes"/>
      <point x="216" y="66"/>
      <point x="262" y="117"/>
    </contour>
  </outline>
</glyph>
<glyph name="v" format="1">
  <advance width="556"/>
  <unicode hex="0076"/>
  <outline>
    <contour>
      <point x="306" y="478" type="line"/>
      <point x="233" y="230" type="line"/>
      <point x="210" y="139"/>
      <point x="209" y="134"/>
      <point x="209" y="113" type="curve" smooth="yes"/>
      <point x="209" y="84"/>
      <point x="236" y="56"/>
      <point x="265" y="56" type="curve" smooth="yes"/>
      <point x="298" y="56"/>
      <point x="333" y="82"/>
      <point x="365" y="131" type="curve" smooth="yes"/>
      <point x="404" y="190"/>
      <point x="426" y="250"/>
      <point x="426" y="294" type="curve" smooth="yes"/>
      <point x="426" y="316"/>
      <point x="423" y="319"/>
      <point x="382" y="357" type="curve" smooth="yes"/>
      <point x="361" y="377"/>
      <point x="353" y="392"/>
      <point x="353" y="414" type="curve" smooth="yes"/>
      <point x="353" y="453"/>
      <point x="380" y="479"/>
      <point x="422" y="479" type="curve" smooth="yes"/>
      <point x="469" y="479"/>
      <point x="500" y="443"/>
      <point x="500" y="390" type="curve" smooth="yes"/>
      <point x="500" y="317"/>
      <point x="471" y="216"/>
      <point x="428" y="139" type="curve" smooth="yes"/>
      <point x="372" y="39"/>
      <point x="297" y="-15"/>
      <point x="213" y="-15" type="curve" smooth="yes"/>
      <point x="172" y="-15"/>
      <point x="131" y="0"/>
      <point x="101" y="26" type="curve" smooth="yes"/>
      <point x="73" y="51"/>
      <point x="58" y="88"/>
      <point x="58" y="132" type="curve" smooth="yes"/>
      <point x="58" y="159"/>
      <point x="62" y="185"/>
      <point x="70" y="211" type="curve" smooth="yes"/>
      <point x="102" y="319" type="line" smooth="yes"/>
      <point x="116" y="366"/>
      <point x="118" y="376"/>
      <point x="118" y="386" type="curve" smooth="yes"/>
      <point x="118" y="411"/>
      <point x="106" y="417"/>
      <point x="56" y="417" type="curve" smooth="yes"/>
      <point x="32" y="417" type="line"/>
      <point x="39" y="464" type="line"/>
    </contour>
  </outline>
</glyph>
<glyph name="braceleft" format="1">
  <advance width="407"/>
  <unicode hex="007B"/>
  <outline>
    <contour>
      <point x="52" y="285" type="curve"/>
      <point x="64" y="329" type="line"/>
      <point x="129" y="345"/>
      <point x="152" y="372"/>
      <point x="172" y="462" type="curve"/>
      <point x="202" y="572" type="line" smooth="yes"/>
      <point x="232" y="683"/>
      <point x="276" y="722"/>
      <point x="371" y="722" type="curve" smooth="yes"/>
      <point x="402" y="722" type="line"/>
      <point x="390" y="679" type="line"/>
      <point x="341" y="674"/>
      <point x="319" y="645"/>
      <point x="294" y="553" type="curve" smooth="yes"/>
      <point x="261" y="432" type="line"/>
      <point x="238" y="355"/>
      <point x="206" y="322"/>
      <point x="140" y="307" type="curve"/>
      <point x="184" y="294"/>
      <point x="205" y="273"/>
      <point x="205" y="240" type="curve" smooth="yes"/>
      <point x="205" y="229"/>
      <point x="201" y="206"/>
      <point x="192" y="175" type="curve" smooth="yes"/>
      <point x="164" y="71" type="line" smooth="yes"/>
      <point x="150" y="19"/>
      <point x="147" y="2"/>
      <point x="147" y="-16" type="curve" smooth="yes"/>
      <point x="147" y="-51"/>
      <point x="158" y="-63"/>
      <point x="194" y="-65" type="curve"/>
      <point x="182" y="-108" type="line"/>
      <point x="140" y="-108" type="line" smooth="yes"/>
      <point x="85" y="-108"/>
      <point x="52" y="-76"/>
      <point x="52" y="-21" type="curve" smooth="yes"/>
      <point x="52" y="4"/>
      <point x="56" y="29"/>
      <point x="69" y="74" type="curve"/>
      <point x="90" y="154" type="line" smooth="yes"/>
      <point x="102" y="198"/>
      <point x="103" y="205"/>
      <point x="103" y="225" type="curve" smooth="yes"/>
      <point x="103" y="258"/>
      <point x="89" y="275"/>
    </contour>
  </outline>
</glyph>
<glyph name="braceright" format="1">
  <advance width="407"/>
  <unicode hex="007D"/>
  <outline>
    <contour>
      <point x="322" y="329" type="curve"/>
      <point x="310" y="285" type="line"/>
      <point x="244" y="271"/>
      <point x="220" y="242"/>
      <point x="200" y="152" type="curve"/>
      <point x="170" y="42" type="line" smooth="yes"/>
      <point x="140" y="-69"/>
      <point x="96" y="-108"/>
      <point x="1" y="-108" type="curve" smooth="yes"/>
      <point x="-30" y="-108" type="line"/>
      <point x="-18" y="-65" type="line"/>
      <point x="31" y="-60"/>
      <point x="53" y="-31"/>
      <point x="78" y="61" type="curve" smooth="yes"/>
      <point x="111" y="182" type="line"/>
      <point x="134" y="259"/>
      <point x="166" y="292"/>
      <point x="232" y="307" type="curve"/>
      <point x="188" y="320"/>
      <point x="167" y="341"/>
      <point x="167" y="374" type="curve" smooth="yes"/>
      <point x="167" y="386"/>
      <point x="171" y="406"/>
      <point x="180" y="439" type="curve" smooth="yes"/>
      <point x="208" y="543" type="line" smooth="yes"/>
      <point x="222" y="595"/>
      <point x="225" y="612"/>
      <point x="225" y="630" type="curve" smooth="yes"/>
      <point x="225" y="665"/>
      <point x="214" y="677"/>
      <point x="178" y="679" type="curve"/>
      <point x="190" y="722" type="line"/>
      <point x="232" y="722" type="line" smooth="yes"/>
      <point x="287" y="722"/>
      <point x="320" y="690"/>
      <point x="320" y="635" type="curve" smooth="yes"/>
      <point x="320" y="610"/>
      <point x="316" y="586"/>
      <point x="304" y="540" type="curve" smooth="yes"/>
      <point x="282" y="460" type="line" smooth="yes"/>
      <point x="270" y="416"/>
      <point x="269" y="410"/>
      <point x="269" y="389" type="curve" smooth="yes"/>
      <point x="269" y="355"/>
      <point x="284" y="338"/>
    </contour>
  </outline>
</glyph>
<glyph name="exclamdown" format="1">
  <advance width="333"/>
  <unicode hex="00A1"/>
  <outline>
    <contour>
      <point x="145" y="331" type="curve"/>
      <point x="197" y="318" type="line"/>
      <point x="167" y="183"/>
      <point x="150" y="66"/>
      <point x="146" y="-33" type="curve" smooth="yes"/>
      <point x="142" y="-123"/>
      <point x="139" y="-143"/>
      <point x="122" y="-168" type="curve" smooth="yes"/>
      <point x="107" y="-190"/>
      <point x="84" y="-203"/>
      <point x="59" y="-203" type="curve" smooth="yes"/>
      <point x="1" y="-203"/>
      <point x="-39" y="-170"/>
      <point x="-39" y="-123" type="curve" smooth="yes"/>
      <point x="-39" y="-91"/>
      <point x="-39" y="-91"/>
      <point x="16" y="20" type="curve" smooth="yes"/>
      <point x="76" y="140"/>
      <point x="100" y="199"/>
    </contour>
    <contour>
      <point x="203" y="549" type="curve" smooth="yes"/>
      <point x="250" y="549"/>
      <point x="289" y="509"/>
      <point x="289" y="462" type="curve" smooth="yes"/>
      <point x="289" y="414"/>
      <point x="250" y="375"/>
      <point x="202" y="375" type="curve" smooth="yes"/>
      <point x="154" y="375"/>
      <point x="115" y="414"/>
      <point x="115" y="462" type="curve" smooth="yes"/>
      <point x="115" y="510"/>
      <point x="154" y="549"/>
    </contour>
  </outline>
</glyph>
<glyph name="cent" format="1">
  <advance width="574"/>
  <unicode hex="00A2"/>
  <outline>
    <contour>
      <point x="243" y="-15" type="curve"/>
      <point x="188" y="-137" type="line"/>
      <point x="134" y="-137" type="line"/>
      <point x="190" y="-12" type="line"/>
      <point x="103" y="-5"/>
      <point x="30" y="80"/>
      <point x="30" y="174" type="curve" smooth="yes"/>
      <point x="30" y="340"/>
      <point x="175" y="484"/>
      <point x="343" y="484" type="curve" smooth="yes"/>
      <point x="365" y="484"/>
      <point x="386" y="481"/>
      <point x="408" y="476" type="curve"/>
      <point x="457" y="586" type="line"/>
      <point x="511" y="586" type="line"/>
      <point x="454" y="457" type="line"/>
      <point x="492" y="434"/>
      <point x="514" y="395"/>
      <point x="514" y="351" type="curve" smooth="yes"/>
      <point x="514" y="297"/>
      <point x="478" y="259"/>
      <point x="427" y="259" type="curve" smooth="yes"/>
      <point x="406" y="259"/>
      <point x="389" y="265"/>
      <point x="374" y="278" type="curve"/>
      <point x="271" y="48" type="line"/>
      <point x="278" y="48" type="line" smooth="yes"/>
      <point x="308" y="48"/>
      <point x="341" y="62"/>
      <point x="373" y="88" type="curve" smooth="yes"/>
      <point x="388" y="100"/>
      <point x="400" y="112"/>
      <point x="434" y="147" type="curve"/>
      <point x="470" y="116" type="line"/>
      <point x="464" y="109" type="line"/>
      <point x="384" y="18"/>
      <point x="335" y="-10"/>
    </contour>
    <contour>
      <point x="225" y="66" type="curve"/>
      <point x="357" y="360" type="line" smooth="yes"/>
      <point x="367" y="381"/>
      <point x="374" y="389"/>
      <point x="397" y="403" type="curve" smooth="yes"/>
      <point x="400" y="405"/>
      <point x="403" y="409"/>
      <point x="403" y="411" type="curve" smooth="yes"/>
      <point x="403" y="424"/>
      <point x="381" y="437"/>
      <point x="359" y="437" type="curve" smooth="yes"/>
      <point x="315" y="437"/>
      <point x="275" y="404"/>
      <point x="244" y="341" type="curve" smooth="yes"/>
      <point x="216" y="285"/>
      <point x="194" y="198"/>
      <point x="194" y="145" type="curve" smooth="yes"/>
      <point x="194" y="112"/>
      <point x="205" y="86"/>
    </contour>
  </outline>
</glyph>
<glyph name="sterling" format="1">
  <advance width="574"/>
  <unicode hex="00A3"/>
  <outline>
    <contour>
      <point x="435" y="376" type="line"/>
      <point x="426" y="319" type="line"/>
      <point x="298" y="319" type="line"/>
      <point x="295" y="253"/>
      <point x="282" y="205"/>
      <point x="249" y="136" type="curve"/>
      <point x="283" y="123"/>
      <point x="329" y="115"/>
      <point x="369" y="115" type="curve" smooth="yes"/>
      <point x="428" y="115"/>
      <point x="473" y="145"/>
      <point x="499" y="200" type="curve"/>
      <point x="542" y="180" type="line"/>
      <point x="530" y="139"/>
      <point x="517" y="109"/>
      <point x="497" y="76" type="curve" smooth="yes"/>
      <point x="458" y="12"/>
      <point x="414" y="-15"/>
      <point x="351" y="-15" type="curve" smooth="yes"/>
      <point x="295" y="-15"/>
      <point x="244" y="6"/>
      <point x="197" y="49" type="curve"/>
      <point x="160" y="4"/>
      <point x="125" y="-15"/>
      <point x="77" y="-15" type="curve" smooth="yes"/>
      <point x="20" y="-15"/>
      <point x="-18" y="20"/>
      <point x="-18" y="72" type="curve" smooth="yes"/>
      <point x="-18" y="128"/>
      <point x="27" y="168"/>
      <point x="89" y="168" type="curve" smooth="yes"/>
      <point x="110" y="168"/>
      <point x="132" y="164"/>
      <point x="165" y="156" type="curve"/>
      <point x="167" y="174"/>
      <point x="168" y="188"/>
      <point x="168" y="197" type="curve" smooth="yes"/>
      <point x="168" y="232"/>
      <point x="160" y="280"/>
      <point x="148" y="319" type="curve"/>
      <point x="18" y="319" type="line"/>
      <point x="26" y="376" type="line"/>
      <point x="140" y="376" type="line"/>
      <point x="139" y="421" type="line"/>
      <point x="139" y="589"/>
      <point x="243" y="705"/>
      <point x="396" y="705" type="curve" smooth="yes"/>
      <point x="497" y="705"/>
      <point x="566" y="648"/>
      <point x="566" y="564" type="curve" smooth="yes"/>
      <point x="566" y="509"/>
      <point x="530" y="469"/>
      <point x="479" y="469" type="curve" smooth="yes"/>
      <point x="435" y="469"/>
      <point x="403" y="498"/>
      <point x="403" y="538" type="curve" smooth="yes"/>
      <point x="403" y="567"/>
      <point x="414" y="584"/>
      <point x="450" y="609" type="curve" smooth="yes"/>
      <point x="458" y="615"/>
      <point x="461" y="620"/>
      <point x="461" y="627" type="curve" smooth="yes"/>
      <point x="461" y="644"/>
      <point x="442" y="655"/>
      <point x="415" y="655" type="curve" smooth="yes"/>
      <point x="341" y="655"/>
      <point x="296" y="574"/>
      <point x="296" y="444" type="curve" smooth="yes"/>
      <point x="296" y="432"/>
      <point x="296" y="420"/>
      <point x="298" y="376" type="curve"/>
    </contour>
    <contour>
      <point x="146" y="84" type="curve"/>
      <point x="140" y="89" type="line"/>
      <point x="116" y="107"/>
      <point x="90" y="118"/>
      <point x="69" y="118" type="curve" smooth="yes"/>
      <point x="46" y="118"/>
      <point x="29" y="99"/>
      <point x="29" y="74" type="curve" smooth="yes"/>
      <point x="29" y="46"/>
      <point x="47" y="28"/>
      <point x="75" y="28" type="curve" smooth="yes"/>
      <point x="108" y="28"/>
      <point x="126" y="42"/>
    </contour>
  </outline>
</glyph>
<glyph name="brokenbar" format="1">
  <advance width="606"/>
  <unicode hex="00A6"/>
  <outline>
    <contour>
      <point x="343" y="722" type="line"/>
      <point x="343" y="400" type="line"/>
      <point x="262" y="400" type="line"/>
      <point x="262" y="722" type="line"/>
    </contour>
    <contour>
      <point x="343" y="322" type="line"/>
      <point x="343" y="0" type="line"/>
      <point x="262" y="0" type="line"/>
      <point x="262" y="322" type="line"/>
    </contour>
  </outline>
</glyph>
<glyph name="copyright" format="1">
  <advance width="747"/>
  <unicode hex="00A9"/>
  <outline>
    <contour>
      <point x="524" y="526" type="line"/>
      <point x="529" y="374" type="line"/>
      <point x="495" y="371" type="line"/>
      <point x="472" y="455"/>
      <point x="437" y="493"/>
      <point x="383" y="493" type="curve" smooth="yes"/>
      <point x="323" y="493"/>
      <point x="292" y="441"/>
      <point x="292" y="338" type="curve" smooth="yes"/>
      <point x="292" y="230"/>
      <point x="323" y="179"/>
      <point x="389" y="179" type="curve" smooth="yes"/>
      <point x="446" y="179"/>
      <point x="484" y="218"/>
      <point x="498" y="290" type="curve"/>
      <point x="537" y="281" type="line"/>
      <point x="518" y="185"/>
      <point x="464" y="140"/>
      <point x="372" y="140" type="curve" smooth="yes"/>
      <point x="260" y="140"/>
      <point x="183" y="217"/>
      <point x="183" y="329" type="curve" smooth="yes"/>
      <point x="183" y="445"/>
      <point x="264" y="528"/>
      <point x="378" y="528" type="curve" smooth="yes"/>
      <point x="414" y="528"/>
      <point x="439" y="521"/>
      <point x="470" y="502" type="curve"/>
      <point x="497" y="526" type="line"/>
    </contour>
    <contour>
      <point x="373" y="685" type="curve" smooth="yes"/>
      <point x="566" y="685"/>
      <point x="723" y="528"/>
      <point x="723" y="336" type="curve" smooth="yes"/>
      <point x="723" y="140"/>
      <point x="567" y="-15"/>
      <point x="369" y="-15" type="curve" smooth="yes"/>
      <point x="180" y="-15"/>
      <point x="23" y="144"/>
      <point x="23" y="335" type="curve" smooth="yes"/>
      <point x="23" y="528"/>
      <point x="180" y="685"/>
    </contour>
    <contour>
      <point x="374" y="633" type="curve" smooth="yes"/>
      <point x="213" y="633"/>
      <point x="83" y="499"/>
      <point x="83" y="335" type="curve" smooth="yes"/>
      <point x="83" y="173"/>
      <point x="214" y="37"/>
      <point x="370" y="37" type="curve" smooth="yes"/>
      <point x="534" y="37"/>
      <point x="664" y="169"/>
      <point x="664" y="336" type="curve" smooth="yes"/>
      <point x="664" y="499"/>
      <point x="533" y="633"/>
    </contour>
  </outline>
</glyph>
<glyph name="macron" format="1">
  <advance width="333"/>
  <unicode hex="00AF"/>
  <outline>
    <contour>
      <point x="53" y="642" type="line"/>
      <point x="387" y="642" type="line"/>
      <point x="366" y="566" type="line"/>
      <point x="32" y="566" type="line"/>
    </contour>
  </outline>
</glyph>
<glyph name="plusminus" format="1">
  <advance width="606"/>
  <unicode hex="00B1"/>
  <outline>
    <contour>
      <point x="236" y="300" type="line"/>
      <point x="41" y="300" type="line"/>
      <point x="41" y="415" type="line"/>
      <point x="236" y="415" type="line"/>
      <point x="236" y="610" type="line"/>
      <point x="351" y="610" type="line"/>
      <point x="351" y="415" type="line"/>
      <point x="545" y="415" type="line"/>
      <point x="545" y="300" type="line"/>
      <point x="351" y="300" type="line"/>
      <point x="351" y="158" type="line"/>
      <point x="236" y="158" type="line"/>
    </contour>
    <contour>
      <point x="41" y="0" type="line"/>
      <point x="41" y="115" type="line"/>
      <point x="545" y="115" type="line"/>
      <point x="545" y="0" type="line"/>
    </contour>
  </outline>
</glyph>
<glyph name="twosuperior" format="1">
  <advance width="344"/>
  <unicode hex="00B2"/>
  <outline>
    <contour>
      <point x="306" y="436" type="line"/>
      <point x="340" y="425" type="line"/>
      <point x="285" y="282" type="line"/>
      <point x="-16" y="282" type="line"/>
      <point x="-16" y="287" type="line" smooth="yes"/>
      <point x="-16" y="315"/>
      <point x="9" y="342"/>
      <point x="98" y="414" type="curve" smooth="yes"/>
      <point x="159" y="463"/>
      <point x="192" y="493"/>
      <point x="211" y="514" type="curve" smooth="yes"/>
      <point x="234" y="541"/>
      <point x="247" y="572"/>
      <point x="247" y="599" type="curve" smooth="yes"/>
      <point x="247" y="636"/>
      <point x="219" y="662"/>
      <point x="177" y="662" type="curve" smooth="yes"/>
      <point x="146" y="662"/>
      <point x="114" y="644"/>
      <point x="114" y="626" type="curve" smooth="yes"/>
      <point x="114" y="618"/>
      <point x="118" y="615"/>
      <point x="138" y="606" type="curve"/>
      <point x="163" y="597"/>
      <point x="174" y="583"/>
      <point x="174" y="561" type="curve" smooth="yes"/>
      <point x="174" y="530"/>
      <point x="151" y="510"/>
      <point x="118" y="510" type="curve" smooth="yes"/>
      <point x="79" y="510"/>
      <point x="51" y="539"/>
      <point x="51" y="579" type="curve" smooth="yes"/>
      <point x="51" y="652"/>
      <point x="121" y="705"/>
      <point x="215" y="705" type="curve" smooth="yes"/>
      <point x="302" y="705"/>
      <point x="360" y="660"/>
      <point x="360" y="594" type="curve" smooth="yes"/>
      <point x="360" y="561"/>
      <point x="342" y="526"/>
      <point x="311" y="497" type="curve"/>
      <point x="287" y="476"/>
      <point x="269" y="464"/>
      <point x="217" y="436" type="curve" smooth="yes"/>
      <point x="168" y="409"/>
      <point x="154" y="401"/>
      <point x="102" y="368" type="curve"/>
      <point x="221" y="368" type="line" smooth="yes"/>
      <point x="263" y="368"/>
      <point x="274" y="375"/>
      <point x="298" y="422" type="curve"/>
    </contour>
  </outline>
</glyph>
<glyph name="threesuperior" format="1">
  <advance width="344"/>
  <unicode hex="00B3"/>
  <outline>
    <contour>
      <point x="242" y="500" type="line"/>
      <point x="241" y="499" type="line" smooth="yes"/>
      <point x="240" y="499"/>
      <point x="239" y="499"/>
      <point x="237" y="498" type="curve"/>
      <point x="258" y="493"/>
      <point x="269" y="489"/>
      <point x="280" y="482" type="curve" smooth="yes"/>
      <point x="304" y="468"/>
      <point x="320" y="438"/>
      <point x="320" y="409" type="curve" smooth="yes"/>
      <point x="320" y="332"/>
      <point x="243" y="274"/>
      <point x="139" y="274" type="curve" smooth="yes"/>
      <point x="52" y="274"/>
      <point x="-4" y="313"/>
      <point x="-4" y="373" type="curve" smooth="yes"/>
      <point x="-4" y="410"/>
      <point x="22" y="436"/>
      <point x="59" y="436" type="curve" smooth="yes"/>
      <point x="91" y="436"/>
      <point x="114" y="415"/>
      <point x="114" y="387" type="curve" smooth="yes"/>
      <point x="114" y="364"/>
      <point x="101" y="350"/>
      <point x="72" y="341" type="curve" smooth="yes"/>
      <point x="69" y="340"/>
      <point x="68" y="339"/>
      <point x="68" y="336" type="curve" smooth="yes"/>
      <point x="68" y="324"/>
      <point x="96" y="310"/>
      <point x="121" y="310" type="curve" smooth="yes"/>
      <point x="173" y="310"/>
      <point x="207" y="357"/>
      <point x="207" y="428" type="curve" smooth="yes"/>
      <point x="207" y="463"/>
      <point x="192" y="483"/>
      <point x="166" y="483" type="curve" smooth="yes"/>
      <point x="160" y="483"/>
      <point x="160" y="483"/>
      <point x="146" y="479" type="curve" smooth="yes"/>
      <point x="141" y="478"/>
      <point x="135" y="477"/>
      <point x="131" y="477" type="curve" smooth="yes"/>
      <point x="115" y="477"/>
      <point x="105" y="485"/>
      <point x="105" y="499" type="curve" smooth="yes"/>
      <point x="105" y="513"/>
      <point x="115" y="523"/>
      <point x="130" y="523" type="curve" smooth="yes"/>
      <point x="136" y="523"/>
      <point x="140" y="522"/>
      <point x="148" y="520" type="curve" smooth="yes"/>
      <point x="157" y="518"/>
      <point x="161" y="517"/>
      <point x="168" y="517" type="curve" smooth="yes"/>
      <point x="206" y="517"/>
      <point x="240" y="561"/>
      <point x="240" y="610" type="curve" smooth="yes"/>
      <point x="240" y="646"/>
      <point x="220" y="667"/>
      <point x="186" y="667" type="curve" smooth="yes"/>
      <point x="162" y="667"/>
      <point x="138" y="657"/>
      <point x="138" y="647" type="curve" smooth="yes"/>
      <point x="138" y="646"/>
      <point x="139" y="644"/>
      <point x="142" y="643" type="curve" smooth="yes"/>
      <point x="162" y="629"/>
      <point x="171" y="616"/>
      <point x="171" y="599" type="curve" smooth="yes"/>
      <point x="171" y="574"/>
      <point x="147" y="554"/>
      <point x="118" y="554" type="curve" smooth="yes"/>
      <point x="85" y="554"/>
      <point x="61" y="577"/>
      <point x="61" y="609" type="curve" smooth="yes"/>
      <point x="61" y="663"/>
      <point x="125" y="705"/>
      <point x="206" y="705" type="curve" smooth="yes"/>
      <point x="290" y="705"/>
      <point x="348" y="664"/>
      <point x="348" y="606" type="curve" smooth="yes"/>
      <point x="348" y="557"/>
      <point x="307" y="515"/>
      <point x="246" y="501" type="curve"/>
    </contour>
  </outline>
</glyph>
<glyph name="paragraph" format="1">
  <advance width="650"/>
  <unicode hex="00B6"/>
  <outline>
    <contour>
      <point x="252" y="325" type="line"/>
      <point x="243" y="325" type="line" smooth="yes"/>
      <point x="140" y="325"/>
      <point x="77" y="378"/>
      <point x="77" y="465" type="curve" smooth="yes"/>
      <point x="77" y="533"/>
      <point x="117" y="616"/>
      <point x="171" y="662" type="curve" smooth="yes"/>
      <point x="221" y="704"/>
      <point x="282" y="722"/>
      <point x="372" y="722" type="curve" smooth="yes"/>
      <point x="661" y="722" type="line"/>
      <point x="646" y="668" type="line"/>
      <point x="643" y="668" type="line" smooth="yes"/>
      <point x="622" y="668"/>
      <point x="595" y="661"/>
      <point x="587" y="654" type="curve" smooth="yes"/>
      <point x="578" y="646"/>
      <point x="578" y="646"/>
      <point x="561" y="581" type="curve" smooth="yes"/>
      <point x="404" y="-3" type="line" smooth="yes"/>
      <point x="399" y="-21"/>
      <point x="394" y="-42"/>
      <point x="394" y="-42" type="curve" smooth="yes"/>
      <point x="391" y="-52"/>
      <point x="389" y="-61"/>
      <point x="389" y="-68" type="curve" smooth="yes"/>
      <point x="389" y="-82"/>
      <point x="405" y="-90"/>
      <point x="440" y="-90" type="curve" smooth="yes"/>
      <point x="446" y="-90" type="line"/>
      <point x="432" y="-144" type="line"/>
      <point x="67" y="-144" type="line"/>
      <point x="82" y="-90" type="line"/>
      <point x="88" y="-90" type="line" smooth="yes"/>
      <point x="115" y="-90"/>
      <point x="137" y="-81"/>
      <point x="145" y="-68" type="curve" smooth="yes"/>
      <point x="149" y="-60"/>
      <point x="149" y="-60"/>
      <point x="164" y="-3" type="curve" smooth="yes"/>
    </contour>
    <contour>
      <point x="483" y="668" type="line"/>
      <point x="445" y="668" type="line"/>
      <point x="242" y="-89" type="line"/>
      <point x="280" y="-89" type="line"/>
    </contour>
  </outline>
</glyph>
<glyph name="ordmasculine" format="1">
  <advance width="356"/>
  <unicode hex="00BA"/>
  <outline>
    <contour>
      <point x="239" y="737" type="curve" smooth="yes"/>
      <point x="327" y="737"/>
      <point x="383" y="692"/>
      <point x="383" y="622" type="curve" smooth="yes"/>
      <point x="383" y="520"/>
      <point x="291" y="442"/>
      <point x="170" y="442" type="curve" smooth="yes"/>
      <point x="83" y="442"/>
      <point x="29" y="489"/>
      <point x="29" y="563" type="curve" smooth="yes"/>
      <point x="29" y="657"/>
      <point x="125" y="737"/>
    </contour>
    <contour>
      <point x="236" y="709" type="curve" smooth="yes"/>
      <point x="208" y="709"/>
      <point x="183" y="686"/>
      <point x="163" y="643" type="curve" smooth="yes"/>
      <point x="146" y="606"/>
      <point x="133" y="552"/>
      <point x="133" y="516" type="curve" smooth="yes"/>
      <point x="133" y="485"/>
      <point x="148" y="468"/>
      <point x="175" y="468" type="curve" smooth="yes"/>
      <point x="205" y="468"/>
      <point x="228" y="489"/>
      <point x="247" y="531" type="curve" smooth="yes"/>
      <point x="266" y="574"/>
      <point x="280" y="630"/>
      <point x="280" y="663" type="curve" smooth="yes"/>
      <point x="280" y="691"/>
      <point x="263" y="709"/>
    </contour>
    <contour>
      <point x="29" y="293" type="line"/>
      <point x="45" y="351" type="line"/>
      <point x="349" y="351" type="line"/>
      <point x="333" y="293" type="line"/>
    </contour>
  </outline>
</glyph>
<glyph name="Atilde" format="1">
  <advance width="741"/>
  <unicode hex="00C3"/>
  <outline>
    <contour>
      <point x="481" y="736" type="line"/>
      <point x="612" y="114" type="line" smooth="yes"/>
      <point x="622" y="67"/>
      <point x="641" y="54"/>
      <point x="702" y="54" type="curve" smooth="yes"/>
      <point x="716" y="54" type="line"/>
      <point x="709" y="0" type="line"/>
      <point x="335" y="0" type="line"/>
      <point x="342" y="54" type="line"/>
      <point x="358" y="54" type="line" smooth="yes"/>
      <point x="399" y="54"/>
      <point x="410" y="55"/>
      <point x="424" y="62" type="curve" smooth="yes"/>
      <point x="434" y="66"/>
      <point x="441" y="76"/>
      <point x="441" y="85" type="curve" smooth="yes"/>
      <point x="441" y="92"/>
      <point x="440" y="103"/>
      <point x="437" y="117" type="curve" smooth="yes"/>
      <point x="417" y="220" type="line"/>
      <point x="185" y="220" type="line"/>
      <point x="139" y="139" type="line" smooth="yes"/>
      <point x="130" y="124"/>
      <point x="125" y="108"/>
      <point x="125" y="96" type="curve" smooth="yes"/>
      <point x="125" y="67"/>
      <point x="150" y="54"/>
      <point x="206" y="54" type="curve" smooth="yes"/>
      <point x="219" y="54" type="line"/>
      <point x="211" y="0" type="line"/>
      <point x="-75" y="0" type="line"/>
      <point x="-68" y="54" type="line"/>
      <point x="-62" y="54" type="line" smooth="yes"/>
      <point x="-18" y="54"/>
      <point x="33" y="93"/>
      <point x="71" y="157" type="curve" smooth="yes"/>
      <point x="419" y="736" type="line"/>
    </contour>
    <contour>
      <point x="404" y="274" type="line"/>
      <point x="358" y="515" type="line"/>
      <point x="217" y="274" type="line"/>
    </contour>
    <contour>
      <point x="591" y="922" type="curve"/>
      <point x="638" y="922" type="line"/>
      <point x="635" y="855"/>
      <point x="577" y="796"/>
      <point x="514" y="796" type="curve" smooth="yes"/>
      <point x="493" y="796"/>
      <point x="468" y="802"/>
      <point x="429" y="817" type="curve" smooth="yes"/>
      <point x="384" y="835"/>
      <point x="372" y="838"/>
      <point x="357" y="838" type="curve" smooth="yes"/>
      <point x="335" y="838"/>
      <point x="320" y="823"/>
      <point x="315" y="796" type="curve"/>
      <point x="268" y="796" type="line"/>
      <point x="273" y="869"/>
      <point x="326" y="922"/>
      <point x="392" y="922" type="curve" smooth="yes"/>
      <point x="412" y="922"/>
      <point x="438" y="916"/>
      <point x="471" y="903" type="curve" smooth="yes"/>
      <point x="519" y="884"/>
      <point x="526" y="882"/>
      <point x="541" y="882" type="curve" smooth="yes"/>
      <point x="566" y="882"/>
      <point x="583" y="896"/>
    </contour>
  </outline>
</glyph>
<glyph name="Aring" format="1">
  <advance width="741"/>
  <unicode hex="00C5"/>
  <outline>
    <contour>
      <point x="481" y="736" type="line"/>
      <point x="612" y="114" type="line" smooth="yes"/>
      <point x="622" y="67"/>
      <point x="641" y="54"/>
      <point x="702" y="54" type="curve" smooth="yes"/>
      <point x="716" y="54" type="line"/>
      <point x="709" y="0" type="line"/>
      <point x="335" y="0" type="line"/>
      <point x="342" y="54" type="line"/>
      <point x="358" y="54" type="line" smooth="yes"/>
      <point x="399" y="54"/>
      <point x="410" y="55"/>
      <point x="424" y="62" type="curve" smooth="yes"/>
      <point x="434" y="66"/>
      <point x="441" y="76"/>
      <point x="441" y="85" type="curve" smooth="yes"/>
      <point x="441" y="92"/>
      <point x="440" y="103"/>
      <point x="437" y="117" type="curve" smooth="yes"/>
      <point x="417" y="220" type="line"/>
      <point x="185" y="220" type="line"/>
      <point x="139" y="139" type="line" smooth="yes"/>
      <point x="130" y="124"/>
      <point x="125" y="108"/>
      <point x="125" y="96" type="curve" smooth="yes"/>
      <point x="125" y="67"/>
      <point x="150" y="54"/>
      <point x="206" y="54" type="curve" smooth="yes"/>
      <point x="219" y="54" type="line"/>
      <point x="211" y="0" type="line"/>
      <point x="-75" y="0" type="line"/>
      <point x="-68" y="54" type="line"/>
      <point x="-62" y="54" type="line" smooth="yes"/>
      <point x="-18" y="54"/>
      <point x="33" y="93"/>
      <point x="71" y="157" type="curve" smooth="yes"/>
      <point x="419" y="736" type="line"/>
    </contour>
    <contour>
      <point x="404" y="274" type="line"/>
      <point x="358" y="515" type="line"/>
      <point x="217" y="274" type="line"/>
    </contour>
    <contour>
      <point x="466" y="998" type="curve" smooth="yes"/>
      <point x="525" y="998"/>
      <point x="573" y="950"/>
      <point x="573" y="891" type="curve" smooth="yes"/>
      <point x="573" y="831"/>
      <point x="525" y="783"/>
      <point x="464" y="783" type="curve" smooth="yes"/>
      <point x="407" y="783"/>
      <point x="358" y="832"/>
      <point x="358" y="891" type="curve" smooth="yes"/>
      <point x="358" y="949"/>
      <point x="407" y="998"/>
    </contour>
    <contour>
      <point x="466" y="944" type="curve" smooth="yes"/>
      <point x="436" y="944"/>
      <point x="412" y="920"/>
      <point x="412" y="890" type="curve" smooth="yes"/>
      <point x="412" y="862"/>
      <point x="436" y="837"/>
      <point x="465" y="837" type="curve" smooth="yes"/>
      <point x="495" y="837"/>
      <point x="519" y="861"/>
      <point x="519" y="891" type="curve" smooth="yes"/>
      <point x="519" y="920"/>
      <point x="495" y="944"/>
    </contour>
  </outline>
</glyph>
<glyph name="Ccedilla" format="1">
  <advance width="759"/>
  <unicode hex="00C7"/>
  <outline>
    <contour>
      <point x="361" y="-15" type="curve"/>
      <point x="327" y="-62" type="line"/>
      <point x="340" y="-60"/>
      <point x="352" y="-59"/>
      <point x="360" y="-59" type="curve" smooth="yes"/>
      <point x="409" y="-59"/>
      <point x="446" y="-91"/>
      <point x="446" y="-134" type="curve" smooth="yes"/>
      <point x="446" y="-186"/>
      <point x="391" y="-222"/>
      <point x="311" y="-222" type="curve" smooth="yes"/>
      <point x="268" y="-222"/>
      <point x="229" y="-212"/>
      <point x="202" y="-193" type="curve"/>
      <point x="224" y="-158" type="line"/>
      <point x="256" y="-172"/>
      <point x="274" y="-177"/>
      <point x="296" y="-177" type="curve" smooth="yes"/>
      <point x="325" y="-177"/>
      <point x="345" y="-161"/>
      <point x="345" y="-139" type="curve" smooth="yes"/>
      <point x="345" y="-119"/>
      <point x="327" y="-104"/>
      <point x="303" y="-104" type="curve" smooth="yes"/>
      <point x="295" y="-104"/>
      <point x="289" y="-105"/>
      <point x="274" y="-108" type="curve"/>
      <point x="257" y="-91" type="line"/>
      <point x="317" y="-12" type="line"/>
      <point x="138" y="11"/>
      <point x="35" y="123"/>
      <point x="35" y="292" type="curve" smooth="yes"/>
      <point x="35" y="531"/>
      <point x="238" y="737"/>
      <point x="473" y="737" type="curve" smooth="yes"/>
      <point x="552" y="737"/>
      <point x="611" y="711"/>
      <point x="657" y="655" type="curve"/>
      <point x="713" y="712" type="line"/>
      <point x="759" y="712" type="line"/>
      <point x="701" y="426" type="line"/>
      <point x="652" y="432" type="line"/>
      <point x="647" y="603"/>
      <point x="594" y="684"/>
      <point x="487" y="684" type="curve" smooth="yes"/>
      <point x="421" y="684"/>
      <point x="361" y="646"/>
      <point x="320" y="576" type="curve"/>
      <point x="261" y="479"/>
      <point x="225" y="349"/>
      <point x="225" y="237" type="curve" smooth="yes"/>
      <point x="225" y="121"/>
      <point x="291" y="47"/>
      <point x="397" y="47" type="curve" smooth="yes"/>
      <point x="488" y="47"/>
      <point x="579" y="115"/>
      <point x="616" y="212" type="curve"/>
      <point x="679" y="212" type="line"/>
      <point x="627" y="64"/>
      <point x="513" y="-18"/>
    </contour>
  </outline>
</glyph>
<glyph name="Edieresis" format="1">
  <advance width="741"/>
  <unicode hex="00CB"/>
  <outline>
    <contour>
      <point x="728" y="722" type="line"/>
      <point x="688" y="477" type="line"/>
      <point x="636" y="477" type="line"/>
      <point x="635" y="540"/>
      <point x="629" y="577"/>
      <point x="615" y="604" type="curve"/>
      <point x="595" y="646"/>
      <point x="548" y="668"/>
      <point x="478" y="668" type="curve" smooth="yes"/>
      <point x="440" y="668" type="line" smooth="yes"/>
      <point x="399" y="668"/>
      <point x="388" y="659"/>
      <point x="377" y="620" type="curve" smooth="yes"/>
      <point x="318" y="401" type="line"/>
      <point x="339" y="401" type="line" smooth="yes"/>
      <point x="426" y="401"/>
      <point x="471" y="434"/>
      <point x="505" y="523" type="curve"/>
      <point x="558" y="516" type="line"/>
      <point x="468" y="181" type="line"/>
      <point x="415" y="188" type="line"/>
      <point x="419" y="218"/>
      <point x="420" y="232"/>
      <point x="420" y="250" type="curve" smooth="yes"/>
      <point x="420" y="315"/>
      <point x="389" y="347"/>
      <point x="326" y="347" type="curve" smooth="yes"/>
      <point x="304" y="347" type="line"/>
      <point x="241" y="111" type="line" smooth="yes"/>
      <point x="237" y="98"/>
      <point x="235" y="85"/>
      <point x="235" y="79" type="curve" smooth="yes"/>
      <point x="235" y="61"/>
      <point x="251" y="54"/>
      <point x="289" y="54" type="curve" smooth="yes"/>
      <point x="325" y="54" type="line" smooth="yes"/>
      <point x="405" y="54"/>
      <point x="463" y="79"/>
      <point x="528" y="141" type="curve" smooth="yes"/>
      <point x="566" y="177"/>
      <point x="593" y="213"/>
      <point x="616" y="259" type="curve"/>
      <point x="668" y="248" type="line"/>
      <point x="602" y="0" type="line"/>
      <point x="-41" y="0" type="line"/>
      <point x="-34" y="54" type="line"/>
      <point x="-30" y="54" type="line" smooth="yes"/>
      <point x="39" y="54"/>
      <point x="51" y="60"/>
      <point x="62" y="102" type="curve" smooth="yes"/>
      <point x="73" y="144" type="line"/>
      <point x="190" y="578" type="line" smooth="yes"/>
      <point x="199" y="613"/>
      <point x="203" y="632"/>
      <point x="203" y="641" type="curve" smooth="yes"/>
      <point x="203" y="663"/>
      <point x="189" y="668"/>
      <point x="124" y="668" type="curve" smooth="yes"/>
      <point x="105" y="668" type="line"/>
      <point x="113" y="722" type="line"/>
    </contour>
    <contour>
      <point x="350" y="933" type="curve" smooth="yes"/>
      <point x="389" y="933"/>
      <point x="421" y="901"/>
      <point x="421" y="862" type="curve" smooth="yes"/>
      <point x="421" y="822"/>
      <point x="389" y="790"/>
      <point x="349" y="790" type="curve" smooth="yes"/>
      <point x="310" y="790"/>
      <point x="278" y="823"/>
      <point x="278" y="862" type="curve" smooth="yes"/>
      <point x="278" y="901"/>
      <point x="310" y="933"/>
    </contour>
    <contour>
      <point x="565" y="933" type="curve" smooth="yes"/>
      <point x="604" y="933"/>
      <point x="636" y="901"/>
      <point x="636" y="862" type="curve" smooth="yes"/>
      <point x="636" y="822"/>
      <point x="604" y="790"/>
      <point x="564" y="790" type="curve" smooth="yes"/>
      <point x="525" y="790"/>
      <point x="493" y="823"/>
      <point x="493" y="862" type="curve" smooth="yes"/>
      <point x="493" y="901"/>
      <point x="525" y="933"/>
    </contour>
  </outline>
</glyph>
<glyph name="Ntilde" format="1">
  <advance width="852"/>
  <unicode hex="00D1"/>
  <outline>
    <contour>
      <point x="350" y="722" type="line"/>
      <point x="618" y="215" type="line"/>
      <point x="696" y="505" type="line" smooth="yes"/>
      <point x="717" y="585"/>
      <point x="718" y="591"/>
      <point x="718" y="613" type="curve" smooth="yes"/>
      <point x="718" y="650"/>
      <point x="688" y="668"/>
      <point x="628" y="668" type="curve"/>
      <point x="635" y="722" type="line"/>
      <point x="912" y="722" type="line"/>
      <point x="905" y="668" type="line"/>
      <point x="871" y="668"/>
      <point x="844" y="659"/>
      <point x="824" y="641" type="curve" smooth="yes"/>
      <point x="796" y="614"/>
      <point x="794" y="611"/>
      <point x="763" y="505" type="curve"/>
      <point x="624" y="-14" type="line"/>
      <point x="544" y="-14" type="line"/>
      <point x="248" y="552" type="line"/>
      <point x="158" y="217" type="line"/>
      <point x="138" y="137"/>
      <point x="137" y="130"/>
      <point x="137" y="109" type="curve" smooth="yes"/>
      <point x="137" y="72"/>
      <point x="166" y="54"/>
      <point x="224" y="54" type="curve" smooth="yes"/>
      <point x="235" y="54" type="line"/>
      <point x="227" y="0" type="line"/>
      <point x="-57" y="0" type="line"/>
      <point x="-50" y="54" type="line"/>
      <point x="-16" y="55"/>
      <point x="11" y="64"/>
      <point x="31" y="81" type="curve"/>
      <point x="59" y="107"/>
      <point x="61" y="113"/>
      <point x="91" y="217" type="curve"/>
      <point x="204" y="636" type="line"/>
      <point x="192" y="659"/>
      <point x="176" y="668"/>
      <point x="145" y="668" type="curve" smooth="yes"/>
      <point x="89" y="668" type="line"/>
      <point x="96" y="722" type="line"/>
    </contour>
    <contour>
      <point x="663" y="922" type="curve"/>
      <point x="710" y="922" type="line"/>
      <point x="707" y="855"/>
      <point x="649" y="796"/>
      <point x="586" y="796" type="curve" smooth="yes"/>
      <point x="565" y="796"/>
      <point x="540" y="802"/>
      <point x="501" y="817" type="curve" smooth="yes"/>
      <point x="456" y="835"/>
      <point x="444" y="838"/>
      <point x="429" y="838" type="curve" smooth="yes"/>
      <point x="407" y="838"/>
      <point x="392" y="823"/>
      <point x="387" y="796" type="curve"/>
      <point x="340" y="796" type="line"/>
      <point x="345" y="869"/>
      <point x="398" y="922"/>
      <point x="464" y="922" type="curve" smooth="yes"/>
      <point x="484" y="922"/>
      <point x="510" y="916"/>
      <point x="543" y="903" type="curve" smooth="yes"/>
      <point x="591" y="884"/>
      <point x="598" y="882"/>
      <point x="613" y="882" type="curve" smooth="yes"/>
      <point x="638" y="882"/>
      <point x="655" y="896"/>
    </contour>
  </outline>
</glyph>
<glyph name="Oacute" format="1">
  <advance width="833"/>
  <unicode hex="00D3"/>
  <outline>
    <contour>
      <point x="490" y="737" type="curve" smooth="yes"/>
      <point x="582" y="737"/>
      <point x="655" y="708"/>
      <point x="714" y="646" type="curve"/>
      <point x="769" y="590"/>
      <point x="797" y="520"/>
      <point x="797" y="441" type="curve" smooth="yes"/>
      <point x="797" y="193"/>
      <point x="589" y="-15"/>
      <point x="342" y="-15" type="curve" smooth="yes"/>
      <point x="157" y="-15"/>
      <point x="36" y="104"/>
      <point x="36" y="286" type="curve" smooth="yes"/>
      <point x="36" y="406"/>
      <point x="88" y="526"/>
      <point x="176" y="610" type="curve" smooth="yes"/>
      <point x="267" y="696"/>
      <point x="368" y="737"/>
    </contour>
    <contour>
      <point x="487" y="683" type="curve" smooth="yes"/>
      <point x="412" y="683"/>
      <point x="352" y="633"/>
      <point x="300" y="528" type="curve" smooth="yes"/>
      <point x="251" y="428"/>
      <point x="215" y="287"/>
      <point x="215" y="193" type="curve" smooth="yes"/>
      <point x="215" y="98"/>
      <point x="264" y="39"/>
      <point x="342" y="39" type="curve" smooth="yes"/>
      <point x="415" y="39"/>
      <point x="477" y="90"/>
      <point x="533" y="196" type="curve"/>
      <point x="582" y="291"/>
      <point x="613" y="415"/>
      <point x="613" y="520" type="curve" smooth="yes"/>
      <point x="613" y="568"/>
      <point x="605" y="603"/>
      <point x="586" y="631" type="curve" smooth="yes"/>
      <point x="566" y="662"/>
      <point x="526" y="683"/>
    </contour>
    <contour>
      <point x="433" y="774" type="line"/>
      <point x="557" y="913" type="line" smooth="yes"/>
      <point x="590" y="949"/>
      <point x="603" y="958"/>
      <point x="627" y="958" type="curve" smooth="yes"/>
      <point x="657" y="958"/>
      <point x="681" y="935"/>
      <point x="681" y="906" type="curve" smooth="yes"/>
      <point x="681" y="888"/>
      <point x="671" y="872"/>
      <point x="653" y="862" type="curve" smooth="yes"/>
      <point x="487" y="774" type="line"/>
    </contour>
  </outline>
</glyph>
<glyph name="multiply" format="1">
  <advance width="606"/>
  <unicode hex="00D7"/>
  <outline>
    <contour>
      <point x="294" y="171" type="line"/>
      <point x="122" y="0" type="line"/>
      <point x="41" y="81" type="line"/>
      <point x="213" y="253" type="line"/>
      <point x="41" y="424" type="line"/>
      <point x="122" y="506" type="line"/>
      <point x="294" y="334" type="line"/>
      <point x="466" y="506" type="line"/>
      <point x="547" y="424" type="line"/>
      <point x="375" y="253" type="line"/>
      <point x="547" y="81" type="line"/>
      <point x="466" y="0" type="line"/>
    </contour>
  </outline>
</glyph>
<glyph name="Oslash" format="1">
  <advance width="833"/>
  <unicode hex="00D8"/>
  <outline>
    <contour>
      <point x="652" y="697" type="curve"/>
      <point x="713" y="773" type="line"/>
      <point x="778" y="773" type="line"/>
      <point x="692" y="667" type="line"/>
      <point x="761" y="607"/>
      <point x="797" y="530"/>
      <point x="797" y="441" type="curve" smooth="yes"/>
      <point x="797" y="194"/>
      <point x="589" y="-15"/>
      <point x="344" y="-15" type="curve" smooth="yes"/>
      <point x="279" y="-15"/>
      <point x="216" y="0"/>
      <point x="172" y="27" type="curve"/>
      <point x="82" y="-83" type="line"/>
      <point x="17" y="-83" type="line"/>
      <point x="131" y="57" type="line"/>
      <point x="69" y="111"/>
      <point x="36" y="192"/>
      <point x="36" y="286" type="curve" smooth="yes"/>
      <point x="36" y="531"/>
      <point x="241" y="737"/>
      <point x="485" y="737" type="curve" smooth="yes"/>
      <point x="549" y="737"/>
      <point x="604" y="724"/>
    </contour>
    <contour>
      <point x="217" y="163" type="curve"/>
      <point x="591" y="623" type="line"/>
      <point x="569" y="661"/>
      <point x="531" y="682"/>
      <point x="487" y="682" type="curve" smooth="yes"/>
      <point x="413" y="682"/>
      <point x="352" y="631"/>
      <point x="300" y="528" type="curve"/>
      <point x="252" y="429"/>
      <point x="215" y="288"/>
      <point x="215" y="197" type="curve" smooth="yes"/>
      <point x="215" y="187"/>
      <point x="216" y="175"/>
    </contour>
    <contour>
      <point x="610" y="566" type="curve"/>
      <point x="234" y="104" type="line"/>
      <point x="256" y="62"/>
      <point x="293" y="40"/>
      <point x="341" y="40" type="curve" smooth="yes"/>
      <point x="415" y="40"/>
      <point x="477" y="91"/>
      <point x="533" y="197" type="curve" smooth="yes"/>
      <point x="581" y="289"/>
      <point x="613" y="416"/>
      <point x="613" y="514" type="curve" smooth="yes"/>
      <point x="613" y="532"/>
      <point x="612" y="544"/>
    </contour>
  </outline>
</glyph>
<glyph name="Thorn" format="1">
  <advance width="741"/>
  <unicode hex="00DE"/>
  <outline>
    <contour>
      <point x="335" y="0" type="line"/>
      <point x="-38" y="0" type="line"/>
      <point x="-31" y="54" type="line"/>
      <point x="-24" y="54" type="line" smooth="yes"/>
      <point x="18" y="54"/>
      <point x="42" y="58"/>
      <point x="52" y="68" type="curve" smooth="yes"/>
      <point x="61" y="76"/>
      <point x="61" y="76"/>
      <point x="79" y="144" type="curve" smooth="yes"/>
      <point x="195" y="578" type="line" smooth="yes"/>
      <point x="205" y="612"/>
      <point x="209" y="633"/>
      <point x="209" y="641" type="curve" smooth="yes"/>
      <point x="209" y="663"/>
      <point x="195" y="668"/>
      <point x="130" y="668" type="curve" smooth="yes"/>
      <point x="108" y="668" type="line"/>
      <point x="116" y="722" type="line"/>
      <point x="489" y="722" type="line"/>
      <point x="482" y="668" type="line"/>
      <point x="475" y="668" type="line" smooth="yes"/>
      <point x="406" y="668"/>
      <point x="394" y="662"/>
      <point x="383" y="620" type="curve" smooth="yes"/>
      <point x="372" y="578" type="line"/>
      <point x="433" y="578" type="line" smooth="yes"/>
      <point x="526" y="578"/>
      <point x="578" y="567"/>
      <point x="619" y="538" type="curve" smooth="yes"/>
      <point x="665" y="506"/>
      <point x="690" y="453"/>
      <point x="690" y="391" type="curve" smooth="yes"/>
      <point x="690" y="303"/>
      <point x="646" y="235"/>
      <point x="567" y="200" type="curve" smooth="yes"/>
      <point x="514" y="176"/>
      <point x="446" y="166"/>
      <point x="336" y="166" type="curve" smooth="yes"/>
      <point x="261" y="166" type="line"/>
      <point x="256" y="144" type="line"/>
      <point x="242" y="89"/>
      <point x="242" y="89"/>
      <point x="242" y="81" type="curve" smooth="yes"/>
      <point x="242" y="59"/>
      <point x="256" y="54"/>
      <point x="321" y="54" type="curve" smooth="yes"/>
      <point x="343" y="54" type="line"/>
    </contour>
    <contour>
      <point x="276" y="220" type="line"/>
      <point x="319" y="220" type="line" smooth="yes"/>
      <point x="375" y="220"/>
      <point x="418" y="232"/>
      <point x="446" y="255" type="curve" smooth="yes"/>
      <point x="484" y="286"/>
      <point x="511" y="355"/>
      <point x="511" y="419" type="curve" smooth="yes"/>
      <point x="511" y="455"/>
      <point x="500" y="485"/>
      <point x="480" y="502" type="curve" smooth="yes"/>
      <point x="466" y="514"/>
      <point x="438" y="524"/>
      <point x="418" y="524" type="curve" smooth="yes"/>
      <point x="407" y="524" type="line" smooth="yes"/>
      <point x="365" y="524"/>
      <point x="355" y="516"/>
      <point x="343" y="471" type="curve" smooth="yes"/>
    </contour>
  </outline>
</glyph>
<glyph name="germandbls" format="1">
  <advance width="574"/>
  <unicode hex="00DF"/>
  <outline>
    <contour>
      <point x="46" y="186" type="curve" smooth="yes"/>
      <point x="92" y="415" type="line"/>
      <point x="139" y="643"/>
      <point x="212" y="737"/>
      <point x="344" y="737" type="curve" smooth="yes"/>
      <point x="449" y="737"/>
      <point x="523" y="672"/>
      <point x="523" y="579" type="curve" smooth="yes"/>
      <point x="523" y="526"/>
      <point x="498" y="477"/>
      <point x="455" y="446" type="curve" smooth="yes"/>
      <point x="430" y="428"/>
      <point x="409" y="419"/>
      <point x="365" y="410" type="curve"/>
      <point x="400" y="396"/>
      <point x="414" y="389"/>
      <point x="433" y="376" type="curve" smooth="yes"/>
      <point x="482" y="342"/>
      <point x="508" y="288"/>
      <point x="508" y="221" type="curve" smooth="yes"/>
      <point x="508" y="82"/>
      <point x="415" y="-15"/>
      <point x="284" y="-15" type="curve" smooth="yes"/>
      <point x="250" y="-15"/>
      <point x="229" y="-11"/>
      <point x="198" y="1" type="curve"/>
      <point x="214" y="55" type="line"/>
      <point x="230" y="38"/>
      <point x="242" y="32"/>
      <point x="259" y="32" type="curve" smooth="yes"/>
      <point x="287" y="32"/>
      <point x="309" y="57"/>
      <point x="324" y="104" type="curve" smooth="yes"/>
      <point x="344" y="167"/>
      <point x="358" y="248"/>
      <point x="358" y="299" type="curve" smooth="yes"/>
      <point x="358" y="340"/>
      <point x="346" y="372"/>
      <point x="325" y="386" type="curve" smooth="yes"/>
      <point x="318" y="391"/>
      <point x="315" y="393"/>
      <point x="297" y="398" type="curve"/>
      <point x="279" y="405"/>
      <point x="272" y="410"/>
      <point x="272" y="420" type="curve" smooth="yes"/>
      <point x="272" y="433"/>
      <point x="280" y="438"/>
      <point x="300" y="438" type="curve" smooth="yes"/>
      <point x="329" y="438"/>
      <point x="343" y="442"/>
      <point x="354" y="454" type="curve" smooth="yes"/>
      <point x="377" y="477"/>
      <point x="395" y="539"/>
      <point x="395" y="597" type="curve" smooth="yes"/>
      <point x="395" y="655"/>
      <point x="373" y="692"/>
      <point x="339" y="692" type="curve" smooth="yes"/>
      <point x="292" y="692"/>
      <point x="266" y="641"/>
      <point x="242" y="506" type="curve" smooth="yes"/>
      <point x="184" y="169" type="line" smooth="yes"/>
      <point x="172" y="94"/>
      <point x="129" y="-79"/>
      <point x="98" y="-180" type="curve"/>
      <point x="-66" y="-205" type="line"/>
      <point x="-9" y="-64"/>
      <point x="8" y="-2"/>
    </contour>
  </outline>
</glyph>
<glyph name="aring" format="1">
  <advance width="667"/>
  <unicode hex="00E5"/>
  <outline>
    <contour>
      <point x="440" y="464" type="line"/>
      <point x="597" y="464" type="line"/>
      <point x="499" y="132" type="line"/>
      <point x="489" y="93"/>
      <point x="489" y="93"/>
      <point x="489" y="86" type="curve" smooth="yes"/>
      <point x="489" y="78"/>
      <point x="496" y="70"/>
      <point x="503" y="70" type="curve" smooth="yes"/>
      <point x="520" y="70"/>
      <point x="570" y="124"/>
      <point x="607" y="182" type="curve"/>
      <point x="646" y="157" type="line"/>
      <point x="629" y="128"/>
      <point x="607" y="97"/>
      <point x="580" y="66" type="curve" smooth="yes"/>
      <point x="531" y="11"/>
      <point x="486" y="-15"/>
      <point x="436" y="-15" type="curve" smooth="yes"/>
      <point x="396" y="-15"/>
      <point x="363" y="8"/>
      <point x="354" y="41" type="curve" smooth="yes"/>
      <point x="351" y="49"/>
      <point x="351" y="51"/>
      <point x="351" y="73" type="curve"/>
      <point x="303" y="11"/>
      <point x="257" y="-14"/>
      <point x="188" y="-14" type="curve" smooth="yes"/>
      <point x="87" y="-14"/>
      <point x="15" y="61"/>
      <point x="15" y="167" type="curve" smooth="yes"/>
      <point x="15" y="329"/>
      <point x="153" y="479"/>
      <point x="301" y="479" type="curve" smooth="yes"/>
      <point x="360" y="479"/>
      <point x="402" y="458"/>
      <point x="426" y="416" type="curve"/>
    </contour>
    <contour>
      <point x="333" y="424" type="curve" smooth="yes"/>
      <point x="292" y="424"/>
      <point x="258" y="393"/>
      <point x="227" y="328" type="curve" smooth="yes"/>
      <point x="198" y="268"/>
      <point x="178" y="188"/>
      <point x="178" y="135" type="curve" smooth="yes"/>
      <point x="178" y="87"/>
      <point x="202" y="56"/>
      <point x="239" y="56" type="curve" smooth="yes"/>
      <point x="278" y="56"/>
      <point x="314" y="89"/>
      <point x="343" y="153" type="curve" smooth="yes"/>
      <point x="373" y="217"/>
      <point x="395" y="301"/>
      <point x="395" y="351" type="curve" smooth="yes"/>
      <point x="395" y="394"/>
      <point x="370" y="424"/>
    </contour>
    <contour>
      <point x="392" y="745" type="curve" smooth="yes"/>
      <point x="451" y="745"/>
      <point x="499" y="697"/>
      <point x="499" y="638" type="curve" smooth="yes"/>
      <point x="499" y="578"/>
      <point x="451" y="530"/>
      <point x="390" y="530" type="curve" smooth="yes"/>
      <point x="333" y="530"/>
      <point x="284" y="579"/>
      <point x="284" y="638" type="curve" smooth="yes"/>
      <point x="284" y="696"/>
      <point x="333" y="745"/>
    </contour>
    <contour>
      <point x="392" y="691" type="curve" smooth="yes"/>
      <point x="362" y="691"/>
      <point x="338" y="667"/>
      <point x="338" y="637" type="curve" smooth="yes"/>
      <point x="338" y="609"/>
      <point x="362" y="584"/>
      <point x="391" y="584" type="curve" smooth="yes"/>
      <point x="421" y="584"/>
      <point x="445" y="608"/>
      <point x="445" y="638" type="curve" smooth="yes"/>
      <point x="445" y="667"/>
      <point x="421" y="691"/>
    </contour>
  </outline>
</glyph>
<glyph name="igrave" format="1">
  <advance width="389"/>
  <unicode hex="00EC"/>
  <outline>
    <contour>
      <point x="312" y="478" type="line"/>
      <point x="207" y="122" type="line" smooth="yes"/>
      <point x="198" y="91"/>
      <point x="197" y="88"/>
      <point x="197" y="80" type="curve" smooth="yes"/>
      <point x="197" y="71"/>
      <point x="204" y="64"/>
      <point x="213" y="64" type="curve" smooth="yes"/>
      <point x="233" y="64"/>
      <point x="266" y="101"/>
      <point x="314" y="177" type="curve"/>
      <point x="353" y="149" type="line"/>
      <point x="285" y="35"/>
      <point x="222" y="-15"/>
      <point x="146" y="-15" type="curve" smooth="yes"/>
      <point x="86" y="-15"/>
      <point x="42" y="23"/>
      <point x="42" y="75" type="curve" smooth="yes"/>
      <point x="42" y="94"/>
      <point x="44" y="105"/>
      <point x="57" y="149" type="curve" smooth="yes"/>
      <point x="108" y="319" type="line" smooth="yes"/>
      <point x="119" y="356"/>
      <point x="123" y="375"/>
      <point x="123" y="386" type="curve" smooth="yes"/>
      <point x="123" y="411"/>
      <point x="111" y="417"/>
      <point x="62" y="417" type="curve" smooth="yes"/>
      <point x="38" y="417" type="line"/>
      <point x="45" y="464" type="line"/>
    </contour>
    <contour>
      <point x="289" y="535" type="line"/>
      <point x="240" y="535" type="line"/>
      <point x="99" y="624" type="line" smooth="yes"/>
      <point x="79" y="636"/>
      <point x="69" y="652"/>
      <point x="69" y="670" type="curve" smooth="yes"/>
      <point x="69" y="698"/>
      <point x="91" y="719"/>
      <point x="122" y="719" type="curve" smooth="yes"/>
      <point x="149" y="719"/>
      <point x="163" y="710"/>
      <point x="187" y="677" type="curve" smooth="yes"/>
    </contour>
  </outline>
</glyph>
<glyph name="iacute" format="1">
  <advance width="389"/>
  <unicode hex="00ED"/>
  <outline>
    <contour>
      <point x="312" y="478" type="line"/>
      <point x="207" y="122" type="line" smooth="yes"/>
      <point x="198" y="91"/>
      <point x="197" y="88"/>
      <point x="197" y="80" type="curve" smooth="yes"/>
      <point x="197" y="71"/>
      <point x="204" y="64"/>
      <point x="213" y="64" type="curve" smooth="yes"/>
      <point x="233" y="64"/>
      <point x="266" y="101"/>
      <point x="314" y="177" type="curve"/>
      <point x="353" y="149" type="line"/>
      <point x="285" y="35"/>
      <point x="222" y="-15"/>
      <point x="146" y="-15" type="curve" smooth="yes"/>
      <point x="86" y="-15"/>
      <point x="42" y="23"/>
      <point x="42" y="75" type="curve" smooth="yes"/>
      <point x="42" y="94"/>
      <point x="44" y="105"/>
      <point x="57" y="149" type="curve" smooth="yes"/>
      <point x="108" y="319" type="line" smooth="yes"/>
      <point x="119" y="356"/>
      <point x="123" y="375"/>
      <point x="123" y="386" type="curve" smooth="yes"/>
      <point x="123" y="411"/>
      <point x="111" y="417"/>
      <point x="62" y="417" type="curve" smooth="yes"/>
      <point x="38" y="417" type="line"/>
      <point x="45" y="464" type="line"/>
    </contour>
    <contour>
      <point x="151" y="535" type="line"/>
      <point x="275" y="674" type="line" smooth="yes"/>
      <point x="309" y="711"/>
      <point x="321" y="719"/>
      <point x="345" y="719" type="curve" smooth="yes"/>
      <point x="375" y="719"/>
      <point x="399" y="696"/>
      <point x="399" y="667" type="curve" smooth="yes"/>
      <point x="399" y="648"/>
      <point x="389" y="633"/>
      <point x="371" y="623" type="curve" smooth="yes"/>
      <point x="205" y="535" type="line"/>
    </contour>
  </outline>
</glyph>
<glyph name="divide" format="1">
  <advance width="606"/>
  <unicode hex="00F7"/>
  <outline>
    <contour>
      <point x="295" y="136" type="curve" smooth="yes"/>
      <point x="339" y="136"/>
      <point x="377" y="98"/>
      <point x="377" y="53" type="curve" smooth="yes"/>
      <point x="377" y="7"/>
      <point x="339" y="-31"/>
      <point x="294" y="-31" type="curve" smooth="yes"/>
      <point x="247" y="-31"/>
      <point x="210" y="7"/>
      <point x="210" y="53" type="curve" smooth="yes"/>
      <point x="210" y="99"/>
      <point x="248" y="136"/>
    </contour>
    <contour>
      <point x="295" y="536" type="curve" smooth="yes"/>
      <point x="339" y="536"/>
      <point x="377" y="498"/>
      <point x="377" y="453" type="curve" smooth="yes"/>
      <point x="377" y="407"/>
      <point x="339" y="369"/>
      <point x="294" y="369" type="curve" smooth="yes"/>
      <point x="247" y="369"/>
      <point x="210" y="407"/>
      <point x="210" y="453" type="curve" smooth="yes"/>
      <point x="210" y="499"/>
      <point x="248" y="536"/>
    </contour>
    <contour>
      <point x="41" y="195" type="line"/>
      <point x="41" y="310" type="line"/>
      <point x="545" y="310" type="line"/>
      <point x="545" y="195" type="line"/>
    </contour>
  </outline>
</glyph>
<glyph name="oslash" format="1">
  <advance width="574"/>
  <unicode hex="00F8"/>
  <outline>
    <contour>
      <point x="388" y="471" type="curve"/>
      <point x="449" y="578" type="line"/>
      <point x="503" y="578" type="line"/>
      <point x="433" y="457" type="line"/>
      <point x="503" y="426"/>
      <point x="540" y="367"/>
      <point x="540" y="285" type="curve" smooth="yes"/>
      <point x="540" y="116"/>
      <point x="401" y="-14"/>
      <point x="221" y="-14" type="curve" smooth="yes"/>
      <point x="202" y="-14"/>
      <point x="187" y="-13"/>
      <point x="167" y="-10" type="curve"/>
      <point x="100" y="-126" type="line"/>
      <point x="46" y="-126" type="line"/>
      <point x="120" y="4" type="line"/>
      <point x="50" y="35"/>
      <point x="10" y="101"/>
      <point x="10" y="187" type="curve" smooth="yes"/>
      <point x="10" y="342"/>
      <point x="154" y="478"/>
      <point x="319" y="478" type="curve" smooth="yes"/>
      <point x="340" y="478"/>
      <point x="360" y="476"/>
    </contour>
    <contour>
      <point x="167" y="86" type="curve"/>
      <point x="358" y="419" type="line"/>
      <point x="346" y="427"/>
      <point x="333" y="431"/>
      <point x="319" y="431" type="curve" smooth="yes"/>
      <point x="278" y="431"/>
      <point x="240" y="393"/>
      <point x="210" y="322" type="curve" smooth="yes"/>
      <point x="184" y="259"/>
      <point x="165" y="167"/>
      <point x="165" y="108" type="curve" smooth="yes"/>
      <point x="165" y="102"/>
      <point x="166" y="96"/>
    </contour>
    <contour>
      <point x="384" y="370" type="curve"/>
      <point x="194" y="38" type="line"/>
      <point x="204" y="32"/>
      <point x="214" y="29"/>
      <point x="228" y="29" type="curve" smooth="yes"/>
      <point x="273" y="29"/>
      <point x="308" y="63"/>
      <point x="335" y="133" type="curve" smooth="yes"/>
      <point x="363" y="203"/>
      <point x="385" y="301"/>
      <point x="385" y="353" type="curve" smooth="yes"/>
      <point x="385" y="356"/>
      <point x="385" y="361"/>
    </contour>
  </outline>
</glyph>
<glyph name="aogonek" format="1">
  <advance width="667"/>
  <unicode hex="0105"/>
  <outline>
    <contour>
      <point x="607" y="182" type="curve"/>
      <point x="646" y="157" type="line"/>
      <point x="643" y="151"/>
      <point x="640" y="147"/>
      <point x="640" y="147" type="curve"/>
      <point x="592" y="78" type="line"/>
      <point x="551" y="17" type="line" smooth="yes"/>
      <point x="522" y="-25"/>
      <point x="514" y="-43"/>
      <point x="514" y="-64" type="curve" smooth="yes"/>
      <point x="514" y="-84"/>
      <point x="527" y="-99"/>
      <point x="544" y="-99" type="curve" smooth="yes"/>
      <point x="559" y="-99"/>
      <point x="573" y="-92"/>
      <point x="594" y="-75" type="curve"/>
      <point x="612" y="-106" type="line"/>
      <point x="582" y="-150"/>
      <point x="548" y="-173"/>
      <point x="512" y="-173" type="curve" smooth="yes"/>
      <point x="467" y="-173"/>
      <point x="435" y="-138"/>
      <point x="435" y="-91" type="curve" smooth="yes"/>
      <point x="435" y="-61"/>
      <point x="445" y="-36"/>
      <point x="467" y="-11" type="curve"/>
      <point x="453" y="-14"/>
      <point x="446" y="-15"/>
      <point x="437" y="-15" type="curve" smooth="yes"/>
      <point x="396" y="-15"/>
      <point x="363" y="7"/>
      <point x="354" y="41" type="curve" smooth="yes"/>
      <point x="351" y="49"/>
      <point x="351" y="51"/>
      <point x="351" y="73" type="curve"/>
      <point x="303" y="11"/>
      <point x="257" y="-14"/>
      <point x="188" y="-14" type="curve" smooth="yes"/>
      <point x="87" y="-14"/>
      <point x="15" y="61"/>
      <point x="15" y="167" type="curve" smooth="yes"/>
      <point x="15" y="329"/>
      <point x="153" y="479"/>
      <point x="301" y="479" type="curve" smooth="yes"/>
      <point x="360" y="479"/>
      <point x="402" y="458"/>
      <point x="426" y="416" type="curve"/>
      <point x="440" y="464" type="line"/>
      <point x="597" y="464" type="line"/>
      <point x="499" y="132" type="line"/>
      <point x="489" y="93"/>
      <point x="489" y="93"/>
      <point x="489" y="86" type="curve" smooth="yes"/>
      <point x="489" y="78"/>
      <point x="496" y="70"/>
      <point x="503" y="70" type="curve" smooth="yes"/>
      <point x="520" y="70"/>
      <point x="570" y="124"/>
    </contour>
    <contour>
      <point x="333" y="424" type="curve" smooth="yes"/>
      <point x="292" y="424"/>
      <point x="258" y="393"/>
      <point x="227" y="328" type="curve" smooth="yes"/>
      <point x="198" y="268"/>
      <point x="178" y="188"/>
      <point x="178" y="135" type="curve" smooth="yes"/>
      <point x="178" y="87"/>
      <point x="202" y="56"/>
      <point x="239" y="56" type="curve" smooth="yes"/>
      <point x="278" y="56"/>
      <point x="314" y="89"/>
      <point x="343" y="153" type="curve" smooth="yes"/>
      <point x="373" y="217"/>
      <point x="395" y="301"/>
      <point x="395" y="351" type="curve" smooth="yes"/>
      <point x="395" y="394"/>
      <point x="370" y="424"/>
    </contour>
  </outline>
</glyph>
<glyph name="Cacute" format="1">
  <advance width="759"/>
  <unicode hex="0106"/>
  <outline>
    <contour>
      <point x="759" y="712" type="line"/>
      <point x="701" y="426" type="line"/>
      <point x="652" y="432" type="line"/>
      <point x="647" y="603"/>
      <point x="594" y="684"/>
      <point x="487" y="684" type="curve" smooth="yes"/>
      <point x="421" y="684"/>
      <point x="361" y="646"/>
      <point x="320" y="576" type="curve"/>
      <point x="261" y="479"/>
      <point x="225" y="349"/>
      <point x="225" y="238" type="curve" smooth="yes"/>
      <point x="225" y="121"/>
      <point x="291" y="48"/>
      <point x="397" y="48" type="curve" smooth="yes"/>
      <point x="488" y="48"/>
      <point x="579" y="116"/>
      <point x="616" y="212" type="curve"/>
      <point x="679" y="212" type="line"/>
      <point x="663" y="161"/>
      <point x="633" y="112"/>
      <point x="591" y="70" type="curve" smooth="yes"/>
      <point x="536" y="15"/>
      <point x="458" y="-15"/>
      <point x="368" y="-15" type="curve" smooth="yes"/>
      <point x="274" y="-15"/>
      <point x="178" y="18"/>
      <point x="122" y="71" type="curve" smooth="yes"/>
      <point x="67" y="123"/>
      <point x="35" y="204"/>
      <point x="35" y="292" type="curve" smooth="yes"/>
      <point x="35" y="531"/>
      <point x="238" y="737"/>
      <point x="473" y="737" type="curve" smooth="yes"/>
      <point x="552" y="737"/>
      <point x="611" y="711"/>
      <point x="657" y="655" type="curve"/>
      <point x="713" y="712" type="line"/>
    </contour>
    <contour>
      <point x="416" y="774" type="line"/>
      <point x="540" y="913" type="line" smooth="yes"/>
      <point x="573" y="949"/>
      <point x="586" y="958"/>
      <point x="610" y="958" type="curve" smooth="yes"/>
      <point x="640" y="958"/>
      <point x="664" y="935"/>
      <point x="664" y="906" type="curve" smooth="yes"/>
      <point x="664" y="888"/>
      <point x="654" y="872"/>
      <point x="636" y="862" type="curve" smooth="yes"/>
      <point x="470" y="774" type="line"/>
    </contour>
  </outline>
</glyph>
<glyph name="Dcroat" format="1">
  <advance width="833"/>
  <unicode hex="0110"/>
  <outline>
    <contour>
      <point x="116" y="339" type="line"/>
      <point x="23" y="339" type="line"/>
      <point x="40" y="402" type="line"/>
      <point x="133" y="402" type="line"/>
      <point x="182" y="578" type="line" smooth="yes"/>
      <point x="190" y="607"/>
      <point x="195" y="632"/>
      <point x="195" y="641" type="curve" smooth="yes"/>
      <point x="195" y="663"/>
      <point x="181" y="668"/>
      <point x="116" y="668" type="curve" smooth="yes"/>
      <point x="98" y="668" type="line"/>
      <point x="105" y="722" type="line"/>
      <point x="463" y="722" type="line" smooth="yes"/>
      <point x="572" y="722"/>
      <point x="633" y="707"/>
      <point x="691" y="666" type="curve" smooth="yes"/>
      <point x="760" y="618"/>
      <point x="796" y="540"/>
      <point x="796" y="438" type="curve" smooth="yes"/>
      <point x="796" y="305"/>
      <point x="740" y="180"/>
      <point x="645" y="100" type="curve" smooth="yes"/>
      <point x="560" y="28"/>
      <point x="459" y="0"/>
      <point x="285" y="0" type="curve" smooth="yes"/>
      <point x="-49" y="0" type="line"/>
      <point x="-42" y="54" type="line"/>
      <point x="-38" y="54" type="line" smooth="yes"/>
      <point x="4" y="54"/>
      <point x="28" y="58"/>
      <point x="39" y="68" type="curve" smooth="yes"/>
      <point x="47" y="76"/>
      <point x="47" y="76"/>
      <point x="66" y="144" type="curve"/>
    </contour>
    <contour>
      <point x="292" y="339" type="line"/>
      <point x="237" y="127" type="line" smooth="yes"/>
      <point x="228" y="91"/>
      <point x="228" y="89"/>
      <point x="228" y="81" type="curve" smooth="yes"/>
      <point x="228" y="62"/>
      <point x="243" y="54"/>
      <point x="281" y="54" type="curve" smooth="yes"/>
      <point x="310" y="54" type="line" smooth="yes"/>
      <point x="396" y="54"/>
      <point x="467" y="91"/>
      <point x="515" y="162" type="curve"/>
      <point x="569" y="244"/>
      <point x="610" y="388"/>
      <point x="610" y="501" type="curve" smooth="yes"/>
      <point x="610" y="610"/>
      <point x="558" y="668"/>
      <point x="461" y="668" type="curve" smooth="yes"/>
      <point x="439" y="668" type="line" smooth="yes"/>
      <point x="393" y="668"/>
      <point x="379" y="656"/>
      <point x="365" y="605" type="curve" smooth="yes"/>
      <point x="309" y="402" type="line"/>
      <point x="460" y="402" type="line"/>
      <point x="443" y="339" type="line"/>
    </contour>
  </outline>
</glyph>
<glyph name="Gdotaccent" format="1">
  <advance width="815"/>
  <unicode hex="0120"/>
  <outline>
    <contour>
      <point x="579" y="965" type="curve" smooth="yes"/>
      <point x="618" y="965"/>
      <point x="650" y="933"/>
      <point x="650" y="894" type="curve" smooth="yes"/>
      <point x="650" y="854"/>
      <point x="618" y="822"/>
      <point x="578" y="822" type="curve" smooth="yes"/>
      <point x="539" y="822"/>
      <point x="507" y="855"/>
      <point x="507" y="894" type="curve" smooth="yes"/>
      <point x="507" y="933"/>
      <point x="539" y="965"/>
    </contour>
    <contour>
      <point x="775" y="715" type="line"/>
      <point x="718" y="432" type="line"/>
      <point x="667" y="439" type="line"/>
      <point x="666" y="492"/>
      <point x="659" y="533"/>
      <point x="644" y="576" type="curve" smooth="yes"/>
      <point x="619" y="646"/>
      <point x="569" y="683"/>
      <point x="498" y="683" type="curve" smooth="yes"/>
      <point x="419" y="683"/>
      <point x="352" y="632"/>
      <point x="298" y="531" type="curve" smooth="yes"/>
      <point x="253" y="447"/>
      <point x="222" y="322"/>
      <point x="222" y="229" type="curve" smooth="yes"/>
      <point x="222" y="181"/>
      <point x="232" y="133"/>
      <point x="248" y="103" type="curve" smooth="yes"/>
      <point x="269" y="64"/>
      <point x="315" y="37"/>
      <point x="363" y="37" type="curve" smooth="yes"/>
      <point x="426" y="37"/>
      <point x="480" y="81"/>
      <point x="504" y="152" type="curve" smooth="yes"/>
      <point x="514" y="182"/>
      <point x="528" y="241"/>
      <point x="528" y="255" type="curve" smooth="yes"/>
      <point x="528" y="278"/>
      <point x="516" y="282"/>
      <point x="451" y="282" type="curve" smooth="yes"/>
      <point x="423" y="282" type="line"/>
      <point x="430" y="336" type="line"/>
      <point x="802" y="336" type="line"/>
      <point x="795" y="282" type="line"/>
      <point x="785" y="282" type="line" smooth="yes"/>
      <point x="716" y="282"/>
      <point x="704" y="276"/>
      <point x="694" y="234" type="curve" smooth="yes"/>
      <point x="690" y="220"/>
      <point x="686" y="205"/>
      <point x="682" y="192" type="curve" smooth="yes"/>
      <point x="627" y="-14" type="line"/>
      <point x="579" y="-14" type="line"/>
      <point x="560" y="81" type="line"/>
      <point x="506" y="16"/>
      <point x="438" y="-15"/>
      <point x="347" y="-15" type="curve" smooth="yes"/>
      <point x="277" y="-15"/>
      <point x="207" y="6"/>
      <point x="149" y="44" type="curve" smooth="yes"/>
      <point x="77" y="92"/>
      <point x="34" y="182"/>
      <point x="34" y="284" type="curve" smooth="yes"/>
      <point x="34" y="529"/>
      <point x="241" y="737"/>
      <point x="485" y="737" type="curve" smooth="yes"/>
      <point x="568" y="737"/>
      <point x="616" y="716"/>
      <point x="670" y="657" type="curve"/>
      <point x="730" y="715" type="line"/>
    </contour>
  </outline>
</glyph>
<glyph name="hbar" format="1">
  <advance width="685"/>
  <unicode hex="0127"/>
  <outline>
    <contour>
      <point x="154" y="519" type="line"/>
      <point x="70" y="519" type="line"/>
      <point x="91" y="595" type="line"/>
      <point x="176" y="595" type="line"/>
      <point x="185" y="623"/>
      <point x="187" y="636"/>
      <point x="187" y="644" type="curve" smooth="yes"/>
      <point x="187" y="669"/>
      <point x="175" y="675"/>
      <point x="125" y="675" type="curve" smooth="yes"/>
      <point x="101" y="675" type="line"/>
      <point x="108" y="722" type="line"/>
      <point x="376" y="736" type="line"/>
      <point x="334" y="595" type="line"/>
      <point x="425" y="595" type="line"/>
      <point x="404" y="519" type="line"/>
      <point x="311" y="519" type="line"/>
      <point x="266" y="366" type="line"/>
      <point x="329" y="444"/>
      <point x="388" y="479"/>
      <point x="454" y="479" type="curve" smooth="yes"/>
      <point x="519" y="479"/>
      <point x="566" y="436"/>
      <point x="566" y="376" type="curve" smooth="yes"/>
      <point x="566" y="343"/>
      <point x="557" y="307"/>
      <point x="536" y="248" type="curve" smooth="yes"/>
      <point x="489" y="120" type="line" smooth="yes"/>
      <point x="478" y="90"/>
      <point x="478" y="90"/>
      <point x="478" y="82" type="curve" smooth="yes"/>
      <point x="478" y="74"/>
      <point x="485" y="66"/>
      <point x="492" y="66" type="curve" smooth="yes"/>
      <point x="510" y="66"/>
      <point x="535" y="91"/>
      <point x="589" y="166" type="curve" smooth="yes"/>
      <point x="592" y="169"/>
      <point x="595" y="173"/>
      <point x="598" y="177" type="curve"/>
      <point x="637" y="152" type="line"/>
      <point x="559" y="32"/>
      <point x="499" y="-15"/>
      <point x="426" y="-15" type="curve" smooth="yes"/>
      <point x="364" y="-15"/>
      <point x="324" y="20"/>
      <point x="324" y="76" type="curve" smooth="yes"/>
      <point x="324" y="102"/>
      <point x="327" y="114"/>
      <point x="345" y="163" type="curve" smooth="yes"/>
      <point x="406" y="332" type="line" smooth="yes"/>
      <point x="412" y="348"/>
      <point x="415" y="361"/>
      <point x="415" y="368" type="curve" smooth="yes"/>
      <point x="415" y="382"/>
      <point x="400" y="395"/>
      <point x="386" y="395" type="curve" smooth="yes"/>
      <point x="362" y="395"/>
      <point x="329" y="370"/>
      <point x="292" y="325" type="curve" smooth="yes"/>
      <point x="249" y="273"/>
      <point x="223" y="221"/>
      <point x="195" y="127" type="curve" smooth="yes"/>
      <point x="157" y="0" type="line"/>
      <point x="0" y="0" type="line"/>
    </contour>
  </outline>
</glyph>
<glyph name="Imacron" format="1">
  <advance width="444"/>
  <unicode hex="012A"/>
  <outline>
    <contour>
      <point x="332" y="0" type="line"/>
      <point x="-41" y="0" type="line"/>
      <point x="-34" y="54" type="line"/>
      <point x="-27" y="54" type="line" smooth="yes"/>
      <point x="15" y="54"/>
      <point x="39" y="58"/>
      <point x="49" y="68" type="curve" smooth="yes"/>
      <point x="58" y="76"/>
      <point x="58" y="76"/>
      <point x="76" y="144" type="curve" smooth="yes"/>
      <point x="192" y="578" type="line" smooth="yes"/>
      <point x="202" y="612"/>
      <point x="206" y="632"/>
      <point x="206" y="641" type="curve" smooth="yes"/>
      <point x="206" y="663"/>
      <point x="192" y="668"/>
      <point x="127" y="668" type="curve" smooth="yes"/>
      <point x="105" y="668" type="line"/>
      <point x="113" y="722" type="line"/>
      <point x="486" y="722" type="line"/>
      <point x="479" y="668" type="line"/>
      <point x="472" y="668" type="line" smooth="yes"/>
      <point x="430" y="668"/>
      <point x="406" y="664"/>
      <point x="396" y="654" type="curve"/>
      <point x="387" y="647"/>
      <point x="387" y="647"/>
      <point x="369" y="578" type="curve" smooth="yes"/>
      <point x="253" y="144" type="line" smooth="yes"/>
      <point x="239" y="89"/>
      <point x="239" y="89"/>
      <point x="239" y="81" type="curve" smooth="yes"/>
      <point x="239" y="59"/>
      <point x="253" y="54"/>
      <point x="318" y="54" type="curve" smooth="yes"/>
      <point x="340" y="54" type="line"/>
    </contour>
    <contour>
      <point x="170" y="894" type="line"/>
      <point x="504" y="894" type="line"/>
      <point x="483" y="814" type="line"/>
      <point x="149" y="814" type="line"/>
    </contour>
  </outline>
</glyph>
<glyph name="imacron" format="1">
  <advance width="389"/>
  <unicode hex="012B"/>
  <outline>
    <contour>
      <point x="312" y="478" type="line"/>
      <point x="207" y="122" type="line" smooth="yes"/>
      <point x="198" y="91"/>
      <point x="197" y="88"/>
      <point x="197" y="80" type="curve" smooth="yes"/>
      <point x="197" y="71"/>
      <point x="204" y="64"/>
      <point x="213" y="64" type="curve" smooth="yes"/>
      <point x="233" y="64"/>
      <point x="266" y="101"/>
      <point x="314" y="177" type="curve"/>
      <point x="353" y="149" type="line"/>
      <point x="285" y="35"/>
      <point x="222" y="-15"/>
      <point x="146" y="-15" type="curve" smooth="yes"/>
      <point x="86" y="-15"/>
      <point x="42" y="23"/>
      <point x="42" y="75" type="curve" smooth="yes"/>
      <point x="42" y="94"/>
      <point x="44" y="105"/>
      <point x="57" y="149" type="curve" smooth="yes"/>
      <point x="108" y="319" type="line" smooth="yes"/>
      <point x="119" y="356"/>
      <point x="123" y="375"/>
      <point x="123" y="386" type="curve" smooth="yes"/>
      <point x="123" y="411"/>
      <point x="111" y="417"/>
      <point x="62" y="417" type="curve" smooth="yes"/>
      <point x="38" y="417" type="line"/>
      <point x="45" y="464" type="line"/>
    </contour>
    <contour>
      <point x="81" y="642" type="line"/>
      <point x="415" y="642" type="line"/>
      <point x="394" y="566" type="line"/>
      <point x="60" y="566" type="line"/>
    </contour>
  </outline>
</glyph>
<glyph name="kcommaaccent" format="1">
  <advance width="648"/>
  <unicode hex="0137"/>
  <outline>
    <contour>
      <point x="371" y="736" type="line"/>
      <point x="262" y="371" type="line"/>
      <point x="340" y="452"/>
      <point x="391" y="479"/>
      <point x="463" y="479" type="curve" smooth="yes"/>
      <point x="533" y="479"/>
      <point x="581" y="439"/>
      <point x="581" y="381" type="curve" smooth="yes"/>
      <point x="581" y="334"/>
      <point x="549" y="291"/>
      <point x="489" y="258" type="curve" smooth="yes"/>
      <point x="461" y="242"/>
      <point x="432" y="230"/>
      <point x="387" y="215" type="curve"/>
      <point x="433" y="189"/>
      <point x="443" y="167"/>
      <point x="450" y="84" type="curve" smooth="yes"/>
      <point x="451" y="72"/>
      <point x="457" y="65"/>
      <point x="466" y="65" type="curve" smooth="yes"/>
      <point x="489" y="65"/>
      <point x="517" y="100"/>
      <point x="541" y="158" type="curve"/>
      <point x="584" y="135" type="line"/>
      <point x="533" y="30"/>
      <point x="479" y="-15"/>
      <point x="403" y="-15" type="curve" smooth="yes"/>
      <point x="338" y="-15"/>
      <point x="301" y="24"/>
      <point x="301" y="93" type="curve" smooth="yes"/>
      <point x="301" y="111"/>
      <point x="303" y="129"/>
      <point x="306" y="148" type="curve" smooth="yes"/>
      <point x="309" y="162"/>
      <point x="310" y="173"/>
      <point x="310" y="181" type="curve" smooth="yes"/>
      <point x="310" y="186"/>
      <point x="309" y="191"/>
      <point x="305" y="198" type="curve"/>
      <point x="297" y="197"/>
      <point x="289" y="197"/>
      <point x="284" y="197" type="curve" smooth="yes"/>
      <point x="262" y="197"/>
      <point x="248" y="208"/>
      <point x="248" y="226" type="curve" smooth="yes"/>
      <point x="248" y="244"/>
      <point x="263" y="257"/>
      <point x="284" y="257" type="curve" smooth="yes"/>
      <point x="297" y="257"/>
      <point x="305" y="255"/>
      <point x="330" y="244" type="curve"/>
      <point x="406" y="269"/>
      <point x="444" y="305"/>
      <point x="444" y="351" type="curve" smooth="yes"/>
      <point x="444" y="378"/>
      <point x="425" y="396"/>
      <point x="397" y="396" type="curve" smooth="yes"/>
      <point x="361" y="396"/>
      <point x="326" y="372"/>
      <point x="280" y="316" type="curve" smooth="yes"/>
      <point x="240" y="268"/>
      <point x="218" y="220"/>
      <point x="189" y="123" type="curve" smooth="yes"/>
      <point x="152" y="0" type="line"/>
      <point x="-5" y="0" type="line"/>
      <point x="166" y="578" type="line" smooth="yes"/>
      <point x="178" y="619"/>
      <point x="182" y="634"/>
      <point x="182" y="644" type="curve" smooth="yes"/>
      <point x="182" y="669"/>
      <point x="170" y="675"/>
      <point x="120" y="675" type="curve" smooth="yes"/>
      <point x="97" y="675" type="line"/>
      <point x="103" y="722" type="line"/>
    </contour>
    <contour>
      <point x="77" y="-371" type="curve"/>
      <point x="58" y="-334" type="line"/>
      <point x="141" y="-297"/>
      <point x="181" y="-256"/>
      <point x="181" y="-211" type="curve"/>
      <point x="171" y="-212"/>
      <point x="165" y="-213"/>
      <point x="157" y="-213" type="curve" smooth="yes"/>
      <point x="113" y="-213"/>
      <point x="87" y="-187"/>
      <point x="87" y="-142" type="curve" smooth="yes"/>
      <point x="87" y="-94"/>
      <point x="122" y="-60"/>
      <point x="172" y="-60" type="curve" smooth="yes"/>
      <point x="228" y="-60"/>
      <point x="266" y="-102"/>
      <point x="266" y="-164" type="curve" smooth="yes"/>
      <point x="266" y="-251"/>
      <point x="200" y="-323"/>
    </contour>
  </outline>
</glyph>
<glyph name="Lcommaaccent" format="1">
  <advance width="704"/>
  <unicode hex="013B"/>
  <outline>
    <contour>
      <point x="618" y="266" type="curve"/>
      <point x="670" y="255" type="line"/>
      <point x="602" y="0" type="line"/>
      <point x="-41" y="0" type="line"/>
      <point x="-34" y="54" type="line"/>
      <point x="-30" y="54" type="line" smooth="yes"/>
      <point x="12" y="54"/>
      <point x="36" y="58"/>
      <point x="47" y="68" type="curve" smooth="yes"/>
      <point x="55" y="76"/>
      <point x="55" y="76"/>
      <point x="73" y="144" type="curve" smooth="yes"/>
      <point x="190" y="578" type="line" smooth="yes"/>
      <point x="199" y="613"/>
      <point x="203" y="632"/>
      <point x="203" y="641" type="curve" smooth="yes"/>
      <point x="203" y="663"/>
      <point x="189" y="668"/>
      <point x="124" y="668" type="curve" smooth="yes"/>
      <point x="105" y="668" type="line"/>
      <point x="113" y="722" type="line"/>
      <point x="495" y="722" type="line"/>
      <point x="487" y="668" type="line"/>
      <point x="469" y="668" type="line" smooth="yes"/>
      <point x="427" y="668"/>
      <point x="403" y="664"/>
      <point x="393" y="654" type="curve" smooth="yes"/>
      <point x="384" y="646"/>
      <point x="384" y="646"/>
      <point x="366" y="578" type="curve" smooth="yes"/>
      <point x="250" y="144" type="line" smooth="yes"/>
      <point x="240" y="109"/>
      <point x="236" y="89"/>
      <point x="236" y="80" type="curve" smooth="yes"/>
      <point x="236" y="60"/>
      <point x="249" y="54"/>
      <point x="289" y="54" type="curve" smooth="yes"/>
      <point x="325" y="54" type="line" smooth="yes"/>
      <point x="405" y="54"/>
      <point x="463" y="79"/>
      <point x="528" y="141" type="curve" smooth="yes"/>
      <point x="570" y="180"/>
      <point x="596" y="217"/>
    </contour>
    <contour>
      <point x="179" y="-371" type="curve"/>
      <point x="160" y="-334" type="line"/>
      <point x="243" y="-297"/>
      <point x="283" y="-256"/>
      <point x="283" y="-211" type="curve"/>
      <point x="273" y="-212"/>
      <point x="267" y="-213"/>
      <point x="259" y="-213" type="curve" smooth="yes"/>
      <point x="215" y="-213"/>
      <point x="189" y="-187"/>
      <point x="189" y="-142" type="curve" smooth="yes"/>
      <point x="189" y="-94"/>
      <point x="224" y="-60"/>
      <point x="274" y="-60" type="curve" smooth="yes"/>
      <point x="330" y="-60"/>
      <point x="368" y="-102"/>
      <point x="368" y="-164" type="curve" smooth="yes"/>
      <point x="368" y="-251"/>
      <point x="302" y="-323"/>
    </contour>
  </outline>
</glyph>
<glyph name="ldot" format="1">
  <advance width="564"/>
  <unicode hex="0140"/>
  <outline>
    <contour>
      <point x="429" y="435" type="curve" smooth="yes"/>
      <point x="477" y="435"/>
      <point x="516" y="396"/>
      <point x="516" y="348" type="curve" smooth="yes"/>
      <point x="516" y="300"/>
      <point x="477" y="261"/>
      <point x="428" y="261" type="curve" smooth="yes"/>
      <point x="381" y="261"/>
      <point x="342" y="301"/>
      <point x="342" y="348" type="curve" smooth="yes"/>
      <point x="342" y="396"/>
      <point x="381" y="435"/>
    </contour>
    <contour>
      <point x="370" y="736" type="line"/>
      <point x="188" y="122" type="line"/>
      <point x="183" y="106" type="line" smooth="yes"/>
      <point x="180" y="96"/>
      <point x="178" y="85"/>
      <point x="178" y="80" type="curve" smooth="yes"/>
      <point x="178" y="70"/>
      <point x="185" y="63"/>
      <point x="193" y="63" type="curve" smooth="yes"/>
      <point x="215" y="63"/>
      <point x="260" y="110"/>
      <point x="300" y="176" type="curve"/>
      <point x="339" y="149" type="line"/>
      <point x="318" y="111"/>
      <point x="288" y="74"/>
      <point x="253" y="41" type="curve" smooth="yes"/>
      <point x="212" y="2"/>
      <point x="174" y="-15"/>
      <point x="128" y="-15" type="curve" smooth="yes"/>
      <point x="67" y="-15"/>
      <point x="26" y="22"/>
      <point x="26" y="76" type="curve" smooth="yes"/>
      <point x="26" y="99"/>
      <point x="31" y="125"/>
      <point x="49" y="182" type="curve"/>
      <point x="166" y="578" type="line" smooth="yes"/>
      <point x="177" y="615"/>
      <point x="181" y="633"/>
      <point x="181" y="644" type="curve" smooth="yes"/>
      <point x="181" y="669"/>
      <point x="169" y="675"/>
      <point x="120" y="675" type="curve" smooth="yes"/>
      <point x="96" y="675" type="line"/>
      <point x="103" y="722" type="line"/>
    </contour>
  </outline>
</glyph>
<glyph name="Lslash" format="1">
  <advance width="704"/>
  <unicode hex="0141"/>
  <outline>
    <contour>
      <point x="100" y="243" type="line"/>
      <point x="0" y="185" type="line"/>
      <point x="16" y="267" type="line"/>
      <point x="122" y="326" type="line"/>
      <point x="190" y="578" type="line" smooth="yes"/>
      <point x="199" y="613"/>
      <point x="203" y="632"/>
      <point x="203" y="641" type="curve" smooth="yes"/>
      <point x="203" y="663"/>
      <point x="189" y="668"/>
      <point x="124" y="668" type="curve" smooth="yes"/>
      <point x="105" y="668" type="line"/>
      <point x="113" y="722" type="line"/>
      <point x="495" y="722" type="line"/>
      <point x="487" y="668" type="line"/>
      <point x="469" y="668" type="line" smooth="yes"/>
      <point x="400" y="668"/>
      <point x="388" y="662"/>
      <point x="377" y="620" type="curve" smooth="yes"/>
      <point x="366" y="578" type="line"/>
      <point x="319" y="407" type="line"/>
      <point x="508" y="513" type="line"/>
      <point x="486" y="431" type="line"/>
      <point x="297" y="324" type="line"/>
      <point x="250" y="144" type="line" smooth="yes"/>
      <point x="240" y="107"/>
      <point x="236" y="89"/>
      <point x="236" y="80" type="curve" smooth="yes"/>
      <point x="236" y="60"/>
      <point x="249" y="54"/>
      <point x="289" y="54" type="curve" smooth="yes"/>
      <point x="325" y="54" type="line" smooth="yes"/>
      <point x="405" y="54"/>
      <point x="463" y="79"/>
      <point x="528" y="141" type="curve" smooth="yes"/>
      <point x="570" y="180"/>
      <point x="596" y="217"/>
      <point x="618" y="266" type="curve"/>
      <point x="670" y="255" type="line"/>
      <point x="602" y="0" type="line"/>
      <point x="-41" y="0" type="line"/>
      <point x="-34" y="54" type="line"/>
      <point x="-30" y="54" type="line" smooth="yes"/>
      <point x="39" y="54"/>
      <point x="51" y="60"/>
      <point x="62" y="102" type="curve" smooth="yes"/>
      <point x="67" y="119"/>
      <point x="70" y="131"/>
      <point x="73" y="144" type="curve" smooth="yes"/>
    </contour>
  </outline>
</glyph>
<glyph name="lslash" format="1">
  <advance width="389"/>
  <unicode hex="0142"/>
  <outline>
    <contour>
      <point x="307" y="441" type="line"/>
      <point x="397" y="495" type="line"/>
      <point x="371" y="410" type="line"/>
      <point x="281" y="355" type="line"/>
      <point x="212" y="122" type="line" smooth="yes"/>
      <point x="203" y="91"/>
      <point x="202" y="88"/>
      <point x="202" y="79" type="curve" smooth="yes"/>
      <point x="202" y="70"/>
      <point x="209" y="63"/>
      <point x="218" y="63" type="curve" smooth="yes"/>
      <point x="233" y="63"/>
      <point x="251" y="78"/>
      <point x="278" y="112" type="curve" smooth="yes"/>
      <point x="300" y="139"/>
      <point x="313" y="158"/>
      <point x="324" y="176" type="curve"/>
      <point x="363" y="149" type="line"/>
      <point x="342" y="111"/>
      <point x="312" y="74"/>
      <point x="277" y="41" type="curve" smooth="yes"/>
      <point x="236" y="2"/>
      <point x="198" y="-15"/>
      <point x="151" y="-15" type="curve" smooth="yes"/>
      <point x="91" y="-15"/>
      <point x="50" y="22"/>
      <point x="50" y="76" type="curve" smooth="yes"/>
      <point x="50" y="98"/>
      <point x="56" y="128"/>
      <point x="72" y="182" type="curve" smooth="yes"/>
      <point x="106" y="295" type="line"/>
      <point x="26" y="246" type="line"/>
      <point x="50" y="331" type="line"/>
      <point x="131" y="380" type="line"/>
      <point x="190" y="578" type="line" smooth="yes"/>
      <point x="202" y="617"/>
      <point x="206" y="634"/>
      <point x="206" y="644" type="curve" smooth="yes"/>
      <point x="206" y="669"/>
      <point x="194" y="675"/>
      <point x="145" y="675" type="curve" smooth="yes"/>
      <point x="121" y="675" type="line"/>
      <point x="128" y="722" type="line"/>
      <point x="395" y="736" type="line"/>
    </contour>
  </outline>
</glyph>
<glyph name="Eng" format="1">
  <advance width="852"/>
  <unicode hex="014A"/>
  <outline>
    <contour>
      <point x="544" y="-14" type="line"/>
      <point x="248" y="552" type="line"/>
      <point x="158" y="217" type="line" smooth="yes"/>
      <point x="137" y="138"/>
      <point x="137" y="130"/>
      <point x="137" y="109" type="curve" smooth="yes"/>
      <point x="137" y="72"/>
      <point x="166" y="54"/>
      <point x="224" y="54" type="curve" smooth="yes"/>
      <point x="235" y="54" type="line"/>
      <point x="227" y="0" type="line"/>
      <point x="-57" y="0" type="line"/>
      <point x="-50" y="54" type="line"/>
      <point x="-16" y="55"/>
      <point x="11" y="64"/>
      <point x="31" y="81" type="curve"/>
      <point x="59" y="107"/>
      <point x="63" y="114"/>
      <point x="91" y="217" type="curve" smooth="yes"/>
      <point x="204" y="636" type="line"/>
      <point x="192" y="659"/>
      <point x="176" y="668"/>
      <point x="145" y="668" type="curve" smooth="yes"/>
      <point x="89" y="668" type="line"/>
      <point x="96" y="722" type="line"/>
      <point x="350" y="722" type="line"/>
      <point x="618" y="215" type="line"/>
      <point x="696" y="505" type="line" smooth="yes"/>
      <point x="718" y="586"/>
      <point x="718" y="591"/>
      <point x="718" y="613" type="curve" smooth="yes"/>
      <point x="718" y="650"/>
      <point x="688" y="668"/>
      <point x="628" y="668" type="curve"/>
      <point x="635" y="722" type="line"/>
      <point x="912" y="722" type="line"/>
      <point x="905" y="668" type="line"/>
      <point x="871" y="668"/>
      <point x="844" y="659"/>
      <point x="824" y="641" type="curve" smooth="yes"/>
      <point x="796" y="614"/>
      <point x="792" y="614"/>
      <point x="763" y="505" type="curve" smooth="yes"/>
      <point x="611" y="-64" type="line" smooth="yes"/>
      <point x="580" y="-178"/>
      <point x="491" y="-209"/>
      <point x="385" y="-209" type="curve" smooth="yes"/>
      <point x="375" y="-209"/>
      <point x="365" y="-209"/>
      <point x="354" y="-208" type="curve"/>
      <point x="369" y="-154" type="line"/>
      <point x="454" y="-154"/>
      <point x="518" y="-113"/>
      <point x="532" y="-60" type="curve" smooth="yes"/>
    </contour>
  </outline>
</glyph>
<glyph name="eng" format="1">
  <advance width="685"/>
  <unicode hex="014B"/>
  <outline>
    <contour>
      <point x="472" y="20" type="line" smooth="yes"/>
      <point x="438" y="-94"/>
      <point x="290" y="-175"/>
      <point x="183" y="-175" type="curve" smooth="yes"/>
      <point x="173" y="-175"/>
      <point x="163" y="-175"/>
      <point x="152" y="-174" type="curve"/>
      <point x="167" y="-120" type="line"/>
      <point x="260" y="-120"/>
      <point x="304" y="-21"/>
      <point x="317" y="23" type="curve" smooth="yes"/>
      <point x="411" y="332" type="line" smooth="yes"/>
      <point x="416" y="348"/>
      <point x="420" y="361"/>
      <point x="420" y="368" type="curve" smooth="yes"/>
      <point x="420" y="381"/>
      <point x="405" y="394"/>
      <point x="390" y="394" type="curve" smooth="yes"/>
      <point x="366" y="394"/>
      <point x="333" y="370"/>
      <point x="295" y="325" type="curve" smooth="yes"/>
      <point x="251" y="272"/>
      <point x="226" y="219"/>
      <point x="198" y="127" type="curve" smooth="yes"/>
      <point x="160" y="0" type="line"/>
      <point x="13" y="0" type="line"/>
      <point x="98" y="319" type="line" smooth="yes"/>
      <point x="109" y="357"/>
      <point x="113" y="375"/>
      <point x="113" y="386" type="curve" smooth="yes"/>
      <point x="113" y="411"/>
      <point x="101" y="417"/>
      <point x="52" y="417" type="curve" smooth="yes"/>
      <point x="28" y="417" type="line"/>
      <point x="35" y="464" type="line"/>
      <point x="285" y="478" type="line"/>
      <point x="253" y="346" type="line"/>
      <point x="328" y="442"/>
      <point x="385" y="479"/>
      <point x="458" y="479" type="curve" smooth="yes"/>
      <point x="524" y="479"/>
      <point x="571" y="436"/>
      <point x="571" y="376" type="curve" smooth="yes"/>
      <point x="571" y="343"/>
      <point x="563" y="309"/>
      <point x="540" y="248" type="curve"/>
    </contour>
  </outline>
</glyph>
<glyph name="Omacron" format="1">
  <advance width="833"/>
  <unicode hex="014C"/>
  <outline>
    <contour>
      <point x="490" y="737" type="curve" smooth="yes"/>
      <point x="582" y="737"/>
      <point x="655" y="708"/>
      <point x="714" y="646" type="curve"/>
      <point x="769" y="590"/>
      <point x="797" y="520"/>
      <point x="797" y="441" type="curve" smooth="yes"/>
      <point x="797" y="193"/>
      <point x="589" y="-15"/>
      <point x="342" y="-15" type="curve" smooth="yes"/>
      <point x="157" y="-15"/>
      <point x="36" y="104"/>
      <point x="36" y="286" type="curve" smooth="yes"/>
      <point x="36" y="406"/>
      <point x="88" y="526"/>
      <point x="176" y="610" type="curve" smooth="yes"/>
      <point x="267" y="696"/>
      <point x="368" y="737"/>
    </contour>
    <contour>
      <point x="487" y="683" type="curve" smooth="yes"/>
      <point x="412" y="683"/>
      <point x="352" y="633"/>
      <point x="300" y="528" type="curve" smooth="yes"/>
      <point x="251" y="428"/>
      <point x="215" y="287"/>
      <point x="215" y="193" type="curve" smooth="yes"/>
      <point x="215" y="98"/>
      <point x="264" y="39"/>
      <point x="342" y="39" type="curve" smooth="yes"/>
      <point x="415" y="39"/>
      <point x="477" y="90"/>
      <point x="533" y="196" type="curve"/>
      <point x="582" y="291"/>
      <point x="613" y="415"/>
      <point x="613" y="520" type="curve" smooth="yes"/>
      <point x="613" y="568"/>
      <point x="605" y="603"/>
      <point x="586" y="631" type="curve" smooth="yes"/>
      <point x="566" y="662"/>
      <point x="526" y="683"/>
    </contour>
    <contour>
      <point x="370" y="894" type="line"/>
      <point x="704" y="894" type="line"/>
      <point x="683" y="814" type="line"/>
      <point x="349" y="814" type="line"/>
    </contour>
  </outline>
</glyph>
<glyph name="OE" format="1">
  <advance width="963"/>
  <unicode hex="0152"/>
  <outline>
    <contour>
      <point x="980" y="722" type="line"/>
      <point x="940" y="477" type="line"/>
      <point x="891" y="477" type="line"/>
      <point x="891" y="549"/>
      <point x="887" y="578"/>
      <point x="873" y="604" type="curve" smooth="yes"/>
      <point x="851" y="646"/>
      <point x="814" y="668"/>
      <point x="764" y="668" type="curve" smooth="yes"/>
      <point x="747" y="668" type="line" smooth="yes"/>
      <point x="719" y="668"/>
      <point x="706" y="655"/>
      <point x="697" y="620" type="curve" smooth="yes"/>
      <point x="638" y="401" type="line"/>
      <point x="648" y="401" type="line" smooth="yes"/>
      <point x="713" y="401"/>
      <point x="759" y="441"/>
      <point x="791" y="523" type="curve"/>
      <point x="837" y="516" type="line"/>
      <point x="747" y="181" type="line"/>
      <point x="701" y="188" type="line"/>
      <point x="705" y="218"/>
      <point x="706" y="231"/>
      <point x="706" y="249" type="curve" smooth="yes"/>
      <point x="706" y="306"/>
      <point x="676" y="347"/>
      <point x="635" y="347" type="curve" smooth="yes"/>
      <point x="624" y="347" type="line"/>
      <point x="560" y="111" type="line" smooth="yes"/>
      <point x="557" y="99"/>
      <point x="555" y="86"/>
      <point x="555" y="79" type="curve" smooth="yes"/>
      <point x="555" y="64"/>
      <point x="571" y="54"/>
      <point x="596" y="54" type="curve" smooth="yes"/>
      <point x="624" y="54" type="line" smooth="yes"/>
      <point x="673" y="54"/>
      <point x="746" y="91"/>
      <point x="795" y="141" type="curve"/>
      <point x="832" y="177"/>
      <point x="857" y="214"/>
      <point x="879" y="259" type="curve"/>
      <point x="928" y="248" type="line"/>
      <point x="862" y="0" type="line"/>
      <point x="307" y="0" type="line" smooth="yes"/>
      <point x="231" y="0"/>
      <point x="172" y="16"/>
      <point x="125" y="48" type="curve" smooth="yes"/>
      <point x="58" y="94"/>
      <point x="19" y="181"/>
      <point x="19" y="281" type="curve" smooth="yes"/>
      <point x="19" y="418"/>
      <point x="88" y="557"/>
      <point x="199" y="642" type="curve" smooth="yes"/>
      <point x="277" y="701"/>
      <point x="349" y="722"/>
      <point x="478" y="722" type="curve" smooth="yes"/>
    </contour>
    <contour>
      <point x="397" y="157" type="curve" smooth="yes"/>
      <point x="498" y="534" type="line" smooth="yes"/>
      <point x="505" y="560"/>
      <point x="509" y="589"/>
      <point x="509" y="609" type="curve" smooth="yes"/>
      <point x="509" y="648"/>
      <point x="485" y="668"/>
      <point x="440" y="668" type="curve" smooth="yes"/>
      <point x="374" y="668"/>
      <point x="327" y="633"/>
      <point x="280" y="551" type="curve" smooth="yes"/>
      <point x="225" y="453"/>
      <point x="189" y="322"/>
      <point x="189" y="218" type="curve" smooth="yes"/>
      <point x="189" y="167"/>
      <point x="197" y="130"/>
      <point x="216" y="99" type="curve" smooth="yes"/>
      <point x="235" y="67"/>
      <point x="261" y="54"/>
      <point x="304" y="54" type="curve" smooth="yes"/>
      <point x="354" y="54"/>
      <point x="375" y="78"/>
    </contour>
  </outline>
</glyph>
<glyph name="Rcommaaccent" format="1">
  <advance width="796"/>
  <unicode hex="0156"/>
  <outline>
    <contour>
      <point x="304" y="350" type="line"/>
      <point x="249" y="144" type="line" smooth="yes"/>
      <point x="241" y="112"/>
      <point x="236" y="90"/>
      <point x="236" y="81" type="curve" smooth="yes"/>
      <point x="236" y="59"/>
      <point x="250" y="54"/>
      <point x="315" y="54" type="curve" smooth="yes"/>
      <point x="341" y="54" type="line"/>
      <point x="333" y="0" type="line"/>
      <point x="-41" y="0" type="line"/>
      <point x="-34" y="54" type="line"/>
      <point x="-30" y="54" type="line" smooth="yes"/>
      <point x="12" y="54"/>
      <point x="36" y="58"/>
      <point x="46" y="68" type="curve" smooth="yes"/>
      <point x="55" y="76"/>
      <point x="55" y="76"/>
      <point x="73" y="144" type="curve" smooth="yes"/>
      <point x="189" y="578" type="line" smooth="yes"/>
      <point x="200" y="618"/>
      <point x="203" y="632"/>
      <point x="203" y="641" type="curve" smooth="yes"/>
      <point x="203" y="663"/>
      <point x="189" y="668"/>
      <point x="124" y="668" type="curve" smooth="yes"/>
      <point x="105" y="668" type="line"/>
      <point x="112" y="722" type="line"/>
      <point x="459" y="722" type="line" smooth="yes"/>
      <point x="557" y="722"/>
      <point x="623" y="712"/>
      <point x="671" y="690" type="curve" smooth="yes"/>
      <point x="719" y="668"/>
      <point x="751" y="615"/>
      <point x="751" y="555" type="curve" smooth="yes"/>
      <point x="751" y="441"/>
      <point x="653" y="374"/>
      <point x="464" y="359" type="curve"/>
      <point x="515" y="345"/>
      <point x="538" y="331"/>
      <point x="564" y="304" type="curve"/>
      <point x="592" y="273"/>
      <point x="603" y="239"/>
      <point x="603" y="181" type="curve" smooth="yes"/>
      <point x="603" y="147" type="line" smooth="yes"/>
      <point x="603" y="81"/>
      <point x="603" y="81"/>
      <point x="610" y="72" type="curve" smooth="yes"/>
      <point x="615" y="65"/>
      <point x="621" y="61"/>
      <point x="628" y="61" type="curve" smooth="yes"/>
      <point x="646" y="61"/>
      <point x="668" y="82"/>
      <point x="682" y="114" type="curve" smooth="yes"/>
      <point x="687" y="125"/>
      <point x="690" y="132"/>
      <point x="699" y="157" type="curve"/>
      <point x="742" y="136" type="line"/>
      <point x="708" y="33"/>
      <point x="652" y="-15"/>
      <point x="567" y="-15" type="curve" smooth="yes"/>
      <point x="483" y="-15"/>
      <point x="424" y="44"/>
      <point x="424" y="127" type="curve" smooth="yes"/>
      <point x="424" y="148"/>
      <point x="427" y="179"/>
      <point x="431" y="211" type="curve" smooth="yes"/>
      <point x="434" y="232"/>
      <point x="436" y="254"/>
      <point x="436" y="269" type="curve" smooth="yes"/>
      <point x="436" y="324"/>
      <point x="403" y="350"/>
      <point x="334" y="350" type="curve" smooth="yes"/>
    </contour>
    <contour>
      <point x="319" y="404" type="line"/>
      <point x="353" y="404" type="line" smooth="yes"/>
      <point x="443" y="404"/>
      <point x="469" y="409"/>
      <point x="502" y="435" type="curve"/>
      <point x="542" y="464"/>
      <point x="567" y="517"/>
      <point x="567" y="570" type="curve" smooth="yes"/>
      <point x="567" y="633"/>
      <point x="529" y="668"/>
      <point x="459" y="668" type="curve" smooth="yes"/>
      <point x="434" y="668" type="line" smooth="yes"/>
      <point x="398" y="668"/>
      <point x="388" y="661"/>
      <point x="380" y="630" type="curve" smooth="yes"/>
    </contour>
    <contour>
      <point x="185" y="-371" type="curve"/>
      <point x="166" y="-334" type="line"/>
      <point x="249" y="-297"/>
      <point x="289" y="-256"/>
      <point x="289" y="-211" type="curve"/>
      <point x="279" y="-212"/>
      <point x="273" y="-213"/>
      <point x="265" y="-213" type="curve" smooth="yes"/>
      <point x="221" y="-213"/>
      <point x="195" y="-187"/>
      <point x="195" y="-142" type="curve" smooth="yes"/>
      <point x="195" y="-94"/>
      <point x="230" y="-60"/>
      <point x="280" y="-60" type="curve" smooth="yes"/>
      <point x="336" y="-60"/>
      <point x="374" y="-102"/>
      <point x="374" y="-164" type="curve" smooth="yes"/>
      <point x="374" y="-251"/>
      <point x="308" y="-323"/>
    </contour>
  </outline>
</glyph>
<glyph name="Scedilla" format="1">
  <advance width="685"/>
  <unicode hex="015E"/>
  <outline>
    <contour>
      <point x="666" y="715" type="line"/>
      <point x="622" y="452" type="line"/>
      <point x="570" y="461" type="line"/>
      <point x="568" y="517"/>
      <point x="561" y="551"/>
      <point x="545" y="584" type="curve" smooth="yes"/>
      <point x="513" y="647"/>
      <point x="453" y="683"/>
      <point x="380" y="683" type="curve" smooth="yes"/>
      <point x="294" y="683"/>
      <point x="237" y="640"/>
      <point x="237" y="575" type="curve" smooth="yes"/>
      <point x="237" y="547"/>
      <point x="248" y="521"/>
      <point x="269" y="503" type="curve"/>
      <point x="282" y="490"/>
      <point x="308" y="478"/>
      <point x="349" y="464" type="curve" smooth="yes"/>
      <point x="422" y="440"/>
      <point x="485" y="414"/>
      <point x="522" y="392" type="curve" smooth="yes"/>
      <point x="580" y="359"/>
      <point x="612" y="299"/>
      <point x="612" y="223" type="curve" smooth="yes"/>
      <point x="612" y="82"/>
      <point x="493" y="-15"/>
      <point x="320" y="-15" type="curve" smooth="yes"/>
      <point x="315" y="-15"/>
      <point x="307" y="-15"/>
      <point x="295" y="-14" type="curve"/>
      <point x="260" y="-62" type="line"/>
      <point x="273" y="-60"/>
      <point x="286" y="-59"/>
      <point x="291" y="-59" type="curve" smooth="yes"/>
      <point x="343" y="-59"/>
      <point x="380" y="-90"/>
      <point x="380" y="-134" type="curve" smooth="yes"/>
      <point x="380" y="-186"/>
      <point x="325" y="-222"/>
      <point x="245" y="-222" type="curve" smooth="yes"/>
      <point x="202" y="-222"/>
      <point x="162" y="-212"/>
      <point x="136" y="-193" type="curve"/>
      <point x="158" y="-158" type="line"/>
      <point x="189" y="-172"/>
      <point x="208" y="-177"/>
      <point x="229" y="-177" type="curve" smooth="yes"/>
      <point x="259" y="-177"/>
      <point x="279" y="-162"/>
      <point x="279" y="-139" type="curve" smooth="yes"/>
      <point x="279" y="-119"/>
      <point x="261" y="-104"/>
      <point x="236" y="-104" type="curve" smooth="yes"/>
      <point x="229" y="-104"/>
      <point x="223" y="-105"/>
      <point x="207" y="-108" type="curve"/>
      <point x="191" y="-91" type="line"/>
      <point x="253" y="-10" type="line"/>
      <point x="198" y="-1"/>
      <point x="149" y="23"/>
      <point x="103" y="65" type="curve"/>
      <point x="45" y="0" type="line"/>
      <point x="1" y="0" type="line"/>
      <point x="51" y="283" type="line"/>
      <point x="103" y="275" type="line"/>
      <point x="103" y="260" type="line" smooth="yes"/>
      <point x="103" y="126"/>
      <point x="187" y="39"/>
      <point x="317" y="39" type="curve" smooth="yes"/>
      <point x="411" y="39"/>
      <point x="474" y="85"/>
      <point x="474" y="152" type="curve" smooth="yes"/>
      <point x="474" y="211"/>
      <point x="438" y="239"/>
      <point x="303" y="285" type="curve" smooth="yes"/>
      <point x="219" y="313"/>
      <point x="189" y="329"/>
      <point x="158" y="359" type="curve" smooth="yes"/>
      <point x="121" y="394"/>
      <point x="102" y="441"/>
      <point x="102" y="495" type="curve" smooth="yes"/>
      <point x="102" y="633"/>
      <point x="216" y="737"/>
      <point x="368" y="737" type="curve" smooth="yes"/>
      <point x="447" y="737"/>
      <point x="507" y="714"/>
      <point x="568" y="661" type="curve"/>
      <point x="621" y="715" type="line"/>
    </contour>
  </outline>
</glyph>
<glyph name="Tcommaaccent" format="1">
  <advance width="722"/>
  <unicode hex="0162"/>
  <outline>
    <contour>
      <point x="762" y="722" type="line"/>
      <point x="718" y="439" type="line"/>
      <point x="665" y="444" type="line"/>
      <point x="667" y="467"/>
      <point x="668" y="492"/>
      <point x="668" y="504" type="curve" smooth="yes"/>
      <point x="668" y="609"/>
      <point x="626" y="668"/>
      <point x="550" y="668" type="curve" smooth="yes"/>
      <point x="521" y="668"/>
      <point x="519" y="666"/>
      <point x="507" y="623" type="curve" smooth="yes"/>
      <point x="379" y="144" type="line" smooth="yes"/>
      <point x="367" y="100"/>
      <point x="365" y="90"/>
      <point x="365" y="81" type="curve" smooth="yes"/>
      <point x="365" y="59"/>
      <point x="379" y="54"/>
      <point x="445" y="54" type="curve" smooth="yes"/>
      <point x="470" y="54" type="line"/>
      <point x="463" y="0" type="line"/>
      <point x="66" y="0" type="line"/>
      <point x="73" y="54" type="line"/>
      <point x="100" y="54" type="line" smooth="yes"/>
      <point x="142" y="54"/>
      <point x="166" y="58"/>
      <point x="176" y="68" type="curve" smooth="yes"/>
      <point x="185" y="76"/>
      <point x="185" y="76"/>
      <point x="203" y="144" type="curve" smooth="yes"/>
      <point x="333" y="629" type="line" smooth="yes"/>
      <point x="336" y="639"/>
      <point x="337" y="648"/>
      <point x="337" y="653" type="curve" smooth="yes"/>
      <point x="337" y="663"/>
      <point x="327" y="668"/>
      <point x="309" y="668" type="curve" smooth="yes"/>
      <point x="224" y="668"/>
      <point x="163" y="603"/>
      <point x="94" y="439" type="curve"/>
      <point x="44" y="455" type="line"/>
      <point x="115" y="722" type="line"/>
    </contour>
    <contour>
      <point x="148" y="-371" type="curve"/>
      <point x="129" y="-334" type="line"/>
      <point x="212" y="-297"/>
      <point x="252" y="-256"/>
      <point x="252" y="-211" type="curve"/>
      <point x="242" y="-212"/>
      <point x="236" y="-213"/>
      <point x="228" y="-213" type="curve" smooth="yes"/>
      <point x="184" y="-213"/>
      <point x="158" y="-187"/>
      <point x="158" y="-142" type="curve" smooth="yes"/>
      <point x="158" y="-94"/>
      <point x="193" y="-60"/>
      <point x="243" y="-60" type="curve" smooth="yes"/>
      <point x="299" y="-60"/>
      <point x="337" y="-102"/>
      <point x="337" y="-164" type="curve" smooth="yes"/>
      <point x="337" y="-251"/>
      <point x="271" y="-323"/>
    </contour>
  </outline>
</glyph>
<glyph name="tcommaaccent" format="1">
  <advance width="407"/>
  <unicode hex="0163"/>
  <outline>
    <contour>
      <point x="300" y="183" type="curve"/>
      <point x="337" y="156" type="line"/>
      <point x="300" y="100"/>
      <point x="290" y="86"/>
      <point x="269" y="64" type="curve" smooth="yes"/>
      <point x="221" y="12"/>
      <point x="171" y="-14"/>
      <point x="119" y="-14" type="curve" smooth="yes"/>
      <point x="66" y="-14"/>
      <point x="24" y="23"/>
      <point x="24" y="69" type="curve" smooth="yes"/>
      <point x="24" y="89"/>
      <point x="29" y="116"/>
      <point x="39" y="146" type="curve" smooth="yes"/>
      <point x="43" y="160"/>
      <point x="47" y="172"/>
      <point x="50" y="183" type="curve" smooth="yes"/>
      <point x="115" y="403" type="line"/>
      <point x="28" y="403" type="line"/>
      <point x="46" y="464" type="line"/>
      <point x="133" y="464" type="line"/>
      <point x="188" y="650" type="line"/>
      <point x="346" y="650" type="line"/>
      <point x="290" y="464" type="line"/>
      <point x="404" y="464" type="line"/>
      <point x="386" y="403" type="line"/>
      <point x="272" y="403" type="line"/>
      <point x="202" y="167" type="line" smooth="yes"/>
      <point x="188" y="118"/>
      <point x="181" y="91"/>
      <point x="181" y="84" type="curve" smooth="yes"/>
      <point x="181" y="75"/>
      <point x="188" y="66"/>
      <point x="196" y="66" type="curve" smooth="yes"/>
      <point x="216" y="66"/>
      <point x="263" y="118"/>
    </contour>
    <contour>
      <point x="-43" y="-371" type="curve"/>
      <point x="-62" y="-334" type="line"/>
      <point x="21" y="-297"/>
      <point x="61" y="-256"/>
      <point x="61" y="-211" type="curve"/>
      <point x="51" y="-212"/>
      <point x="45" y="-213"/>
      <point x="37" y="-213" type="curve" smooth="yes"/>
      <point x="-7" y="-213"/>
      <point x="-33" y="-187"/>
      <point x="-33" y="-142" type="curve" smooth="yes"/>
      <point x="-33" y="-94"/>
      <point x="2" y="-60"/>
      <point x="52" y="-60" type="curve" smooth="yes"/>
      <point x="108" y="-60"/>
      <point x="146" y="-102"/>
      <point x="146" y="-164" type="curve" smooth="yes"/>
      <point x="146" y="-251"/>
      <point x="80" y="-323"/>
    </contour>
  </outline>
</glyph>
<glyph name="tcaron" format="1">
  <advance width="483"/>
  <unicode hex="0165"/>
  <outline>
    <contour>
      <point x="300" y="183" type="curve"/>
      <point x="337" y="156" type="line"/>
      <point x="299" y="98"/>
      <point x="289" y="86"/>
      <point x="269" y="64" type="curve" smooth="yes"/>
      <point x="220" y="12"/>
      <point x="170" y="-14"/>
      <point x="119" y="-14" type="curve" smooth="yes"/>
      <point x="66" y="-14"/>
      <point x="24" y="23"/>
      <point x="24" y="69" type="curve" smooth="yes"/>
      <point x="24" y="88"/>
      <point x="29" y="116"/>
      <point x="38" y="146" type="curve" smooth="yes"/>
      <point x="41" y="155"/>
      <point x="45" y="168"/>
      <point x="49" y="183" type="curve" smooth="yes"/>
      <point x="114" y="403" type="line"/>
      <point x="27" y="403" type="line"/>
      <point x="45" y="464" type="line"/>
      <point x="132" y="464" type="line"/>
      <point x="188" y="650" type="line"/>
      <point x="345" y="650" type="line"/>
      <point x="290" y="464" type="line"/>
      <point x="367" y="464" type="line"/>
      <point x="426" y="494"/>
      <point x="460" y="534"/>
      <point x="459" y="572" type="curve"/>
      <point x="448" y="570"/>
      <point x="442" y="569"/>
      <point x="434" y="569" type="curve" smooth="yes"/>
      <point x="390" y="569"/>
      <point x="364" y="595"/>
      <point x="364" y="640" type="curve" smooth="yes"/>
      <point x="364" y="688"/>
      <point x="399" y="722"/>
      <point x="449" y="722" type="curve" smooth="yes"/>
      <point x="505" y="722"/>
      <point x="543" y="680"/>
      <point x="543" y="618" type="curve" smooth="yes"/>
      <point x="543" y="541"/>
      <point x="493" y="478"/>
      <point x="394" y="429" type="curve"/>
      <point x="386" y="403" type="line"/>
      <point x="272" y="403" type="line"/>
      <point x="202" y="167" type="line" smooth="yes"/>
      <point x="190" y="126"/>
      <point x="181" y="91"/>
      <point x="181" y="84" type="curve" smooth="yes"/>
      <point x="181" y="75"/>
      <point x="188" y="66"/>
      <point x="196" y="66" type="curve" smooth="yes"/>
      <point x="216" y="66"/>
      <point x="262" y="117"/>
    </contour>
  </outline>
</glyph>
<glyph name="Zacute" format="1">
  <advance width="704"/>
  <unicode hex="0179"/>
  <outline>
    <contour>
      <point x="715" y="722" type="line"/>
      <point x="707" y="668" type="line"/>
      <point x="197" y="54" type="line"/>
      <point x="288" y="54" type="line" smooth="yes"/>
      <point x="432" y="54"/>
      <point x="522" y="117"/>
      <point x="601" y="273" type="curve"/>
      <point x="652" y="260" type="line"/>
      <point x="582" y="0" type="line"/>
      <point x="-29" y="0" type="line"/>
      <point x="-21" y="54" type="line"/>
      <point x="486" y="668" type="line"/>
      <point x="407" y="668" type="line" smooth="yes"/>
      <point x="278" y="668"/>
      <point x="196" y="612"/>
      <point x="117" y="468" type="curve"/>
      <point x="68" y="478" type="line"/>
      <point x="134" y="722" type="line"/>
    </contour>
    <contour>
      <point x="375" y="774" type="line"/>
      <point x="499" y="913" type="line" smooth="yes"/>
      <point x="532" y="949"/>
      <point x="545" y="958"/>
      <point x="569" y="958" type="curve" smooth="yes"/>
      <point x="599" y="958"/>
      <point x="623" y="935"/>
      <point x="623" y="906" type="curve" smooth="yes"/>
      <point x="623" y="888"/>
      <point x="613" y="872"/>
      <point x="595" y="862" type="curve" smooth="yes"/>
      <point x="429" y="774" type="line"/>
    </contour>
  </outline>
</glyph>
<glyph name="Zcaron" format="1">
  <advance width="704"/>
  <unicode hex="017D"/>
  <outline>
    <contour>
      <point x="715" y="722" type="line"/>
      <point x="707" y="668" type="line"/>
      <point x="197" y="54" type="line"/>
      <point x="288" y="54" type="line" smooth="yes"/>
      <point x="432" y="54"/>
      <point x="522" y="117"/>
      <point x="601" y="273" type="curve"/>
      <point x="652" y="260" type="line"/>
      <point x="582" y="0" type="line"/>
      <point x="-29" y="0" type="line"/>
      <point x="-21" y="54" type="line"/>
      <point x="486" y="668" type="line"/>
      <point x="407" y="668" type="line" smooth="yes"/>
      <point x="278" y="668"/>
      <point x="196" y="612"/>
      <point x="117" y="468" type="curve"/>
      <point x="68" y="478" type="line"/>
      <point x="134" y="722" type="line"/>
    </contour>
    <contour>
      <point x="632" y="950" type="line"/>
      <point x="475" y="774" type="line"/>
      <point x="373" y="774" type="line"/>
      <point x="289" y="950" type="line"/>
      <point x="348" y="950" type="line"/>
      <point x="438" y="862" type="line"/>
      <point x="564" y="950" type="line"/>
    </contour>
  </outline>
</glyph>
<glyph name="longs" format="1">
  <advance width="389"/>
  <unicode hex="017F"/>
  <outline>
    <contour>
      <point x="234" y="189" type="curve"/>
      <point x="204" y="48"/>
      <point x="168" y="-83"/>
      <point x="133" y="-179" type="curve"/>
      <point x="-48" y="-205" type="line"/>
      <point x="-20" y="-161"/>
      <point x="21" y="-42"/>
      <point x="69" y="133" type="curve"/>
      <point x="133" y="403" type="line"/>
      <point x="34" y="403" type="line"/>
      <point x="51" y="464" type="line"/>
      <point x="149" y="464" type="line"/>
      <point x="176" y="561"/>
      <point x="201" y="614"/>
      <point x="241" y="658" type="curve" smooth="yes"/>
      <point x="291" y="712"/>
      <point x="346" y="737"/>
      <point x="413" y="737" type="curve" smooth="yes"/>
      <point x="493" y="737"/>
      <point x="550" y="691"/>
      <point x="550" y="627" type="curve" smooth="yes"/>
      <point x="550" y="581"/>
      <point x="517" y="548"/>
      <point x="472" y="548" type="curve" smooth="yes"/>
      <point x="433" y="548"/>
      <point x="404" y="576"/>
      <point x="404" y="614" type="curve" smooth="yes"/>
      <point x="404" y="634"/>
      <point x="408" y="645"/>
      <point x="428" y="671" type="curve" smooth="yes"/>
      <point x="431" y="674"/>
      <point x="433" y="678"/>
      <point x="433" y="680" type="curve" smooth="yes"/>
      <point x="433" y="686"/>
      <point x="423" y="690"/>
      <point x="411" y="690" type="curve" smooth="yes"/>
      <point x="363" y="690"/>
      <point x="341" y="651"/>
      <point x="305" y="505" type="curve" smooth="yes"/>
      <point x="279" y="402"/>
      <point x="258" y="294"/>
    </contour>
  </outline>
</glyph>
<glyph name="caron" format="1">
  <advance width="333"/>
  <unicode hex="02C7"/>
  <outline>
    <contour>
      <point x="403" y="711" type="line"/>
      <point x="246" y="535" type="line"/>
      <point x="144" y="535" type="line"/>
      <point x="60" y="711" type="line"/>
      <point x="119" y="711" type="line"/>
      <point x="209" y="623" type="line"/>
      <point x="335" y="711" type="line"/>
    </contour>
  </outline>
</glyph>
<glyph name="breve" format="1">
  <advance width="333"/>
  <unicode hex="02D8"/>
  <outline>
    <contour>
      <point x="69" y="701" type="curve"/>
      <point x="115" y="701" type="line"/>
      <point x="120" y="641"/>
      <point x="150" y="616"/>
      <point x="216" y="616" type="curve" smooth="yes"/>
      <point x="278" y="616"/>
      <point x="330" y="650"/>
      <point x="343" y="701" type="curve"/>
      <point x="390" y="701" type="line"/>
      <point x="387" y="665"/>
      <point x="373" y="629"/>
      <point x="348" y="599" type="curve" smooth="yes"/>
      <point x="313" y="557"/>
      <point x="267" y="537"/>
      <point x="206" y="537" type="curve" smooth="yes"/>
      <point x="118" y="537"/>
      <point x="67" y="586"/>
      <point x="67" y="672" type="curve" smooth="yes"/>
      <point x="67" y="678"/>
      <point x="68" y="688"/>
    </contour>
  </outline>
</glyph>
<glyph name="mu" format="1">
  <advance width="685"/>
  <unicode hex="03BC"/>
  <outline>
    <contour>
      <point x="39" y="417" type="line"/>
      <point x="46" y="464" type="line"/>
      <point x="299" y="478" type="line"/>
      <point x="209" y="174" type="line" smooth="yes"/>
      <point x="206" y="165"/>
      <point x="202" y="150"/>
      <point x="197" y="133" type="curve" smooth="yes"/>
      <point x="195" y="125"/>
      <point x="193" y="118"/>
      <point x="190" y="109" type="curve" smooth="yes"/>
      <point x="189" y="103"/>
      <point x="188" y="98"/>
      <point x="188" y="95" type="curve" smooth="yes"/>
      <point x="188" y="82"/>
      <point x="200" y="70"/>
      <point x="212" y="70" type="curve" smooth="yes"/>
      <point x="239" y="70"/>
      <point x="287" y="108"/>
      <point x="323" y="159" type="curve" smooth="yes"/>
      <point x="353" y="200"/>
      <point x="375" y="247"/>
      <point x="391" y="299" type="curve" smooth="yes"/>
      <point x="439" y="464" type="line"/>
      <point x="597" y="464" type="line"/>
      <point x="504" y="152" type="line" smooth="yes"/>
      <point x="488" y="96"/>
      <point x="488" y="96"/>
      <point x="488" y="85" type="curve" smooth="yes"/>
      <point x="488" y="78"/>
      <point x="495" y="71"/>
      <point x="502" y="71" type="curve" smooth="yes"/>
      <point x="519" y="71"/>
      <point x="558" y="114"/>
      <point x="601" y="180" type="curve"/>
      <point x="639" y="152" type="line"/>
      <point x="561" y="31"/>
      <point x="503" y="-14"/>
      <point x="427" y="-14" type="curve" smooth="yes"/>
      <point x="364" y="-14"/>
      <point x="330" y="15"/>
      <point x="330" y="70" type="curve" smooth="yes"/>
      <point x="330" y="80"/>
      <point x="330" y="87"/>
      <point x="331" y="97" type="curve"/>
      <point x="266" y="19"/>
      <point x="212" y="-14"/>
      <point x="148" y="-14" type="curve" smooth="yes"/>
      <point x="115" y="-14"/>
      <point x="89" y="-2"/>
      <point x="68" y="23" type="curve"/>
      <point x="62" y="5"/>
      <point x="60" y="-9"/>
      <point x="60" y="-21" type="curve" smooth="yes"/>
      <point x="60" y="-28"/>
      <point x="61" y="-38"/>
      <point x="63" y="-53" type="curve" smooth="yes"/>
      <point x="67" y="-82"/>
      <point x="69" y="-103"/>
      <point x="69" y="-117" type="curve" smooth="yes"/>
      <point x="69" y="-172"/>
      <point x="23" y="-219"/>
      <point x="-32" y="-219" type="curve" smooth="yes"/>
      <point x="-66" y="-219"/>
      <point x="-90" y="-199"/>
      <point x="-90" y="-171" type="curve" smooth="yes"/>
      <point x="-90" y="-143"/>
      <point x="-83" y="-128"/>
      <point x="-34" y="-56" type="curve" smooth="yes"/>
      <point x="-12" y="-25"/>
      <point x="0" y="-1"/>
      <point x="6" y="20" type="curve" smooth="yes"/>
      <point x="94" y="319" type="line" smooth="yes"/>
      <point x="106" y="357"/>
      <point x="110" y="376"/>
      <point x="110" y="386" type="curve" smooth="yes"/>
      <point x="110" y="397"/>
      <point x="104" y="409"/>
      <point x="96" y="412" type="curve" smooth="yes"/>
      <point x="88" y="416"/>
      <point x="76" y="417"/>
      <point x="49" y="417" type="curve" smooth="yes"/>
    </contour>
  </outline>
</glyph>
<glyph name="afii10023" format="1">
  <advance width="741"/>
  <unicode hex="0401"/>
  <outline>
    <contour>
      <point x="353" y="940" type="curve" smooth="yes"/>
      <point x="392" y="940"/>
      <point x="424" y="908"/>
      <point x="424" y="869" type="curve" smooth="yes"/>
      <point x="424" y="829"/>
      <point x="392" y="797"/>
      <point x="352" y="797" type="curve" smooth="yes"/>
      <point x="313" y="797"/>
      <point x="281" y="830"/>
      <point x="281" y="869" type="curve" smooth="yes"/>
      <point x="281" y="908"/>
      <point x="313" y="940"/>
    </contour>
    <contour>
      <point x="568" y="940" type="curve" smooth="yes"/>
      <point x="607" y="940"/>
      <point x="639" y="908"/>
      <point x="639" y="869" type="curve" smooth="yes"/>
      <point x="639" y="829"/>
      <point x="607" y="797"/>
      <point x="567" y="797" type="curve" smooth="yes"/>
      <point x="528" y="797"/>
      <point x="496" y="830"/>
      <point x="496" y="869" type="curve" smooth="yes"/>
      <point x="496" y="908"/>
      <point x="528" y="940"/>
    </contour>
    <contour>
      <point x="728" y="722" type="line"/>
      <point x="688" y="477" type="line"/>
      <point x="636" y="477" type="line"/>
      <point x="635" y="540"/>
      <point x="629" y="577"/>
      <point x="615" y="604" type="curve"/>
      <point x="595" y="646"/>
      <point x="548" y="668"/>
      <point x="478" y="668" type="curve" smooth="yes"/>
      <point x="440" y="668" type="line" smooth="yes"/>
      <point x="399" y="668"/>
      <point x="388" y="659"/>
      <point x="377" y="620" type="curve" smooth="yes"/>
      <point x="318" y="401" type="line"/>
      <point x="339" y="401" type="line" smooth="yes"/>
      <point x="426" y="401"/>
      <point x="471" y="434"/>
      <point x="505" y="523" type="curve"/>
      <point x="559" y="523" type="line"/>
      <point x="470" y="187" type="line"/>
      <point x="415" y="188" type="line"/>
      <point x="419" y="218"/>
      <point x="420" y="232"/>
      <point x="420" y="250" type="curve" smooth="yes"/>
      <point x="420" y="315"/>
      <point x="389" y="347"/>
      <point x="326" y="347" type="curve" smooth="yes"/>
      <point x="304" y="347" type="line"/>
      <point x="241" y="111" type="line" smooth="yes"/>
      <point x="237" y="98"/>
      <point x="235" y="85"/>
      <point x="235" y="79" type="curve" smooth="yes"/>
      <point x="235" y="61"/>
      <point x="251" y="54"/>
      <point x="289" y="54" type="curve" smooth="yes"/>
      <point x="325" y="54" type="line" smooth="yes"/>
      <point x="405" y="54"/>
      <point x="463" y="79"/>
      <point x="528" y="141" type="curve" smooth="yes"/>
      <point x="566" y="177"/>
      <point x="588" y="203"/>
      <point x="611" y="249" type="curve"/>
      <point x="668" y="248" type="line"/>
      <point x="602" y="0" type="line"/>
      <point x="-41" y="0" type="line"/>
      <point x="-34" y="54" type="line"/>
      <point x="-30" y="54" type="line" smooth="yes"/>
      <point x="39" y="54"/>
      <point x="51" y="60"/>
      <point x="62" y="102" type="curve" smooth="yes"/>
      <point x="190" y="578" type="line" smooth="yes"/>
      <point x="199" y="613"/>
      <point x="203" y="632"/>
      <point x="203" y="641" type="curve" smooth="yes"/>
      <point x="203" y="663"/>
      <point x="189" y="668"/>
      <point x="124" y="668" type="curve" smooth="yes"/>
      <point x="105" y="668" type="line"/>
      <point x="113" y="722" type="line"/>
    </contour>
  </outline>
</glyph>
<glyph name="afii10051" format="1">
  <advance width="912"/>
  <unicode hex="0402"/>
  <outline>
    <contour>
      <point x="331" y="577" type="line" smooth="yes"/>
      <point x="341" y="614"/>
      <point x="346" y="637"/>
      <point x="346" y="646" type="curve" smooth="yes"/>
      <point x="346" y="655"/>
      <point x="337" y="669"/>
      <point x="311" y="669" type="curve" smooth="yes"/>
      <point x="189" y="669"/>
      <point x="132" y="532"/>
      <point x="111" y="500" type="curve"/>
      <point x="60" y="500" type="line"/>
      <point x="127" y="720" type="line"/>
      <point x="787" y="720" type="line"/>
      <point x="739" y="500" type="line"/>
      <point x="687" y="500" type="line"/>
      <point x="689" y="511"/>
      <point x="689" y="518"/>
      <point x="689" y="528" type="curve" smooth="yes"/>
      <point x="689" y="626"/>
      <point x="625" y="670"/>
      <point x="577" y="670" type="curve" smooth="yes"/>
      <point x="553" y="670"/>
      <point x="531" y="655"/>
      <point x="523" y="624" type="curve" smooth="yes"/>
      <point x="467" y="417" type="line"/>
      <point x="513" y="463"/>
      <point x="567" y="486"/>
      <point x="636" y="486" type="curve" smooth="yes"/>
      <point x="772" y="486"/>
      <point x="873" y="445"/>
      <point x="873" y="369" type="curve" smooth="yes"/>
      <point x="873" y="67"/>
      <point x="628" y="-175"/>
      <point x="457" y="-175" type="curve" smooth="yes"/>
      <point x="447" y="-175"/>
      <point x="437" y="-175"/>
      <point x="426" y="-174" type="curve"/>
      <point x="441" y="-120" type="line"/>
      <point x="567" y="-120"/>
      <point x="690" y="198"/>
      <point x="690" y="351" type="curve" smooth="yes"/>
      <point x="690" y="390"/>
      <point x="645" y="426"/>
      <point x="597" y="426" type="curve" smooth="yes"/>
      <point x="548" y="426"/>
      <point x="457" y="382"/>
      <point x="444" y="332" type="curve" smooth="yes"/>
      <point x="395" y="144" type="line" smooth="yes"/>
      <point x="385" y="106"/>
      <point x="379" y="83"/>
      <point x="379" y="73" type="curve" smooth="yes"/>
      <point x="379" y="57"/>
      <point x="412" y="53"/>
      <point x="455" y="53" type="curve" smooth="yes"/>
      <point x="474" y="53" type="line"/>
      <point x="460" y="-1" type="line"/>
      <point x="71" y="-1" type="line"/>
      <point x="85" y="53" type="line"/>
      <point x="100" y="53" type="line" smooth="yes"/>
      <point x="148" y="53"/>
      <point x="177" y="58"/>
      <point x="187" y="68" type="curve" smooth="yes"/>
      <point x="193" y="73"/>
      <point x="200" y="88"/>
      <point x="206" y="111" type="curve" smooth="yes"/>
    </contour>
  </outline>
</glyph>
<glyph name="afii10053" format="1">
  <advance width="810"/>
  <unicode hex="0404"/>
  <outline>
    <contour>
      <point x="262" y="399" type="curve"/>
      <point x="523" y="399" type="line"/>
      <point x="507" y="339" type="line"/>
      <point x="246" y="339" type="line"/>
      <point x="233" y="285"/>
      <point x="227" y="239"/>
      <point x="227" y="200" type="curve" smooth="yes"/>
      <point x="227" y="96"/>
      <point x="273" y="47"/>
      <point x="368" y="47" type="curve" smooth="yes"/>
      <point x="483" y="47"/>
      <point x="584" y="126"/>
      <point x="648" y="265" type="curve"/>
      <point x="706" y="250" type="line"/>
      <point x="620" y="71"/>
      <point x="495" y="-15"/>
      <point x="318" y="-15" type="curve" smooth="yes"/>
      <point x="139" y="-15"/>
      <point x="35" y="83"/>
      <point x="35" y="242" type="curve" smooth="yes"/>
      <point x="35" y="511"/>
      <point x="293" y="737"/>
      <point x="532" y="737" type="curve" smooth="yes"/>
      <point x="603" y="737"/>
      <point x="645" y="724"/>
      <point x="701" y="684" type="curve"/>
      <point x="768" y="733" type="line"/>
      <point x="811" y="733" type="line"/>
      <point x="744" y="447" type="line"/>
      <point x="689" y="441" type="line"/>
      <point x="689" y="608"/>
      <point x="637" y="685"/>
      <point x="526" y="685" type="curve" smooth="yes"/>
      <point x="409" y="685"/>
      <point x="318" y="587"/>
    </contour>
  </outline>
</glyph>
<glyph name="afii10055" format="1">
  <advance width="444"/>
  <unicode hex="0406"/>
  <outline>
    <contour>
      <point x="332" y="0" type="line"/>
      <point x="-41" y="0" type="line"/>
      <point x="-34" y="54" type="line"/>
      <point x="-27" y="54" type="line" smooth="yes"/>
      <point x="15" y="54"/>
      <point x="35" y="61"/>
      <point x="45" y="71" type="curve" smooth="yes"/>
      <point x="54" y="79"/>
      <point x="58" y="76"/>
      <point x="76" y="144" type="curve" smooth="yes"/>
      <point x="192" y="578" type="line" smooth="yes"/>
      <point x="202" y="612"/>
      <point x="206" y="632"/>
      <point x="206" y="641" type="curve" smooth="yes"/>
      <point x="206" y="663"/>
      <point x="192" y="668"/>
      <point x="127" y="668" type="curve" smooth="yes"/>
      <point x="105" y="668" type="line"/>
      <point x="113" y="722" type="line"/>
      <point x="486" y="722" type="line"/>
      <point x="479" y="668" type="line"/>
      <point x="472" y="668" type="line" smooth="yes"/>
      <point x="430" y="668"/>
      <point x="406" y="664"/>
      <point x="396" y="654" type="curve"/>
      <point x="387" y="647"/>
      <point x="387" y="647"/>
      <point x="369" y="578" type="curve" smooth="yes"/>
      <point x="253" y="144" type="line" smooth="yes"/>
      <point x="239" y="89"/>
      <point x="239" y="89"/>
      <point x="239" y="81" type="curve" smooth="yes"/>
      <point x="239" y="59"/>
      <point x="253" y="54"/>
      <point x="318" y="54" type="curve" smooth="yes"/>
      <point x="340" y="54" type="line"/>
    </contour>
  </outline>
</glyph>
<glyph name="afii10058" format="1">
  <advance width="1226"/>
  <unicode hex="0409"/>
  <outline>
    <contour>
      <point x="433" y="0" type="line"/>
      <point x="449" y="54" type="line"/>
      <point x="464" y="54" type="line" smooth="yes"/>
      <point x="516" y="54"/>
      <point x="533" y="58"/>
      <point x="545" y="69" type="curve" smooth="yes"/>
      <point x="554" y="77"/>
      <point x="560" y="81"/>
      <point x="577" y="144" type="curve" smooth="yes"/>
      <point x="716" y="662" type="line"/>
      <point x="600" y="662" type="line" smooth="yes"/>
      <point x="563" y="662"/>
      <point x="537" y="638"/>
      <point x="519" y="578" type="curve"/>
      <point x="451" y="324" type="line" smooth="yes"/>
      <point x="387" y="84"/>
      <point x="251" y="-16"/>
      <point x="107" y="-16" type="curve" smooth="yes"/>
      <point x="27" y="-16"/>
      <point x="-12" y="33"/>
      <point x="-12" y="94" type="curve" smooth="yes"/>
      <point x="-12" y="179"/>
      <point x="35" y="238"/>
      <point x="107" y="238" type="curve" smooth="yes"/>
      <point x="163" y="238"/>
      <point x="189" y="212"/>
      <point x="189" y="178" type="curve" smooth="yes"/>
      <point x="189" y="93"/>
      <point x="119" y="119"/>
      <point x="119" y="78" type="curve" smooth="yes"/>
      <point x="119" y="63"/>
      <point x="125" y="54"/>
      <point x="150" y="54" type="curve" smooth="yes"/>
      <point x="238" y="54"/>
      <point x="308" y="208"/>
      <point x="338" y="320" type="curve" smooth="yes"/>
      <point x="406" y="577" type="line" smooth="yes"/>
      <point x="414" y="607"/>
      <point x="417" y="624"/>
      <point x="417" y="634" type="curve" smooth="yes"/>
      <point x="417" y="662"/>
      <point x="393" y="668"/>
      <point x="333" y="668" type="curve" smooth="yes"/>
      <point x="318" y="668" type="line"/>
      <point x="332" y="722" type="line"/>
      <point x="1022" y="722" type="line"/>
      <point x="1008" y="668" type="line"/>
      <point x="986" y="668" type="line" smooth="yes"/>
      <point x="933" y="668"/>
      <point x="911" y="664"/>
      <point x="899" y="654" type="curve"/>
      <point x="890" y="645"/>
      <point x="889" y="642"/>
      <point x="872" y="578" type="curve" smooth="yes"/>
      <point x="827" y="412" type="line"/>
      <point x="939" y="412" type="line" smooth="yes"/>
      <point x="1117" y="412"/>
      <point x="1206" y="361"/>
      <point x="1206" y="259" type="curve" smooth="yes"/>
      <point x="1206" y="156"/>
      <point x="1133" y="69"/>
      <point x="1052" y="35" type="curve" smooth="yes"/>
      <point x="992" y="10"/>
      <point x="930" y="0"/>
      <point x="830" y="0" type="curve" smooth="yes"/>
    </contour>
    <contour>
      <point x="813" y="357" type="line"/>
      <point x="748" y="115" type="line" smooth="yes"/>
      <point x="744" y="101"/>
      <point x="742" y="90"/>
      <point x="742" y="81" type="curve" smooth="yes"/>
      <point x="742" y="61"/>
      <point x="755" y="55"/>
      <point x="787" y="55" type="curve" smooth="yes"/>
      <point x="827" y="55" type="line" smooth="yes"/>
      <point x="946" y="55"/>
      <point x="1015" y="142"/>
      <point x="1015" y="266" type="curve" smooth="yes"/>
      <point x="1015" y="331"/>
      <point x="972" y="357"/>
      <point x="871" y="357" type="curve" smooth="yes"/>
    </contour>
  </outline>
</glyph>
<glyph name="afii10059" format="1">
  <advance width="1156"/>
  <unicode hex="040A"/>
  <outline>
    <contour>
      <point x="381" y="0" type="line"/>
      <point x="390" y="54" type="line"/>
      <point x="402" y="54" type="line" smooth="yes"/>
      <point x="444" y="54"/>
      <point x="464" y="59"/>
      <point x="474" y="69" type="curve" smooth="yes"/>
      <point x="483" y="77"/>
      <point x="487" y="76"/>
      <point x="505" y="144" type="curve" smooth="yes"/>
      <point x="563" y="357" type="line"/>
      <point x="307" y="357" type="line"/>
      <point x="250" y="144" type="line" smooth="yes"/>
      <point x="240" y="110"/>
      <point x="236" y="89"/>
      <point x="236" y="81" type="curve" smooth="yes"/>
      <point x="236" y="59"/>
      <point x="250" y="54"/>
      <point x="315" y="54" type="curve" smooth="yes"/>
      <point x="326" y="54" type="line"/>
      <point x="318" y="0" type="line"/>
      <point x="-41" y="0" type="line"/>
      <point x="-34" y="54" type="line"/>
      <point x="-30" y="54" type="line" smooth="yes"/>
      <point x="39" y="54"/>
      <point x="51" y="60"/>
      <point x="62" y="102" type="curve" smooth="yes"/>
      <point x="190" y="578" type="line" smooth="yes"/>
      <point x="199" y="612"/>
      <point x="203" y="632"/>
      <point x="203" y="641" type="curve" smooth="yes"/>
      <point x="203" y="663"/>
      <point x="189" y="668"/>
      <point x="124" y="668" type="curve" smooth="yes"/>
      <point x="105" y="668" type="line"/>
      <point x="113" y="722" type="line"/>
      <point x="488" y="722" type="line"/>
      <point x="481" y="668" type="line"/>
      <point x="469" y="668" type="line" smooth="yes"/>
      <point x="427" y="668"/>
      <point x="403" y="664"/>
      <point x="393" y="654" type="curve"/>
      <point x="384" y="647"/>
      <point x="384" y="647"/>
      <point x="366" y="578" type="curve" smooth="yes"/>
      <point x="322" y="412" type="line"/>
      <point x="578" y="412" type="line"/>
      <point x="622" y="578" type="line" smooth="yes"/>
      <point x="631" y="613"/>
      <point x="635" y="632"/>
      <point x="635" y="641" type="curve" smooth="yes"/>
      <point x="635" y="663"/>
      <point x="621" y="668"/>
      <point x="556" y="668" type="curve" smooth="yes"/>
      <point x="545" y="668" type="line"/>
      <point x="553" y="722" type="line"/>
      <point x="932" y="722" type="line"/>
      <point x="918" y="668" type="line"/>
      <point x="896" y="668" type="line" smooth="yes"/>
      <point x="843" y="668"/>
      <point x="841" y="664"/>
      <point x="829" y="654" type="curve"/>
      <point x="820" y="645"/>
      <point x="820" y="641"/>
      <point x="803" y="578" type="curve" smooth="yes"/>
      <point x="758" y="412" type="line"/>
      <point x="869" y="412" type="line" smooth="yes"/>
      <point x="1047" y="412"/>
      <point x="1136" y="361"/>
      <point x="1136" y="259" type="curve" smooth="yes"/>
      <point x="1136" y="156"/>
      <point x="1063" y="69"/>
      <point x="982" y="35" type="curve" smooth="yes"/>
      <point x="922" y="10"/>
      <point x="860" y="0"/>
      <point x="760" y="0" type="curve" smooth="yes"/>
    </contour>
    <contour>
      <point x="743" y="357" type="line"/>
      <point x="678" y="115" type="line" smooth="yes"/>
      <point x="674" y="101"/>
      <point x="672" y="90"/>
      <point x="672" y="81" type="curve" smooth="yes"/>
      <point x="672" y="61"/>
      <point x="685" y="55"/>
      <point x="717" y="55" type="curve" smooth="yes"/>
      <point x="757" y="55" type="line" smooth="yes"/>
      <point x="876" y="55"/>
      <point x="945" y="142"/>
      <point x="945" y="266" type="curve" smooth="yes"/>
      <point x="945" y="331"/>
      <point x="902" y="357"/>
      <point x="801" y="357" type="curve" smooth="yes"/>
    </contour>
  </outline>
</glyph>
<glyph name="afii10060" format="1">
  <advance width="951"/>
  <unicode hex="040B"/>
  <outline>
    <contour>
      <point x="524" y="624" type="curve" smooth="yes"/>
      <point x="468" y="417" type="line"/>
      <point x="514" y="463"/>
      <point x="570" y="486"/>
      <point x="637" y="486" type="curve" smooth="yes"/>
      <point x="745" y="486"/>
      <point x="818" y="463"/>
      <point x="853" y="422" type="curve" smooth="yes"/>
      <point x="867" y="407"/>
      <point x="873" y="389"/>
      <point x="873" y="369" type="curve" smooth="yes"/>
      <point x="873" y="359"/>
      <point x="872" y="349"/>
      <point x="869" y="339" type="curve" smooth="yes"/>
      <point x="817" y="144" type="line" smooth="yes"/>
      <point x="807" y="107"/>
      <point x="802" y="83"/>
      <point x="802" y="74" type="curve" smooth="yes"/>
      <point x="802" y="57"/>
      <point x="841" y="53"/>
      <point x="882" y="53" type="curve" smooth="yes"/>
      <point x="897" y="53" type="line"/>
      <point x="882" y="-1" type="line"/>
      <point x="493" y="-1" type="line"/>
      <point x="508" y="53" type="line"/>
      <point x="523" y="53" type="line" smooth="yes"/>
      <point x="570" y="53"/>
      <point x="599" y="58"/>
      <point x="610" y="68" type="curve" smooth="yes"/>
      <point x="616" y="73"/>
      <point x="622" y="88"/>
      <point x="628" y="111" type="curve" smooth="yes"/>
      <point x="689" y="338" type="line" smooth="yes"/>
      <point x="690" y="342"/>
      <point x="690" y="347"/>
      <point x="690" y="351" type="curve" smooth="yes"/>
      <point x="690" y="391"/>
      <point x="646" y="426"/>
      <point x="600" y="426" type="curve" smooth="yes"/>
      <point x="549" y="426"/>
      <point x="518" y="410"/>
      <point x="466" y="365" type="curve" smooth="yes"/>
      <point x="461" y="360"/>
      <point x="455" y="355"/>
      <point x="450" y="350" type="curve"/>
      <point x="395" y="144" type="line" smooth="yes"/>
      <point x="385" y="106"/>
      <point x="380" y="83"/>
      <point x="380" y="73" type="curve" smooth="yes"/>
      <point x="380" y="59"/>
      <point x="408" y="53"/>
      <point x="456" y="53" type="curve" smooth="yes"/>
      <point x="475" y="53" type="line"/>
      <point x="460" y="-1" type="line"/>
      <point x="71" y="-1" type="line"/>
      <point x="86" y="53" type="line"/>
      <point x="101" y="53" type="line" smooth="yes"/>
      <point x="148" y="53"/>
      <point x="177" y="58"/>
      <point x="188" y="68" type="curve" smooth="yes"/>
      <point x="194" y="73"/>
      <point x="200" y="88"/>
      <point x="206" y="111" type="curve" smooth="yes"/>
      <point x="331" y="577" type="line" smooth="yes"/>
      <point x="341" y="614"/>
      <point x="346" y="637"/>
      <point x="346" y="646" type="curve" smooth="yes"/>
      <point x="346" y="655"/>
      <point x="337" y="669"/>
      <point x="311" y="669" type="curve" smooth="yes"/>
      <point x="189" y="669"/>
      <point x="132" y="532"/>
      <point x="111" y="500" type="curve"/>
      <point x="60" y="500" type="line"/>
      <point x="127" y="720" type="line"/>
      <point x="787" y="720" type="line"/>
      <point x="739" y="500" type="line"/>
      <point x="687" y="500" type="line"/>
      <point x="689" y="511"/>
      <point x="689" y="518"/>
      <point x="689" y="528" type="curve" smooth="yes"/>
      <point x="689" y="626"/>
      <point x="625" y="670"/>
      <point x="577" y="670" type="curve" smooth="yes"/>
      <point x="553" y="670"/>
      <point x="533" y="655"/>
    </contour>
  </outline>
</glyph>
<glyph name="afii10062" format="1">
  <advance width="693"/>
  <unicode hex="040E"/>
  <outline>
    <contour>
      <point x="286" y="961" type="curve"/>
      <point x="332" y="961" type="line"/>
      <point x="337" y="901"/>
      <point x="367" y="876"/>
      <point x="433" y="876" type="curve" smooth="yes"/>
      <point x="495" y="876"/>
      <point x="547" y="910"/>
      <point x="560" y="961" type="curve"/>
      <point x="607" y="961" type="line"/>
      <point x="604" y="925"/>
      <point x="590" y="889"/>
      <point x="565" y="859" type="curve" smooth="yes"/>
      <point x="530" y="817"/>
      <point x="484" y="797"/>
      <point x="423" y="797" type="curve" smooth="yes"/>
      <point x="335" y="797"/>
      <point x="284" y="846"/>
      <point x="284" y="932" type="curve" smooth="yes"/>
      <point x="284" y="938"/>
      <point x="285" y="948"/>
    </contour>
    <contour>
      <point x="27" y="-9" type="curve" smooth="yes"/>
      <point x="-28" y="-9"/>
      <point x="-72" y="23"/>
      <point x="-72" y="74" type="curve" smooth="yes"/>
      <point x="-72" y="148"/>
      <point x="-20" y="188"/>
      <point x="25" y="188" type="curve" smooth="yes"/>
      <point x="61" y="188"/>
      <point x="80" y="166"/>
      <point x="80" y="138" type="curve" smooth="yes"/>
      <point x="80" y="108"/>
      <point x="58" y="91"/>
      <point x="45" y="83" type="curve" smooth="yes"/>
      <point x="41" y="80"/>
      <point x="29" y="78"/>
      <point x="29" y="66" type="curve" smooth="yes"/>
      <point x="29" y="58"/>
      <point x="34" y="51"/>
      <point x="50" y="51" type="curve" smooth="yes"/>
      <point x="100" y="51"/>
      <point x="141" y="120"/>
      <point x="173" y="161" type="curve"/>
      <point x="60" y="617" type="line" smooth="yes"/>
      <point x="49" y="660"/>
      <point x="31" y="665"/>
      <point x="-12" y="668" type="curve"/>
      <point x="2" y="722" type="line"/>
      <point x="360" y="722" type="line"/>
      <point x="346" y="668" type="line"/>
      <point x="283" y="668"/>
      <point x="259" y="659"/>
      <point x="259" y="619" type="curve" smooth="yes"/>
      <point x="259" y="612"/>
      <point x="260" y="605"/>
      <point x="261" y="601" type="curve" smooth="yes"/>
      <point x="325" y="352" type="line"/>
      <point x="486" y="553" type="line" smooth="yes"/>
      <point x="514" y="588"/>
      <point x="528" y="614"/>
      <point x="528" y="637" type="curve" smooth="yes"/>
      <point x="528" y="660"/>
      <point x="504" y="668"/>
      <point x="450" y="668" type="curve"/>
      <point x="464" y="722" type="line"/>
      <point x="762" y="722" type="line"/>
      <point x="748" y="668" type="line"/>
      <point x="695" y="664"/>
      <point x="636" y="648"/>
      <point x="590" y="591" type="curve" smooth="yes"/>
      <point x="206" y="110" type="line" smooth="yes"/>
      <point x="117" y="0"/>
      <point x="98" y="-9"/>
    </contour>
  </outline>
</glyph>
<glyph name="afii10145" format="1">
  <advance width="940"/>
  <unicode hex="040F"/>
  <outline>
    <contour>
      <point x="309" y="0" type="line"/>
      <point x="-41" y="0" type="line"/>
      <point x="-27" y="54" type="line"/>
      <point x="-12" y="54" type="line" smooth="yes"/>
      <point x="40" y="54"/>
      <point x="63" y="58"/>
      <point x="75" y="69" type="curve" smooth="yes"/>
      <point x="84" y="77"/>
      <point x="84" y="81"/>
      <point x="101" y="145" type="curve" smooth="yes"/>
      <point x="217" y="578" type="line" smooth="yes"/>
      <point x="230" y="623"/>
      <point x="234" y="638"/>
      <point x="234" y="646" type="curve" smooth="yes"/>
      <point x="234" y="663"/>
      <point x="210" y="668"/>
      <point x="153" y="668" type="curve" smooth="yes"/>
      <point x="138" y="668" type="line"/>
      <point x="152" y="722" type="line"/>
      <point x="541" y="722" type="line"/>
      <point x="527" y="668" type="line"/>
      <point x="512" y="668" type="line" smooth="yes"/>
      <point x="460" y="668"/>
      <point x="437" y="664"/>
      <point x="426" y="653" type="curve"/>
      <point x="416" y="645"/>
      <point x="415" y="641"/>
      <point x="398" y="578" type="curve" smooth="yes"/>
      <point x="260" y="60" type="line"/>
      <point x="521" y="60" type="line"/>
      <point x="659" y="578" type="line" smooth="yes"/>
      <point x="671" y="621"/>
      <point x="675" y="637"/>
      <point x="675" y="645" type="curve" smooth="yes"/>
      <point x="675" y="663"/>
      <point x="651" y="668"/>
      <point x="594" y="668" type="curve" smooth="yes"/>
      <point x="579" y="668" type="line"/>
      <point x="593" y="722" type="line"/>
      <point x="982" y="722" type="line"/>
      <point x="968" y="668" type="line"/>
      <point x="953" y="668" type="line" smooth="yes"/>
      <point x="901" y="668"/>
      <point x="878" y="664"/>
      <point x="867" y="653" type="curve"/>
      <point x="857" y="645"/>
      <point x="856" y="641"/>
      <point x="839" y="578" type="curve" smooth="yes"/>
      <point x="723" y="145" type="line" smooth="yes"/>
      <point x="712" y="102"/>
      <point x="707" y="86"/>
      <point x="707" y="78" type="curve" smooth="yes"/>
      <point x="707" y="60"/>
      <point x="729" y="54"/>
      <point x="788" y="54" type="curve" smooth="yes"/>
      <point x="803" y="54" type="line"/>
      <point x="789" y="0" type="line"/>
      <point x="439" y="0" type="line"/>
      <point x="399" y="-150" type="line"/>
      <point x="269" y="-150" type="line"/>
    </contour>
  </outline>
</glyph>
<glyph name="afii10018" format="1">
  <advance width="793"/>
  <unicode hex="0411"/>
  <outline>
    <contour>
      <point x="394" y="598" type="curve" smooth="yes"/>
      <point x="341" y="398" type="line"/>
      <point x="390" y="398" type="line" smooth="yes"/>
      <point x="599" y="398"/>
      <point x="729" y="368"/>
      <point x="729" y="248" type="curve" smooth="yes"/>
      <point x="729" y="144"/>
      <point x="653" y="63"/>
      <point x="571" y="30" type="curve" smooth="yes"/>
      <point x="514" y="8"/>
      <point x="459" y="0"/>
      <point x="355" y="0" type="curve" smooth="yes"/>
      <point x="-50" y="0" type="line"/>
      <point x="-36" y="54" type="line"/>
      <point x="-21" y="54" type="line" smooth="yes"/>
      <point x="31" y="54"/>
      <point x="54" y="58"/>
      <point x="65" y="69" type="curve"/>
      <point x="75" y="77"/>
      <point x="76" y="81"/>
      <point x="93" y="144" type="curve" smooth="yes"/>
      <point x="209" y="578" type="line" smooth="yes"/>
      <point x="226" y="642"/>
      <point x="227" y="645"/>
      <point x="222" y="654" type="curve" smooth="yes"/>
      <point x="216" y="664"/>
      <point x="196" y="668"/>
      <point x="144" y="668" type="curve" smooth="yes"/>
      <point x="129" y="668" type="line"/>
      <point x="143" y="722" type="line"/>
      <point x="815" y="722" type="line"/>
      <point x="755" y="453" type="line"/>
      <point x="702" y="453" type="line"/>
      <point x="701" y="522"/>
      <point x="693" y="560"/>
      <point x="675" y="593" type="curve" smooth="yes"/>
      <point x="647" y="642"/>
      <point x="597" y="668"/>
      <point x="526" y="668" type="curve" smooth="yes"/>
      <point x="505" y="668" type="line" smooth="yes"/>
      <point x="456" y="668"/>
      <point x="442" y="666"/>
      <point x="427" y="654" type="curve" smooth="yes"/>
      <point x="411" y="642"/>
      <point x="403" y="631"/>
    </contour>
    <contour>
      <point x="326" y="343" type="line"/>
      <point x="266" y="118" type="line" smooth="yes"/>
      <point x="257" y="85"/>
      <point x="256" y="82"/>
      <point x="257" y="74" type="curve" smooth="yes"/>
      <point x="259" y="60"/>
      <point x="274" y="54"/>
      <point x="309" y="54" type="curve" smooth="yes"/>
      <point x="339" y="54" type="line" smooth="yes"/>
      <point x="387" y="54"/>
      <point x="423" y="63"/>
      <point x="454" y="84" type="curve" smooth="yes"/>
      <point x="497" y="114"/>
      <point x="538" y="178"/>
      <point x="538" y="245" type="curve" smooth="yes"/>
      <point x="538" y="277"/>
      <point x="528" y="303"/>
      <point x="508" y="319" type="curve" smooth="yes"/>
      <point x="485" y="337"/>
      <point x="458" y="343"/>
      <point x="395" y="343" type="curve" smooth="yes"/>
    </contour>
  </outline>
</glyph>
<glyph name="afii10019" format="1">
  <advance width="749"/>
  <unicode hex="0412"/>
  <outline>
    <contour>
      <point x="113" y="722" type="line"/>
      <point x="465" y="722" type="line" smooth="yes"/>
      <point x="547" y="722"/>
      <point x="614" y="710"/>
      <point x="652" y="687" type="curve" smooth="yes"/>
      <point x="701" y="658"/>
      <point x="729" y="609"/>
      <point x="729" y="551" type="curve" smooth="yes"/>
      <point x="729" y="451"/>
      <point x="646" y="385"/>
      <point x="498" y="368" type="curve"/>
      <point x="629" y="345"/>
      <point x="692" y="289"/>
      <point x="692" y="195" type="curve" smooth="yes"/>
      <point x="692" y="124"/>
      <point x="652" y="62"/>
      <point x="587" y="36" type="curve" smooth="yes"/>
      <point x="532" y="13"/>
      <point x="455" y="0"/>
      <point x="377" y="0" type="curve" smooth="yes"/>
      <point x="-41" y="0" type="line"/>
      <point x="-34" y="54" type="line"/>
      <point x="-30" y="54" type="line" smooth="yes"/>
      <point x="12" y="54"/>
      <point x="34" y="60"/>
      <point x="45" y="70" type="curve" smooth="yes"/>
      <point x="53" y="78"/>
      <point x="55" y="76"/>
      <point x="73" y="144" type="curve" smooth="yes"/>
      <point x="190" y="578" type="line" smooth="yes"/>
      <point x="199" y="611"/>
      <point x="203" y="632"/>
      <point x="203" y="641" type="curve" smooth="yes"/>
      <point x="203" y="663"/>
      <point x="189" y="668"/>
      <point x="124" y="668" type="curve" smooth="yes"/>
      <point x="105" y="668" type="line"/>
    </contour>
    <contour>
      <point x="317" y="397" type="line"/>
      <point x="348" y="397" type="line" smooth="yes"/>
      <point x="419" y="397"/>
      <point x="447" y="403"/>
      <point x="477" y="423" type="curve" smooth="yes"/>
      <point x="520" y="452"/>
      <point x="546" y="507"/>
      <point x="546" y="567" type="curve" smooth="yes"/>
      <point x="546" y="632"/>
      <point x="511" y="668"/>
      <point x="449" y="668" type="curve" smooth="yes"/>
      <point x="434" y="668" type="line" smooth="yes"/>
      <point x="398" y="668"/>
      <point x="387" y="657"/>
      <point x="374" y="608" type="curve" smooth="yes"/>
    </contour>
    <contour>
      <point x="303" y="343" type="line"/>
      <point x="244" y="122" type="line" smooth="yes"/>
      <point x="238" y="101"/>
      <point x="236" y="91"/>
      <point x="236" y="84" type="curve" smooth="yes"/>
      <point x="236" y="63"/>
      <point x="253" y="54"/>
      <point x="289" y="54" type="curve" smooth="yes"/>
      <point x="322" y="54" type="line" smooth="yes"/>
      <point x="374" y="54"/>
      <point x="417" y="67"/>
      <point x="445" y="91" type="curve" smooth="yes"/>
      <point x="480" y="120"/>
      <point x="501" y="175"/>
      <point x="501" y="233" type="curve" smooth="yes"/>
      <point x="501" y="276"/>
      <point x="489" y="304"/>
      <point x="464" y="322" type="curve" smooth="yes"/>
      <point x="439" y="339"/>
      <point x="420" y="343"/>
      <point x="353" y="343" type="curve" smooth="yes"/>
    </contour>
  </outline>
</glyph>
